CommonSerif-Regular.ufo
<glyph name="exclam" format="2">
  <advance width="288"/>
  <unicode hex="0021"/>
  <outline>
    <contour>
      <point x="144" y="658" type="curve" smooth="yes"/>
      <point x="120" y="658"/>
      <point x="91" y="639"/>
      <point x="91" y="585" type="curve" smooth="yes"/>
      <point x="91" y="465.531"/>
      <point x="128.97" y="329.269"/>
      <point x="129.302" y="209.988" type="curve" smooth="yes"/>
      <point x="129.339" y="196.879"/>
      <point x="134" y="190"/>
      <point x="144" y="190" type="curve" smooth="yes"/>
      <point x="154" y="190"/>
      <point x="157.978" y="196.955"/>
      <point x="158" y="210" type="curve" smooth="yes"/>
      <point x="158.204" y="328.678"/>
      <point x="197" y="466.623"/>
      <point x="197" y="585" type="curve" smooth="yes"/>
      <point x="197" y="639"/>
      <point x="168" y="658"/>
    </contour>
    <contour>
      <point x="91" y="43" type="curve" smooth="yes"/>
      <point x="91" y="14"/>
      <point x="115" y="-10"/>
      <point x="144" y="-10" type="curve" smooth="yes"/>
      <point x="173" y="-10"/>
      <point x="197" y="14"/>
      <point x="197" y="43" type="curve" smooth="yes"/>
      <point x="197" y="72"/>
      <point x="173" y="96"/>
      <point x="144" y="96" type="curve" smooth="yes"/>
      <point x="115" y="96"/>
      <point x="91" y="72"/>
    </contour>
  </outline>
</glyph>
<glyph name="numbersign" format="2">
  <advance width="465"/>
  <unicode hex="0023"/>
  <outline>
    <contour>
      <point x="218" y="198.988" type="line"/>
      <point x="218" y="237.988" type="line"/>
      <point x="45" y="237.988" type="line" smooth="yes"/>
      <point x="36" y="237.988"/>
      <point x="26" y="222.988"/>
      <point x="26" y="212.988" type="curve" smooth="yes"/>
      <point x="26" y="206.988"/>
      <point x="29" y="198.988"/>
      <point x="37" y="198.988" type="curve" smooth="yes"/>
    </contour>
    <contour>
      <point x="248.509" y="367.947" type="line"/>
      <point x="248.509" y="406.947" type="line"/>
      <point x="75.5088" y="406.947" type="line" smooth="yes"/>
      <point x="66.5088" y="406.947"/>
      <point x="56.5088" y="391.947"/>
      <point x="56.5088" y="381.947" type="curve" smooth="yes"/>
      <point x="56.5088" y="375.947"/>
      <point x="59.5088" y="367.947"/>
      <point x="67.5088" y="367.947" type="curve" smooth="yes"/>
    </contour>
    <contour>
      <point x="91" y="14" type="curve"/>
      <point x="103.21" y="9"/>
      <point x="115.79" y="9"/>
      <point x="128" y="14" type="curve"/>
      <point x="143.345" y="109.37"/>
      <point x="205.655" y="496.63"/>
      <point x="221" y="592" type="curve"/>
      <point x="208.46" y="597"/>
      <point x="195.54" y="597"/>
      <point x="183" y="592" type="curve"/>
      <point x="167.82" y="496.63"/>
      <point x="106.18" y="109.37"/>
    </contour>
    <contour>
      <point x="242" y="14" type="curve"/>
      <point x="254.54" y="9"/>
      <point x="267.46" y="9"/>
      <point x="280" y="14" type="curve"/>
      <point x="295.015" y="109.37"/>
      <point x="355.985" y="496.63"/>
      <point x="371" y="592" type="curve"/>
      <point x="358.46" y="597"/>
      <point x="345.54" y="597"/>
      <point x="333" y="592" type="curve"/>
      <point x="317.985" y="496.63"/>
      <point x="257.015" y="109.37"/>
    </contour>
    <contour>
      <point x="137.831" y="198.988" type="line"/>
      <point x="289.932" y="198.988" type="line"/>
      <point x="289.932" y="238.431" type="line"/>
      <point x="137.831" y="238.431" type="line"/>
    </contour>
    <contour>
      <point x="168.96" y="367.954" type="line"/>
      <point x="315.815" y="367.954" type="line"/>
      <point x="315.815" y="406.938" type="line"/>
      <point x="168.96" y="406.938" type="line"/>
    </contour>
    <contour>
      <point x="254.93" y="198.988" type="line"/>
      <point x="387.93" y="198.988" type="line" smooth="yes"/>
      <point x="399.93" y="198.988"/>
      <point x="408.93" y="213.988"/>
      <point x="408.93" y="224.988" type="curve" smooth="yes"/>
      <point x="408.93" y="229.988"/>
      <point x="405.93" y="237.988"/>
      <point x="396.93" y="237.988" type="curve" smooth="yes"/>
      <point x="254.93" y="237.988" type="line"/>
    </contour>
    <contour>
      <point x="281.408" y="367.947" type="line"/>
      <point x="414.408" y="367.947" type="line" smooth="yes"/>
      <point x="426.408" y="367.947"/>
      <point x="435.408" y="382.947"/>
      <point x="435.408" y="393.947" type="curve" smooth="yes"/>
      <point x="435.408" y="398.947"/>
      <point x="432.408" y="406.947"/>
      <point x="423.408" y="406.947" type="curve" smooth="yes"/>
      <point x="281.408" y="406.947" type="line"/>
    </contour>
  </outline>
</glyph>
<glyph name="asterisk" format="2">
  <advance width="369"/>
  <unicode hex="002A"/>
  <outline>
    <contour>
      <point x="84" y="459" type="curve" smooth="yes"/>
      <point x="84" y="443.293"/>
      <point x="96.732" y="431"/>
      <point x="113" y="431" type="curve" smooth="yes"/>
      <point x="150.463" y="431"/>
      <point x="166.453" y="505.216"/>
      <point x="183" y="535" type="curve"/>
      <point x="203.352" y="504.473"/>
      <point x="215.372" y="431"/>
      <point x="254" y="431" type="curve" smooth="yes"/>
      <point x="270" y="431"/>
      <point x="283" y="444"/>
      <point x="283" y="460" type="curve" smooth="yes"/>
      <point x="283" y="497.614"/>
      <point x="224.687" y="520.135"/>
      <point x="200" y="547" type="curve"/>
      <point x="216.355" y="549.726"/>
      <point x="233.875" y="551"/>
      <point x="255" y="551" type="curve" smooth="yes"/>
      <point x="300.722" y="551"/>
      <point x="324" y="563.335"/>
      <point x="324" y="587.562" type="curve" smooth="yes"/>
      <point x="324" y="604.721"/>
      <point x="309.167" y="618"/>
      <point x="290" y="618" type="curve" smooth="yes"/>
      <point x="259.911" y="618"/>
      <point x="224.105" y="577.896"/>
      <point x="195" y="565.241" type="curve"/>
      <point x="197.289" y="597.849"/>
      <point x="215.195" y="631.387"/>
      <point x="215.195" y="662.494" type="curve" smooth="yes"/>
      <point x="215.195" y="684.205"/>
      <point x="202.68" y="697.762"/>
      <point x="182.64" y="697.762" type="curve" smooth="yes"/>
      <point x="161.923" y="697.762"/>
      <point x="150.311" y="685.257"/>
      <point x="150.311" y="662.946" type="curve" smooth="yes"/>
      <point x="150.311" y="636.146"/>
      <point x="170.718" y="599.13"/>
      <point x="174" y="566.255" type="curve"/>
      <point x="142.176" y="579.464"/>
      <point x="108.199" y="618"/>
      <point x="78" y="618" type="curve" smooth="yes"/>
      <point x="58.276" y="618"/>
      <point x="44.938" y="605.697"/>
      <point x="45" y="587.562" type="curve" smooth="yes"/>
      <point x="45.089" y="561.711"/>
      <point x="61.908" y="550.043"/>
      <point x="98.768" y="550.263" type="curve" smooth="yes"/>
      <point x="121.63" y="550.399"/>
      <point x="145.77" y="553.214"/>
      <point x="168" y="547" type="curve"/>
      <point x="142.86" y="518.814"/>
      <point x="84" y="499.782"/>
    </contour>
  </outline>
</glyph>
<glyph name="comma" format="2">
  <advance width="220"/>
  <unicode hex="002C"/>
  <outline>
    <contour>
      <point x="104" y="95" type="curve" smooth="yes"/>
      <point x="73" y="95"/>
      <point x="51" y="74"/>
      <point x="51" y="46" type="curve" smooth="yes"/>
      <point x="51" y="19"/>
      <point x="70.962" y="8.868"/>
      <point x="88" y="4" type="curve" smooth="yes"/>
      <point x="95" y="2" type="line" smooth="yes"/>
      <point x="122.691" y="-5.912"/>
      <point x="131" y="-13.067"/>
      <point x="131" y="-25.052" type="curve" smooth="yes"/>
      <point x="131" y="-50"/>
      <point x="95" y="-96"/>
      <point x="43" y="-109" type="curve"/>
      <point x="43" y="-119"/>
      <point x="45" y="-126"/>
      <point x="52" y="-133" type="curve"/>
      <point x="116.213" y="-122.298"/>
      <point x="170" y="-71.56"/>
      <point x="170" y="3.685" type="curve" smooth="yes"/>
      <point x="170" y="56"/>
      <point x="144" y="95"/>
    </contour>
  </outline>
</glyph>
<glyph name="one" format="2">
  <advance width="465"/>
  <unicode hex="0031"/>
  <outline>
    <contour>
      <point x="114" y="-2" type="curve"/>
      <point x="163" y="-1"/>
      <point x="199" y="0"/>
      <point x="253" y="0" type="curve" smooth="yes"/>
      <point x="301" y="0"/>
      <point x="325" y="-1"/>
      <point x="375" y="-2" type="curve"/>
      <point x="381" y="4"/>
      <point x="381" y="25"/>
      <point x="375" y="31" type="curve"/>
      <point x="305" y="34"/>
      <point x="288" y="39"/>
      <point x="288" y="122" type="curve" smooth="yes"/>
      <point x="288" y="469" type="line" smooth="yes"/>
      <point x="288" y="529"/>
      <point x="289" y="590"/>
      <point x="291" y="603" type="curve"/>
      <point x="291" y="608"/>
      <point x="289" y="608"/>
      <point x="285" y="608" type="curve"/>
      <point x="223.13" y="568.628"/>
      <point x="154.496" y="534.965"/>
      <point x="89" y="508" type="curve"/>
      <point x="91" y="497"/>
      <point x="95" y="487"/>
      <point x="104" y="481" type="curve"/>
      <point x="150" y="500"/>
      <point x="172" y="506"/>
      <point x="191" y="506" type="curve" smooth="yes"/>
      <point x="206.129" y="506"/>
      <point x="211" y="495.357"/>
      <point x="211" y="472" type="curve" smooth="yes"/>
      <point x="211" y="122" type="line" smooth="yes"/>
      <point x="211" y="39"/>
      <point x="184" y="34"/>
      <point x="114" y="31" type="curve"/>
      <point x="108" y="25"/>
      <point x="108" y="4"/>
    </contour>
  </outline>
</glyph>
<glyph name="two" format="2">
  <advance width="465"/>
  <unicode hex="0032"/>
  <outline>
    <contour>
      <point x="49.452" y="18.336" type="curve" smooth="yes"/>
      <point x="49.452" y="14.105"/>
      <point x="51" y="4.74"/>
      <point x="53" y="-2" type="curve"/>
      <point x="58.128" y="-1.8"/>
      <point x="103.278" y="0"/>
      <point x="135.452" y="0" type="curve" smooth="yes"/>
      <point x="312.012" y="0" type="line" smooth="yes"/>
      <point x="343.626" y="0"/>
      <point x="384.013" y="-1.8"/>
      <point x="388.5" y="-2" type="curve"/>
      <point x="393.386" y="42.381"/>
      <point x="403.182" y="117.261"/>
      <point x="412" y="155.822" type="curve"/>
      <point x="406.091" y="160.812"/>
      <point x="393.386" y="162.808"/>
      <point x="383.614" y="160.812" type="curve"/>
      <point x="368.105" y="94.544"/>
      <point x="330.028" y="65"/>
      <point x="285.265" y="65" type="curve" smooth="yes"/>
      <point x="135.452" y="65" type="line"/>
      <point x="135.452" y="106.918"/>
      <point x="188.115" y="164.598"/>
      <point x="205.074" y="180.773" type="curve" smooth="yes"/>
      <point x="261.583" y="234.667" type="line" smooth="yes"/>
      <point x="379.99" y="349.424"/>
      <point x="410" y="394.885"/>
      <point x="410" y="457.229" type="curve" smooth="yes"/>
      <point x="410" y="547.478"/>
      <point x="343.095" y="610"/>
      <point x="247.848" y="610" type="curve" smooth="yes"/>
      <point x="147.595" y="610"/>
      <point x="61" y="540.848"/>
      <point x="61" y="467.21" type="curve" smooth="yes"/>
      <point x="61" y="445.439"/>
      <point x="78.627" y="428.286"/>
      <point x="101" y="428.286" type="curve" smooth="yes"/>
      <point x="129.427" y="428.286"/>
      <point x="148.129" y="444.062"/>
      <point x="148.129" y="468.208" type="curve" smooth="yes"/>
      <point x="148.129" y="476.192"/>
      <point x="146.108" y="482.18"/>
      <point x="144.086" y="489.167" type="curve" smooth="yes"/>
      <point x="142.065" y="496.153"/>
      <point x="136" y="505.135"/>
      <point x="136" y="513.12" type="curve" smooth="yes"/>
      <point x="136" y="538.071"/>
      <point x="162.28" y="574"/>
      <point x="236.065" y="574" type="curve" smooth="yes"/>
      <point x="272.452" y="574"/>
      <point x="324" y="549.049"/>
      <point x="324" y="453.237" type="curve" smooth="yes"/>
      <point x="324" y="389.363"/>
      <point x="301.71" y="336.483"/>
      <point x="240.981" y="277.582" type="curve" smooth="yes"/>
      <point x="166.061" y="204.725" type="line" smooth="yes"/>
      <point x="123.185" y="162.324"/>
      <point x="49.452" y="84.762"/>
    </contour>
  </outline>
</glyph>
<glyph name="three" format="2">
  <advance width="465"/>
  <unicode hex="0033"/>
  <outline>
    <contour>
      <point x="212.84" y="574" type="curve" smooth="yes"/>
      <point x="262.773" y="574"/>
      <point x="296" y="542.009"/>
      <point x="296" y="493.934" type="curve" smooth="yes"/>
      <point x="296" y="423.863"/>
      <point x="225.859" y="356.118"/>
      <point x="140.764" y="344" type="curve"/>
      <point x="145.708" y="312.007" type="line"/>
      <point x="152.732" y="313.332"/>
      <point x="162.751" y="314"/>
      <point x="175.592" y="314" type="curve" smooth="yes"/>
      <point x="277.124" y="314"/>
      <point x="327" y="272.261"/>
      <point x="327" y="187.294" type="curve" smooth="yes"/>
      <point x="327" y="98.267"/>
      <point x="271.124" y="26"/>
      <point x="202.29" y="26" type="curve" smooth="yes"/>
      <point x="172.496" y="26"/>
      <point x="146.802" y="40.147"/>
      <point x="128.937" y="66.259" type="curve" smooth="yes"/>
      <point x="116.795" y="84.006"/>
      <point x="103.216" y="92.768"/>
      <point x="87.854" y="92.768" type="curve" smooth="yes"/>
      <point x="65.816" y="92.768"/>
      <point x="44" y="74.528"/>
      <point x="44" y="56.102" type="curve" smooth="yes"/>
      <point x="44" y="22.465"/>
      <point x="117.322" y="-10"/>
      <point x="193.293" y="-10" type="curve" smooth="yes"/>
      <point x="318.531" y="-10"/>
      <point x="413" y="77.622"/>
      <point x="413" y="193.783" type="curve" smooth="yes"/>
      <point x="413" y="281.003"/>
      <point x="359.388" y="342.298"/>
      <point x="270.292" y="356.944" type="curve"/>
      <point x="269.303" y="358.935" type="line"/>
      <point x="344.579" y="393.219"/>
      <point x="376" y="431.313"/>
      <point x="376" y="488.292" type="curve" smooth="yes"/>
      <point x="376" y="562.833"/>
      <point x="321.364" y="610"/>
      <point x="235.02" y="610" type="curve" smooth="yes"/>
      <point x="139.421" y="610"/>
      <point x="47" y="549.166"/>
      <point x="47" y="486.24" type="curve" smooth="yes"/>
      <point x="47" y="462.449"/>
      <point x="61.207" y="446.554"/>
      <point x="82.471" y="446.554" type="curve" smooth="yes"/>
      <point x="105.086" y="446.554"/>
      <point x="120" y="465.087"/>
      <point x="120" y="493.189" type="curve" smooth="yes"/>
      <point x="120" y="539.013"/>
      <point x="160.195" y="574"/>
    </contour>
  </outline>
</glyph>
<glyph name="four" format="2">
  <advance width="465"/>
  <unicode hex="0034"/>
  <outline>
    <contour>
      <point x="62.1454" y="172" type="curve" smooth="yes"/>
      <point x="271" y="172" type="line"/>
      <point x="271" y="111" type="line" smooth="yes"/>
      <point x="271" y="37.906"/>
      <point x="261.331" y="35.9766"/>
      <point x="190" y="31" type="curve"/>
      <point x="184" y="25"/>
      <point x="184" y="4"/>
      <point x="190" y="-2" type="curve"/>
      <point x="218" y="-1"/>
      <point x="262" y="0"/>
      <point x="301" y="0" type="curve" smooth="yes"/>
      <point x="318" y="0" type="line" smooth="yes"/>
      <point x="357" y="0"/>
      <point x="385" y="-1"/>
      <point x="417" y="-2" type="curve"/>
      <point x="423" y="4"/>
      <point x="423" y="25"/>
      <point x="417" y="31" type="curve"/>
      <point x="362.616" y="36.1602"/>
      <point x="347" y="38.4155"/>
      <point x="347" y="111" type="curve" smooth="yes"/>
      <point x="347" y="172" type="line"/>
      <point x="416" y="172" type="line" smooth="yes"/>
      <point x="430" y="172"/>
      <point x="445" y="191"/>
      <point x="445" y="203" type="curve" smooth="yes"/>
      <point x="445" y="213"/>
      <point x="441" y="219"/>
      <point x="430" y="219" type="curve" smooth="yes"/>
      <point x="347" y="219" type="line"/>
      <point x="347" y="511" type="line" smooth="yes"/>
      <point x="347" y="561"/>
      <point x="347" y="600"/>
      <point x="349" y="608" type="curve"/>
      <point x="347" y="610" type="line"/>
      <point x="315" y="610" type="line" smooth="yes"/>
      <point x="308" y="610"/>
      <point x="303.052" y="603.958"/>
      <point x="299" y="599" type="curve" smooth="yes"/>
      <point x="293.433" y="592.189" type="line" smooth="yes"/>
      <point x="231.136" y="515.96"/>
      <point x="124.611" y="364.284"/>
      <point x="37" y="228" type="curve" smooth="yes"/>
      <point x="28" y="214" type="line"/>
      <point x="34.8064" y="176.565"/>
      <point x="48.1668" y="172"/>
    </contour>
    <contour>
      <point x="80" y="219" type="line"/>
      <point x="131" y="301"/>
      <point x="202" y="413"/>
      <point x="271" y="507" type="curve"/>
      <point x="271" y="219" type="line"/>
    </contour>
  </outline>
</glyph>
<glyph name="five" format="2">
  <advance width="465"/>
  <unicode hex="0035"/>
  <outline>
    <contour>
      <point x="54" y="64" type="curve" smooth="yes"/>
      <point x="54" y="24.1448"/>
      <point x="120.541" y="-11"/>
      <point x="196" y="-11" type="curve" smooth="yes"/>
      <point x="318.735" y="-11"/>
      <point x="408" y="80.7909"/>
      <point x="408" y="207" type="curve" smooth="yes"/>
      <point x="408" y="312.888"/>
      <point x="331.504" y="391.398"/>
      <point x="228.28" y="391.452" type="curve" smooth="yes"/>
      <point x="197.694" y="391.468"/>
      <point x="154.61" y="384.182"/>
      <point x="131" y="375" type="curve"/>
      <point x="151" y="542" type="line"/>
      <point x="191.159" y="535.488"/>
      <point x="223.5" y="533"/>
      <point x="268" y="533" type="curve" smooth="yes"/>
      <point x="283" y="533" type="line" smooth="yes"/>
      <point x="304.51" y="533"/>
      <point x="344.871" y="535.691"/>
      <point x="373" y="539" type="curve"/>
      <point x="389" y="607" type="line"/>
      <point x="382" y="611" type="line"/>
      <point x="331.098" y="604.268"/>
      <point x="282.01" y="600"/>
      <point x="234" y="600" type="curve" smooth="yes"/>
      <point x="218" y="600" type="line" smooth="yes"/>
      <point x="184.6" y="600"/>
      <point x="149.228" y="600.638"/>
      <point x="110" y="605" type="curve"/>
      <point x="76" y="317" type="line"/>
      <point x="81.8128" y="311.862" type="line"/>
      <point x="113.81" y="328.193"/>
      <point x="167.076" y="341"/>
      <point x="203" y="341" type="curve" smooth="yes"/>
      <point x="276.929" y="341"/>
      <point x="319" y="285.873"/>
      <point x="319" y="189" type="curve" smooth="yes"/>
      <point x="319" y="96.5"/>
      <point x="270.667" y="24"/>
      <point x="209" y="24" type="curve" smooth="yes"/>
      <point x="185.866" y="24"/>
      <point x="169.754" y="33.3277"/>
      <point x="152" y="57" type="curve" smooth="yes"/>
      <point x="143" y="69" type="line" smooth="yes"/>
      <point x="127.246" y="90.0048"/>
      <point x="109.723" y="101"/>
      <point x="92" y="101" type="curve" smooth="yes"/>
      <point x="72.2297" y="101"/>
      <point x="54" y="83.25"/>
    </contour>
  </outline>
</glyph>
<glyph name="six" format="2">
  <advance width="465"/>
  <unicode hex="0036"/>
  <outline>
    <contour>
      <point x="44" y="232" type="curve" smooth="yes"/>
      <point x="44" y="29"/>
      <point x="159" y="-11"/>
      <point x="236" y="-11" type="curve" smooth="yes"/>
      <point x="367" y="-11"/>
      <point x="421" y="116"/>
      <point x="421" y="202" type="curve" smooth="yes"/>
      <point x="421" y="315.553"/>
      <point x="343.928" y="365"/>
      <point x="239" y="365" type="curve" smooth="yes"/>
      <point x="213" y="365"/>
      <point x="174" y="357"/>
      <point x="144" y="343" type="curve"/>
      <point x="177.394" y="457.793"/>
      <point x="256.634" y="542.975"/>
      <point x="368" y="585" type="curve"/>
      <point x="368" y="597"/>
      <point x="364" y="606"/>
      <point x="356" y="611" type="curve"/>
      <point x="184.317" y="560.005"/>
      <point x="44" y="419.545"/>
    </contour>
    <contour>
      <point x="127" y="229" type="curve" smooth="yes"/>
      <point x="127" y="255.285"/>
      <point x="129.407" y="281.273"/>
      <point x="135" y="307" type="curve"/>
      <point x="168" y="329"/>
      <point x="201" y="330"/>
      <point x="218" y="330" type="curve" smooth="yes"/>
      <point x="308" y="330"/>
      <point x="338" y="249"/>
      <point x="338" y="197" type="curve" smooth="yes"/>
      <point x="338" y="140.514"/>
      <point x="329.148" y="24"/>
      <point x="247" y="24" type="curve" smooth="yes"/>
      <point x="184" y="24"/>
      <point x="127" y="58"/>
    </contour>
  </outline>
</glyph>
<glyph name="seven" format="2">
  <advance width="465"/>
  <unicode hex="0037"/>
  <outline>
    <contour>
      <point x="124" y="-6" type="curve"/>
      <point x="132" y="-13" type="line"/>
      <point x="200" y="-10" type="line"/>
      <point x="251.84" y="166.11"/>
      <point x="312" y="326"/>
      <point x="424" y="599" type="curve"/>
      <point x="408" y="611" type="line"/>
      <point x="391" y="606"/>
      <point x="369" y="600"/>
      <point x="331" y="600" type="curve" smooth="yes"/>
      <point x="125" y="600" type="line" smooth="yes"/>
      <point x="91" y="600"/>
      <point x="93" y="610"/>
      <point x="75" y="614" type="curve"/>
      <point x="72" y="614"/>
      <point x="71" y="614"/>
      <point x="71" y="611" type="curve" smooth="yes"/>
      <point x="71" y="563"/>
      <point x="61.9164" y="503.533"/>
      <point x="51" y="451" type="curve"/>
      <point x="62" y="448"/>
      <point x="72" y="447"/>
      <point x="83" y="448" type="curve"/>
      <point x="105" y="528"/>
      <point x="138" y="535"/>
      <point x="170" y="535" type="curve" smooth="yes"/>
      <point x="349" y="535" type="line"/>
      <point x="271" y="341"/>
      <point x="192" y="146"/>
    </contour>
  </outline>
</glyph>
<glyph name="A" format="2">
  <advance width="695"/>
  <unicode hex="0041"/>
  <anchor x="354" y="740" name="t.uni0302"/>
  <anchor x="358" y="620" name="t.ring"/>
  <anchor x="353" y="-60" name="b.minus-60"/>
  <anchor x="600" y="10" name="b.ogonek"/>
  <anchor x="332" y="-60" name="ypogegrammeni"/>
  <outline>
    <contour>
      <point x="155" y="79" type="curve" smooth="yes"/>
      <point x="210" y="224" type="line" smooth="yes"/>
      <point x="215" y="237"/>
      <point x="221" y="241"/>
      <point x="245" y="241" type="curve" smooth="yes"/>
      <point x="456" y="241" type="line"/>
      <point x="514" y="72" type="line" smooth="yes"/>
      <point x="526" y="38"/>
      <point x="488" y="34"/>
      <point x="440" y="31" type="curve"/>
      <point x="434" y="25"/>
      <point x="434" y="4"/>
      <point x="440" y="-2" type="curve"/>
      <point x="477" y="-1"/>
      <point x="532" y="0"/>
      <point x="571" y="0" type="curve" smooth="yes"/>
      <point x="612" y="0"/>
      <point x="650" y="-1"/>
      <point x="685" y="-2" type="curve"/>
      <point x="691" y="4"/>
      <point x="691" y="25"/>
      <point x="685" y="31" type="curve"/>
      <point x="646" y="35"/>
      <point x="612.254" y="38.091"/>
      <point x="595" y="86" type="curve" smooth="yes"/>
      <point x="389" y="658" type="line"/>
      <point x="374" y="649"/>
      <point x="347" y="638"/>
      <point x="334" y="638" type="curve"/>
      <point x="107" y="102" type="line" smooth="yes"/>
      <point x="81" y="40"/>
      <point x="51" y="34"/>
      <point x="7" y="31" type="curve"/>
      <point x="1" y="25"/>
      <point x="1" y="4"/>
      <point x="7" y="-2" type="curve"/>
      <point x="33" y="-1"/>
      <point x="66" y="0"/>
      <point x="96" y="0" type="curve" smooth="yes"/>
      <point x="137" y="0"/>
      <point x="187" y="-1"/>
      <point x="224" y="-2" type="curve"/>
      <point x="230" y="4"/>
      <point x="230" y="25"/>
      <point x="224" y="31" type="curve"/>
      <point x="186" y="34"/>
      <point x="139" y="38"/>
    </contour>
    <contour>
      <point x="263" y="283" type="line" smooth="yes"/>
      <point x="241" y="283"/>
      <point x="234" y="286"/>
      <point x="238" y="296" type="curve" smooth="yes"/>
      <point x="340" y="555" type="line"/>
      <point x="346" y="555" type="line"/>
      <point x="440" y="283" type="line"/>
    </contour>
  </outline>
</glyph>
<glyph name="B" format="2">
  <advance width="584"/>
  <unicode hex="0042"/>
  <anchor x="273" y="740" name="t.uni0302"/>
  <anchor x="274" y="-60" name="b.minus-60"/>
  <outline>
    <contour>
      <point x="19" y="-2" type="curve"/>
      <point x="56" y="-1"/>
      <point x="115.5" y="0"/>
      <point x="148.5" y="0" type="curve"/>
      <point x="148.5" y="645" type="line"/>
      <point x="118.5" y="645"/>
      <point x="59" y="646"/>
      <point x="19" y="647" type="curve"/>
      <point x="13" y="641"/>
      <point x="13" y="620"/>
      <point x="19" y="614" type="curve"/>
      <point x="89" y="611"/>
      <point x="106" y="604"/>
      <point x="106" y="527" type="curve" smooth="yes"/>
      <point x="106" y="120" type="line" smooth="yes"/>
      <point x="106" y="39"/>
      <point x="89" y="34"/>
      <point x="19" y="31" type="curve"/>
      <point x="13" y="25"/>
      <point x="13" y="4"/>
    </contour>
    <contour>
      <point x="149.5" y="645" type="curve"/>
      <point x="149.5" y="0" type="line"/>
      <point x="185.5" y="0"/>
      <point x="212" y="-2"/>
      <point x="296" y="-2" type="curve" smooth="yes"/>
      <point x="495" y="-2"/>
      <point x="548" y="98"/>
      <point x="548" y="184" type="curve" smooth="yes"/>
      <point x="548" y="280"/>
      <point x="481" y="335"/>
      <point x="394" y="360" type="curve"/>
      <point x="394" y="362" type="line"/>
      <point x="444" y="387"/>
      <point x="489" y="439"/>
      <point x="489" y="493" type="curve" smooth="yes"/>
      <point x="489" y="560"/>
      <point x="460" y="647"/>
      <point x="274" y="647" type="curve" smooth="yes"/>
      <point x="239" y="647"/>
      <point x="185.5" y="645"/>
    </contour>
    <contour>
      <point x="192" y="332" type="line"/>
      <point x="261" y="332" type="line" smooth="yes"/>
      <point x="398" y="332"/>
      <point x="455" y="255"/>
      <point x="455" y="165" type="curve" smooth="yes"/>
      <point x="455" y="92"/>
      <point x="427" y="31"/>
      <point x="275" y="31" type="curve" smooth="yes"/>
      <point x="205" y="31"/>
      <point x="192" y="57"/>
      <point x="192" y="118" type="curve" smooth="yes"/>
    </contour>
    <contour>
      <point x="192" y="550" type="line" smooth="yes"/>
      <point x="192" y="603"/>
      <point x="192" y="613"/>
      <point x="279" y="613" type="curve" smooth="yes"/>
      <point x="335" y="613"/>
      <point x="408" y="583"/>
      <point x="408" y="481" type="curve" smooth="yes"/>
      <point x="408" y="396"/>
      <point x="349" y="366"/>
      <point x="266" y="366" type="curve" smooth="yes"/>
      <point x="192" y="366" type="line"/>
    </contour>
  </outline>
  <guideline angle="90" x="274" y="0"/>
</glyph>
<glyph name="C" format="2">
  <advance width="645"/>
  <unicode hex="0043"/>
  <anchor x="339" y="740" name="t.uni0302"/>
  <anchor x="339" y="-60" name="b.minus-60"/>
  <anchor x="355" y="0" name="b.cedilla"/>
  <outline>
    <contour>
      <point x="356" y="-10" type="curve" smooth="yes"/>
      <point x="453" y="-10"/>
      <point x="542" y="36"/>
      <point x="610" y="125" type="curve"/>
      <point x="605" y="134"/>
      <point x="598" y="140"/>
      <point x="587" y="140" type="curve"/>
      <point x="516" y="62"/>
      <point x="448" y="31"/>
      <point x="355" y="31" type="curve" smooth="yes"/>
      <point x="220" y="31"/>
      <point x="127" y="183"/>
      <point x="127" y="329" type="curve" smooth="yes"/>
      <point x="127" y="455"/>
      <point x="196" y="621"/>
      <point x="346" y="621" type="curve" smooth="yes"/>
      <point x="484" y="621"/>
      <point x="539" y="539"/>
      <point x="565" y="453" type="curve"/>
      <point x="577" y="449"/>
      <point x="587" y="452"/>
      <point x="598" y="458" type="curve"/>
      <point x="593" y="510"/>
      <point x="586" y="558"/>
      <point x="576" y="613" type="curve"/>
      <point x="525" y="618"/>
      <point x="480" y="658"/>
      <point x="357" y="658" type="curve" smooth="yes"/>
      <point x="163" y="658"/>
      <point x="36" y="496"/>
      <point x="36" y="310" type="curve" smooth="yes"/>
      <point x="36" y="136"/>
      <point x="141" y="-10"/>
    </contour>
  </outline>
</glyph>
<glyph name="D" format="2">
  <advance width="701"/>
  <unicode hex="0044"/>
  <anchor x="300" y="740" name="t.uni0302"/>
  <anchor x="330" y="-60" name="b.minus-60"/>
  <outline>
    <contour>
      <point x="19" y="-2" type="curve"/>
      <point x="56" y="-1"/>
      <point x="115.5" y="0"/>
      <point x="148.5" y="0" type="curve"/>
      <point x="148.5" y="645" type="line"/>
      <point x="118.5" y="645"/>
      <point x="59" y="646"/>
      <point x="19" y="647" type="curve"/>
      <point x="13" y="641"/>
      <point x="13" y="620"/>
      <point x="19" y="614" type="curve"/>
      <point x="89" y="611"/>
      <point x="106" y="604"/>
      <point x="106" y="527" type="curve" smooth="yes"/>
      <point x="106" y="120" type="line" smooth="yes"/>
      <point x="106" y="39"/>
      <point x="89" y="34"/>
      <point x="19" y="31" type="curve"/>
      <point x="13" y="25"/>
      <point x="13" y="4"/>
    </contour>
    <contour>
      <point x="19" y="-2" type="curve"/>
      <point x="56" y="-1"/>
      <point x="115.5" y="0"/>
      <point x="148.5" y="0" type="curve"/>
      <point x="148.5" y="645" type="line"/>
      <point x="118.5" y="645"/>
      <point x="59" y="646"/>
      <point x="19" y="647" type="curve"/>
      <point x="13" y="641"/>
      <point x="13" y="620"/>
      <point x="19" y="614" type="curve"/>
      <point x="89" y="611"/>
      <point x="106" y="604"/>
      <point x="106" y="527" type="curve" smooth="yes"/>
      <point x="106" y="120" type="line" smooth="yes"/>
      <point x="106" y="39"/>
      <point x="89" y="34"/>
      <point x="19" y="31" type="curve"/>
      <point x="13" y="25"/>
      <point x="13" y="4"/>
    </contour>
    <contour>
      <point x="148.5" y="0" type="line"/>
      <point x="185.5" y="0"/>
      <point x="228" y="-2"/>
      <point x="331" y="-2" type="curve" smooth="yes"/>
      <point x="472" y="-2"/>
      <point x="658" y="62"/>
      <point x="658" y="308" type="curve" smooth="yes"/>
      <point x="658" y="494"/>
      <point x="505" y="647"/>
      <point x="313" y="647" type="curve" smooth="yes"/>
      <point x="242" y="647"/>
      <point x="187.5" y="645"/>
      <point x="148.5" y="645" type="curve"/>
    </contour>
    <contour>
      <point x="191" y="84" type="curve" smooth="yes"/>
      <point x="191" y="564" type="line" smooth="yes"/>
      <point x="191" y="599"/>
      <point x="226" y="613"/>
      <point x="275" y="613" type="curve" smooth="yes"/>
      <point x="491" y="613"/>
      <point x="562" y="438"/>
      <point x="562" y="284" type="curve" smooth="yes"/>
      <point x="562" y="82"/>
      <point x="441" y="32"/>
      <point x="300" y="32" type="curve" smooth="yes"/>
      <point x="202" y="32"/>
      <point x="191" y="52"/>
    </contour>
  </outline>
</glyph>
<glyph name="F" format="2">
  <advance width="486"/>
  <unicode hex="0046"/>
  <anchor x="241" y="740" name="t.uni0302"/>
  <anchor x="241" y="-60" name="b.minus-60"/>
  <outline>
    <contour>
      <point x="19" y="-2" type="curve"/>
      <point x="56" y="-1"/>
      <point x="115.5" y="0"/>
      <point x="148.5" y="0" type="curve"/>
      <point x="148.5" y="645" type="line"/>
      <point x="118.5" y="645"/>
      <point x="59" y="646"/>
      <point x="19" y="647" type="curve"/>
      <point x="13" y="641"/>
      <point x="13" y="620"/>
      <point x="19" y="614" type="curve"/>
      <point x="89" y="611"/>
      <point x="106" y="604"/>
      <point x="106" y="527" type="curve" smooth="yes"/>
      <point x="106" y="120" type="line" smooth="yes"/>
      <point x="106" y="39"/>
      <point x="89" y="34"/>
      <point x="19" y="31" type="curve"/>
      <point x="13" y="25"/>
      <point x="13" y="4"/>
    </contour>
    <contour>
      <point x="148.5" y="0" type="line"/>
      <point x="193.5" y="0"/>
      <point x="243" y="-1"/>
      <point x="278" y="-2" type="curve"/>
      <point x="284" y="4"/>
      <point x="284" y="25"/>
      <point x="278" y="31" type="curve"/>
      <point x="208" y="34"/>
      <point x="191" y="40"/>
      <point x="191" y="120.41" type="curve" smooth="yes"/>
      <point x="191" y="541" type="line" smooth="yes"/>
      <point x="191" y="595"/>
      <point x="203" y="605"/>
      <point x="247" y="605" type="curve" smooth="yes"/>
      <point x="292" y="605" type="line" smooth="yes"/>
      <point x="398" y="605"/>
      <point x="423" y="565"/>
      <point x="445" y="496" type="curve"/>
      <point x="457" y="496"/>
      <point x="468" y="498"/>
      <point x="476" y="501" type="curve"/>
      <point x="471" y="542"/>
      <point x="456" y="638"/>
      <point x="454" y="646" type="curve"/>
      <point x="454" y="648"/>
      <point x="453" y="649"/>
      <point x="450" y="649" type="curve"/>
      <point x="433" y="646"/>
      <point x="428" y="645"/>
      <point x="403" y="645" type="curve" smooth="yes"/>
      <point x="148.5" y="645" type="line"/>
    </contour>
    <contour>
      <point x="176" y="323" type="line"/>
      <point x="284" y="323" type="line" smooth="yes"/>
      <point x="369" y="323"/>
      <point x="372" y="300"/>
      <point x="375" y="255" type="curve"/>
      <point x="381" y="249"/>
      <point x="402" y="249"/>
      <point x="408" y="255" type="curve"/>
      <point x="407" y="280"/>
      <point x="406" y="309"/>
      <point x="406" y="343" type="curve" smooth="yes"/>
      <point x="406" y="377"/>
      <point x="407" y="403"/>
      <point x="408" y="429" type="curve"/>
      <point x="402" y="435"/>
      <point x="381" y="435"/>
      <point x="375" y="429" type="curve"/>
      <point x="372" y="374"/>
      <point x="369" y="361"/>
      <point x="284" y="361" type="curve" smooth="yes"/>
      <point x="176" y="361" type="line"/>
    </contour>
  </outline>
</glyph>
<glyph name="I" format="2">
  <advance width="297"/>
  <unicode hex="0049"/>
  <anchor x="150" y="740" name="t.uni0302"/>
  <anchor x="147" y="-110" name="m.uni0316_2"/>
  <outline>
    <contour>
      <point x="19" y="-2" type="curve"/>
      <point x="64" y="-1"/>
      <point x="113" y="0"/>
      <point x="149" y="0" type="curve" smooth="yes"/>
      <point x="185" y="0"/>
      <point x="233" y="-1"/>
      <point x="278" y="-2" type="curve"/>
      <point x="284" y="4"/>
      <point x="284" y="25"/>
      <point x="278" y="31" type="curve"/>
      <point x="208" y="34"/>
      <point x="191" y="39"/>
      <point x="191" y="122" type="curve"/>
      <point x="106" y="122" type="line"/>
      <point x="106" y="39"/>
      <point x="89" y="34"/>
      <point x="19" y="31" type="curve"/>
      <point x="13" y="25"/>
      <point x="13" y="4"/>
    </contour>
    <contour>
      <point x="106" y="122" type="line"/>
      <point x="191" y="122" type="line"/>
      <point x="191" y="523" type="line"/>
      <point x="106" y="523" type="line"/>
    </contour>
    <contour>
      <point x="191" y="523" type="line"/>
      <point x="191" y="606"/>
      <point x="208" y="611"/>
      <point x="278" y="614" type="curve"/>
      <point x="284" y="620"/>
      <point x="284" y="641"/>
      <point x="278" y="647" type="curve"/>
      <point x="234" y="646"/>
      <point x="187" y="645"/>
      <point x="148" y="645" type="curve" smooth="yes"/>
      <point x="115" y="645"/>
      <point x="66" y="646"/>
      <point x="19" y="647" type="curve"/>
      <point x="13" y="641"/>
      <point x="13" y="620"/>
      <point x="19" y="614" type="curve"/>
      <point x="89" y="611"/>
      <point x="106" y="606"/>
      <point x="106" y="523" type="curve"/>
    </contour>
  </outline>
</glyph>
<glyph name="J" format="2">
  <advance width="291"/>
  <unicode hex="004A"/>
  <anchor x="152" y="740" name="t.uni0302"/>
  <outline>
    <contour>
      <point x="195" y="523" type="line" smooth="yes"/>
      <point x="195" y="606"/>
      <point x="212" y="611"/>
      <point x="272" y="614" type="curve"/>
      <point x="278" y="620"/>
      <point x="278" y="641"/>
      <point x="272" y="647" type="curve"/>
      <point x="234" y="646"/>
      <point x="191" y="645"/>
      <point x="152" y="645" type="curve" smooth="yes"/>
      <point x="116" y="645"/>
      <point x="63" y="646"/>
      <point x="13" y="647" type="curve"/>
      <point x="7" y="641"/>
      <point x="7" y="620"/>
      <point x="13" y="614" type="curve"/>
      <point x="93" y="611"/>
      <point x="110" y="606"/>
      <point x="110" y="523" type="curve" smooth="yes"/>
      <point x="110" y="81" type="line" smooth="yes"/>
      <point x="110" y="-99"/>
      <point x="58" y="-127"/>
      <point x="25" y="-127" type="curve" smooth="yes"/>
      <point x="6" y="-127"/>
      <point x="-8" y="-115"/>
      <point x="-15" y="-100" type="curve"/>
      <point x="-21" y="-88"/>
      <point x="-30" y="-75"/>
      <point x="-55" y="-75" type="curve" smooth="yes"/>
      <point x="-69" y="-75"/>
      <point x="-99" y="-96"/>
      <point x="-99" y="-118" type="curve" smooth="yes"/>
      <point x="-99" y="-154"/>
      <point x="-46" y="-172"/>
      <point x="-24" y="-172" type="curve" smooth="yes"/>
      <point x="21" y="-172"/>
      <point x="52" y="-164"/>
      <point x="93" y="-129" type="curve" smooth="yes"/>
      <point x="137" y="-92"/>
      <point x="195" y="-40"/>
      <point x="195" y="103" type="curve" smooth="yes"/>
    </contour>
  </outline>
</glyph>
<glyph name="O" format="2">
  <advance width="702"/>
  <unicode hex="004F"/>
  <anchor x="344" y="740" name="t.uni0302"/>
  <anchor x="384" y="10" name="b.ogonek"/>
  <anchor x="344" y="-60" name="b.minus-60"/>
  <outline>
    <contour>
      <point x="666" y="329" type="curve" smooth="yes"/>
      <point x="666" y="536"/>
      <point x="523" y="658"/>
      <point x="347.348" y="658" type="curve" smooth="yes"/>
      <point x="150" y="658"/>
      <point x="37" y="504"/>
      <point x="37" y="319.995" type="curve" smooth="yes"/>
      <point x="37" y="113"/>
      <point x="180" y="-10"/>
      <point x="355.048" y="-10" type="curve" smooth="yes"/>
      <point x="549" y="-10"/>
      <point x="666" y="141"/>
    </contour>
    <contour>
      <point x="340.065" y="622" type="curve" smooth="yes"/>
      <point x="463" y="622"/>
      <point x="570" y="512"/>
      <point x="570" y="311.105" type="curve" smooth="yes"/>
      <point x="570" y="131"/>
      <point x="484" y="26"/>
      <point x="367.103" y="26" type="curve" smooth="yes"/>
      <point x="248" y="26"/>
      <point x="133" y="135"/>
      <point x="133" y="327" type="curve" smooth="yes"/>
      <point x="133" y="537"/>
      <point x="232" y="622"/>
    </contour>
  </outline>
  <guideline angle="90" x="344" y="0"/>
</glyph>
<glyph name="P" format="2">
  <advance width="543"/>
  <unicode hex="0050"/>
  <anchor x="250" y="740" name="t.uni0302"/>
  <anchor x="250" y="-60" name="b.minus-60"/>
  <outline>
    <contour>
      <point x="19" y="-2" type="curve"/>
      <point x="56" y="-1"/>
      <point x="116.5" y="0"/>
      <point x="149" y="0" type="curve"/>
      <point x="149" y="645" type="line"/>
      <point x="119" y="645"/>
      <point x="59" y="646"/>
      <point x="19" y="647" type="curve"/>
      <point x="13" y="641"/>
      <point x="13" y="620"/>
      <point x="19" y="614" type="curve"/>
      <point x="89" y="611"/>
      <point x="106" y="604"/>
      <point x="106" y="527" type="curve" smooth="yes"/>
      <point x="106" y="120" type="line" smooth="yes"/>
      <point x="106" y="39"/>
      <point x="89" y="34"/>
      <point x="19" y="31" type="curve"/>
      <point x="13" y="25"/>
      <point x="13" y="4"/>
    </contour>
    <contour>
      <point x="148.5" y="0" type="line"/>
      <point x="183.5" y="0"/>
      <point x="243" y="-1"/>
      <point x="293" y="-2" type="curve"/>
      <point x="299" y="4"/>
      <point x="299" y="25"/>
      <point x="293" y="31" type="curve"/>
      <point x="215" y="35"/>
      <point x="191" y="39"/>
      <point x="191" y="122" type="curve" smooth="yes"/>
      <point x="191" y="554" type="line" smooth="yes"/>
      <point x="191" y="583"/>
      <point x="206" y="618"/>
      <point x="278" y="618" type="curve" smooth="yes"/>
      <point x="347" y="618"/>
      <point x="416" y="595"/>
      <point x="416" y="468" type="curve" smooth="yes"/>
      <point x="416" y="360"/>
      <point x="364" y="316"/>
      <point x="267" y="316" type="curve" smooth="yes"/>
      <point x="215" y="316"/>
      <point x="193" y="319"/>
      <point x="158" y="325" type="curve"/>
      <point x="158" y="313"/>
      <point x="163" y="302"/>
      <point x="172" y="292" type="curve"/>
      <point x="197" y="286"/>
      <point x="231" y="282"/>
      <point x="272" y="282" type="curve" smooth="yes"/>
      <point x="454" y="282"/>
      <point x="509" y="401"/>
      <point x="509" y="486" type="curve" smooth="yes"/>
      <point x="509" y="545"/>
      <point x="470" y="652"/>
      <point x="285" y="652" type="curve" smooth="yes"/>
      <point x="247" y="652"/>
      <point x="188.5" y="645"/>
      <point x="148.5" y="645" type="curve"/>
    </contour>
  </outline>
</glyph>
<glyph name="Q" format="2">
  <advance width="716"/>
  <unicode hex="0051"/>
  <anchor x="343" y="740" name="t.uni0302"/>
  <outline>
    <contour>
      <point x="36" y="310" type="curve" smooth="yes"/>
      <point x="36" y="129"/>
      <point x="157" y="11"/>
      <point x="308" y="-8" type="curve"/>
      <point x="252" y="-36"/>
      <point x="172" y="-98"/>
      <point x="138" y="-153" type="curve"/>
      <point x="177" y="-173" type="line"/>
      <point x="189" y="-156"/>
      <point x="202" y="-141"/>
      <point x="215" y="-127" type="curve"/>
      <point x="229" y="-117"/>
      <point x="242" y="-114"/>
      <point x="250" y="-114" type="curve" smooth="yes"/>
      <point x="293" y="-114"/>
      <point x="329" y="-133"/>
      <point x="368" y="-155" type="curve" smooth="yes"/>
      <point x="415" y="-182"/>
      <point x="465" y="-209"/>
      <point x="536" y="-209" type="curve" smooth="yes"/>
      <point x="599" y="-209"/>
      <point x="641" y="-183"/>
      <point x="680" y="-127" type="curve"/>
      <point x="663" y="-115" type="line"/>
      <point x="641" y="-142"/>
      <point x="605" y="-152"/>
      <point x="576" y="-152" type="curve" smooth="yes"/>
      <point x="534" y="-152"/>
      <point x="494.07" y="-133.853"/>
      <point x="452" y="-114" type="curve" smooth="yes"/>
      <point x="405.069" y="-91.853"/>
      <point x="355" y="-70"/>
      <point x="297" y="-70" type="curve" smooth="yes"/>
      <point x="291" y="-70"/>
      <point x="284" y="-70"/>
      <point x="277" y="-71" type="curve"/>
      <point x="327" y="-35"/>
      <point x="376" y="-14"/>
      <point x="408" y="-5" type="curve"/>
      <point x="577" y="23"/>
      <point x="665" y="166"/>
      <point x="665" y="329" type="curve" smooth="yes"/>
      <point x="665" y="536"/>
      <point x="522" y="658"/>
      <point x="343" y="658" type="curve" smooth="yes"/>
      <point x="149" y="658"/>
      <point x="36" y="504"/>
    </contour>
    <contour>
      <point x="132" y="327" type="curve" smooth="yes"/>
      <point x="132" y="537"/>
      <point x="231" y="622"/>
      <point x="330" y="622" type="curve" smooth="yes"/>
      <point x="462" y="622"/>
      <point x="569" y="512"/>
      <point x="569" y="310" type="curve" smooth="yes"/>
      <point x="569" y="131"/>
      <point x="483" y="26"/>
      <point x="369" y="26" type="curve" smooth="yes"/>
      <point x="247" y="26"/>
      <point x="132" y="135"/>
    </contour>
  </outline>
</glyph>
<glyph name="R" format="2">
  <advance width="589"/>
  <unicode hex="0052"/>
  <anchor x="273" y="740" name="t.uni0302"/>
  <anchor x="273" y="-60" name="b.minus-60"/>
  <outline>
    <contour>
      <point x="19" y="-2" type="curve"/>
      <point x="56" y="-1"/>
      <point x="122" y="0"/>
      <point x="154" y="0" type="curve"/>
      <point x="154" y="645" type="line"/>
      <point x="124" y="645"/>
      <point x="59" y="646"/>
      <point x="19" y="647" type="curve"/>
      <point x="13" y="641"/>
      <point x="13" y="620"/>
      <point x="19" y="614" type="curve"/>
      <point x="89" y="611"/>
      <point x="106" y="604"/>
      <point x="106" y="527" type="curve" smooth="yes"/>
      <point x="106" y="120" type="line" smooth="yes"/>
      <point x="106" y="39"/>
      <point x="89" y="34"/>
      <point x="19" y="31" type="curve"/>
      <point x="13" y="25"/>
      <point x="13" y="4"/>
    </contour>
    <contour>
      <point x="148.5" y="0" type="line"/>
      <point x="186.5" y="0"/>
      <point x="234" y="-1"/>
      <point x="278" y="-2" type="curve"/>
      <point x="284" y="4"/>
      <point x="284" y="25"/>
      <point x="278" y="31" type="curve"/>
      <point x="208" y="34"/>
      <point x="191" y="39"/>
      <point x="191" y="122" type="curve" smooth="yes"/>
      <point x="191" y="291" type="line"/>
      <point x="275" y="291"/>
      <point x="294" y="276"/>
      <point x="308" y="253" type="curve" smooth="yes"/>
      <point x="415" y="79" type="line" smooth="yes"/>
      <point x="444" y="32"/>
      <point x="487" y="-10"/>
      <point x="547" y="-10" type="curve" smooth="yes"/>
      <point x="562" y="-10"/>
      <point x="579" y="-8"/>
      <point x="589" y="-3" type="curve"/>
      <point x="593" y="4"/>
      <point x="592" y="13"/>
      <point x="588" y="21" type="curve"/>
      <point x="543" y="21"/>
      <point x="518" y="55"/>
      <point x="492" y="98" type="curve" smooth="yes"/>
      <point x="366" y="308" type="line"/>
      <point x="409" y="322"/>
      <point x="499" y="374"/>
      <point x="499" y="479" type="curve" smooth="yes"/>
      <point x="499" y="615"/>
      <point x="389" y="652"/>
      <point x="273" y="652" type="curve" smooth="yes"/>
      <point x="226" y="652"/>
      <point x="184.5" y="645"/>
      <point x="148.5" y="645" type="curve"/>
    </contour>
    <contour>
      <point x="191" y="325" type="line"/>
      <point x="191" y="554" type="line" smooth="yes"/>
      <point x="191" y="583"/>
      <point x="203" y="618"/>
      <point x="274" y="618" type="curve" smooth="yes"/>
      <point x="335" y="618"/>
      <point x="407" y="596"/>
      <point x="407" y="478" type="curve" smooth="yes"/>
      <point x="407" y="353"/>
      <point x="336" y="325"/>
      <point x="239" y="325" type="curve" smooth="yes"/>
    </contour>
  </outline>
</glyph>
<glyph name="V" format="2">
  <advance width="654"/>
  <unicode hex="0056"/>
  <anchor x="334" y="740" name="t.uni0302"/>
  <anchor x="346" y="-60" name="b.minus-60"/>
  <outline>
    <contour>
      <point x="295" y="11" type="line" smooth="yes"/>
      <point x="301" y="-5"/>
      <point x="308" y="-12"/>
      <point x="318" y="-12" type="curve" smooth="yes"/>
      <point x="329" y="-12"/>
      <point x="336" y="-3"/>
      <point x="342" y="11" type="curve" smooth="yes"/>
      <point x="549" y="521" type="line" smooth="yes"/>
      <point x="568" y="568"/>
      <point x="584" y="607"/>
      <point x="647" y="614" type="curve"/>
      <point x="653" y="620"/>
      <point x="653" y="641"/>
      <point x="647" y="647" type="curve"/>
      <point x="617" y="646"/>
      <point x="582" y="645"/>
      <point x="559" y="645" type="curve" smooth="yes"/>
      <point x="536" y="645"/>
      <point x="491" y="646"/>
      <point x="450" y="647" type="curve"/>
      <point x="444" y="641"/>
      <point x="444" y="620"/>
      <point x="450" y="614" type="curve"/>
      <point x="524" y="609"/>
      <point x="524" y="582"/>
      <point x="503" y="528" type="curve" smooth="yes"/>
      <point x="345" y="127" type="line"/>
      <point x="341" y="127" type="line"/>
      <point x="181" y="534" type="line" smooth="yes"/>
      <point x="158" y="594"/>
      <point x="164" y="607"/>
      <point x="232" y="614" type="curve"/>
      <point x="238" y="620"/>
      <point x="238" y="641"/>
      <point x="232" y="647" type="curve"/>
      <point x="192" y="646"/>
      <point x="147" y="645"/>
      <point x="111" y="645" type="curve" smooth="yes"/>
      <point x="75" y="645"/>
      <point x="40" y="646"/>
      <point x="7" y="647" type="curve"/>
      <point x="1" y="641"/>
      <point x="2" y="620"/>
      <point x="8" y="614" type="curve"/>
      <point x="63" y="609"/>
      <point x="71" y="592"/>
      <point x="98" y="523" type="curve" smooth="yes"/>
    </contour>
  </outline>
</glyph>
<glyph name="underscore" format="2">
  <advance width="486"/>
  <unicode hex="005F"/>
  <outline>
    <contour>
      <point x="196" y="-149" type="line"/>
      <point x="196" y="-110" type="line"/>
      <point x="23" y="-110" type="line" smooth="yes"/>
      <point x="14" y="-110"/>
      <point x="4" y="-125"/>
      <point x="4" y="-135" type="curve" smooth="yes"/>
      <point x="4" y="-141"/>
      <point x="7" y="-149"/>
      <point x="15" y="-149" type="curve" smooth="yes"/>
    </contour>
    <contour>
      <point x="356" y="-110" type="line"/>
      <point x="170" y="-110" type="line"/>
      <point x="170" y="-149" type="line"/>
      <point x="356" y="-149" type="line"/>
    </contour>
    <contour>
      <point x="329" y="-149" type="line"/>
      <point x="462" y="-149" type="line" smooth="yes"/>
      <point x="474" y="-149"/>
      <point x="483" y="-134"/>
      <point x="483" y="-123" type="curve" smooth="yes"/>
      <point x="483" y="-118"/>
      <point x="480" y="-110"/>
      <point x="471" y="-110" type="curve" smooth="yes"/>
      <point x="329" y="-110" type="line"/>
    </contour>
  </outline>
</glyph>
<glyph name="b" format="2">
  <advance width="493"/>
  <unicode hex="0062"/>
  <anchor x="247" y="740" name="t.uni0302"/>
  <anchor x="229" y="-60" name="b.minus-60"/>
  <outline>
    <contour>
      <point x="73" y="0" type="curve"/>
      <point x="78" y="-8"/>
      <point x="83" y="-12"/>
      <point x="95" y="-12" type="curve"/>
      <point x="110" y="0"/>
      <point x="123" y="13"/>
      <point x="134" y="27" type="curve"/>
      <point x="164" y="-3"/>
      <point x="193" y="-10"/>
      <point x="235" y="-10" type="curve" smooth="yes"/>
      <point x="337" y="-10"/>
      <point x="456" y="83"/>
      <point x="456" y="233.295" type="curve" smooth="yes"/>
      <point x="456" y="349.202"/>
      <point x="378.733" y="439"/>
      <point x="279" y="439" type="curve" smooth="yes"/>
      <point x="231.367" y="439"/>
      <point x="204.418" y="426.224"/>
      <point x="144" y="375" type="curve"/>
      <point x="144" y="336" type="line"/>
      <point x="195.757" y="383.875"/>
      <point x="217.441" y="395"/>
      <point x="259" y="395" type="curve" smooth="yes"/>
      <point x="320" y="395"/>
      <point x="370" y="321"/>
      <point x="370" y="224" type="curve" smooth="yes"/>
      <point x="370" y="110"/>
      <point x="324" y="24"/>
      <point x="229" y="24" type="curve" smooth="yes"/>
      <point x="198" y="24"/>
      <point x="177" y="46"/>
      <point x="157" y="71" type="curve"/>
      <point x="157" y="583" type="line" smooth="yes"/>
      <point x="157" y="648"/>
      <point x="161" y="684"/>
      <point x="161" y="688" type="curve" smooth="yes"/>
      <point x="161" y="695"/>
      <point x="157" y="698"/>
      <point x="148" y="698" type="curve"/>
      <point x="123" y="688"/>
      <point x="47" y="674"/>
      <point x="7" y="671" type="curve"/>
      <point x="5" y="663"/>
      <point x="7" y="647"/>
      <point x="13" y="641" type="curve"/>
      <point x="63" y="639"/>
      <point x="77" y="631"/>
      <point x="77" y="605" type="curve" smooth="yes"/>
      <point x="77" y="71" type="line" smooth="yes"/>
      <point x="77" y="32"/>
      <point x="76" y="14"/>
    </contour>
  </outline>
</glyph>
<glyph name="e" format="2">
  <advance width="451"/>
  <unicode hex="0065"/>
  <anchor x="246" y="500" name="t.uni0302"/>
  <anchor x="326" y="10" name="b.ogonek"/>
  <anchor x="255" y="-60" name="b.minus-60"/>
  <anchor x="243" y="0" name="b.cedilla"/>
  <outline>
    <contour>
      <point x="389" y="93" type="curve"/>
      <point x="349.151" y="52.074"/>
      <point x="319.13" y="39"/>
      <point x="265" y="39" type="curve" smooth="yes"/>
      <point x="177.494" y="39"/>
      <point x="124" y="118.292"/>
      <point x="124" y="248" type="curve"/>
      <point x="390" y="246" type="line" smooth="yes"/>
      <point x="402.147" y="245.909"/>
      <point x="409" y="252.132"/>
      <point x="409" y="263" type="curve" smooth="yes"/>
      <point x="409" y="366.166"/>
      <point x="343.697" y="437"/>
      <point x="248.587" y="437" type="curve" smooth="yes"/>
      <point x="127.135" y="437"/>
      <point x="40" y="335.187"/>
      <point x="40" y="197.898" type="curve" smooth="yes"/>
      <point x="40" y="70.07"/>
      <point x="115.538" y="-10"/>
      <point x="236.25" y="-10" type="curve" smooth="yes"/>
      <point x="308.805" y="-10"/>
      <point x="365.328" y="18.927"/>
      <point x="410" y="77" type="curve"/>
      <point x="406.917" y="87.278"/>
      <point x="400.684" y="92.026"/>
    </contour>
    <contour>
      <point x="127" y="282" type="line"/>
      <point x="139.162" y="354.329"/>
      <point x="185.168" y="404"/>
      <point x="241.928" y="404" type="curve" smooth="yes"/>
      <point x="292.2" y="404"/>
      <point x="323" y="365.036"/>
      <point x="323" y="299" type="curve" smooth="yes"/>
      <point x="323" y="289.367"/>
      <point x="318.32" y="285.171"/>
      <point x="308" y="285" type="curve" smooth="yes"/>
    </contour>
  </outline>
</glyph>
<glyph name="f" format="2">
  <advance width="310"/>
  <unicode hex="0066"/>
  <anchor x="233" y="740" name="t.uni0302"/>
  <anchor x="353" y="-60" name="b.minus-60"/>
  <outline>
    <contour>
      <point x="30" y="-2" type="curve"/>
      <point x="63" y="-1"/>
      <point x="107" y="0"/>
      <point x="147" y="0" type="curve"/>
      <point x="147" y="122" type="line"/>
      <point x="102" y="122" type="line"/>
      <point x="102" y="40"/>
      <point x="91" y="35"/>
      <point x="30" y="31" type="curve"/>
      <point x="24" y="25"/>
      <point x="24" y="4"/>
    </contour>
    <contour>
      <point x="137" y="0" type="line"/>
      <point x="177" y="0"/>
      <point x="221" y="-1"/>
      <point x="254" y="-2" type="curve"/>
      <point x="260" y="4"/>
      <point x="260" y="25"/>
      <point x="254" y="31" type="curve"/>
      <point x="193" y="35"/>
      <point x="182" y="40"/>
      <point x="182" y="122" type="curve"/>
      <point x="137" y="122" type="line"/>
    </contour>
    <contour>
      <point x="221" y="390" type="line"/>
      <point x="221" y="429" type="line"/>
      <point x="48" y="429" type="line" smooth="yes"/>
      <point x="39" y="429"/>
      <point x="29" y="414"/>
      <point x="29" y="404" type="curve" smooth="yes"/>
      <point x="29" y="398"/>
      <point x="32" y="390"/>
      <point x="40" y="390" type="curve" smooth="yes"/>
    </contour>
    <contour>
      <point x="102" y="110" type="line"/>
      <point x="182" y="110" type="line"/>
      <point x="182" y="486" type="line" smooth="yes"/>
      <point x="182" y="640"/>
      <point x="227" y="664"/>
      <point x="260" y="664" type="curve" smooth="yes"/>
      <point x="290" y="664"/>
      <point x="305.548" y="651.816"/>
      <point x="320" y="617" type="curve" smooth="yes"/>
      <point x="327.552" y="598.807"/>
      <point x="339" y="585"/>
      <point x="360" y="585" type="curve" smooth="yes"/>
      <point x="377" y="585"/>
      <point x="401" y="606"/>
      <point x="401" y="626" type="curve" smooth="yes"/>
      <point x="401" y="684"/>
      <point x="322" y="698"/>
      <point x="279" y="698" type="curve" smooth="yes"/>
      <point x="195" y="698"/>
      <point x="102" y="625"/>
      <point x="102" y="469" type="curve" smooth="yes"/>
    </contour>
    <contour>
      <point x="146" y="390" type="line"/>
      <point x="279" y="390" type="line" smooth="yes"/>
      <point x="291" y="390"/>
      <point x="300" y="405"/>
      <point x="300" y="416" type="curve" smooth="yes"/>
      <point x="300" y="421"/>
      <point x="297" y="429"/>
      <point x="288" y="429" type="curve" smooth="yes"/>
      <point x="146" y="429" type="line"/>
    </contour>
  </outline>
</glyph>
<glyph name="g" format="2">
  <advance width="470"/>
  <unicode hex="0067"/>
  <anchor x="232" y="500" name="t.uni0302"/>
  <outline>
    <contour>
      <point x="50" y="287" type="curve" smooth="yes"/>
      <point x="50" y="191"/>
      <point x="131" y="136"/>
      <point x="220" y="136" type="curve" smooth="yes"/>
      <point x="308" y="136"/>
      <point x="389" y="191"/>
      <point x="389" y="289" type="curve" smooth="yes"/>
      <point x="389" y="336"/>
      <point x="375" y="363"/>
      <point x="346" y="393" type="curve"/>
      <point x="353" y="403"/>
      <point x="373" y="417"/>
      <point x="386" y="417" type="curve" smooth="yes"/>
      <point x="393" y="417"/>
      <point x="400" y="414"/>
      <point x="406" y="405" type="curve"/>
      <point x="410" y="397"/>
      <point x="423" y="387"/>
      <point x="434" y="387" type="curve" smooth="yes"/>
      <point x="453" y="387"/>
      <point x="471" y="405"/>
      <point x="471" y="425" type="curve" smooth="yes"/>
      <point x="471" y="446"/>
      <point x="452" y="462"/>
      <point x="425" y="462" type="curve" smooth="yes"/>
      <point x="399" y="462"/>
      <point x="351" y="445"/>
      <point x="325" y="411" type="curve"/>
      <point x="313" y="419"/>
      <point x="280" y="439"/>
      <point x="221" y="439" type="curve" smooth="yes"/>
      <point x="132" y="439"/>
      <point x="50" y="379"/>
    </contour>
    <contour>
      <point x="22" y="-124" type="curve" smooth="yes"/>
      <point x="22" y="-211"/>
      <point x="104" y="-238"/>
      <point x="181" y="-238" type="curve" smooth="yes"/>
      <point x="316" y="-238"/>
      <point x="462" y="-173"/>
      <point x="462" y="-65" type="curve" smooth="yes"/>
      <point x="462" y="32"/>
      <point x="346" y="49"/>
      <point x="272" y="49" type="curve" smooth="yes"/>
      <point x="239" y="49"/>
      <point x="203" y="42"/>
      <point x="175" y="42" type="curve" smooth="yes"/>
      <point x="122" y="42"/>
      <point x="91" y="56"/>
      <point x="91" y="99" type="curve" smooth="yes"/>
      <point x="91" y="114"/>
      <point x="113" y="144"/>
      <point x="139" y="169" type="curve"/>
      <point x="114" y="183" type="line"/>
      <point x="70" y="148"/>
      <point x="38" y="103"/>
      <point x="38" y="74" type="curve" smooth="yes"/>
      <point x="38" y="13"/>
      <point x="106" y="-15"/>
      <point x="162" y="-15" type="curve" smooth="yes"/>
      <point x="193" y="-15"/>
      <point x="221" y="-12"/>
      <point x="235" y="-12" type="curve" smooth="yes"/>
      <point x="285" y="-12"/>
      <point x="407" y="-16"/>
      <point x="407" y="-91" type="curve" smooth="yes"/>
      <point x="407" y="-163"/>
      <point x="301" y="-201"/>
      <point x="211" y="-201" type="curve" smooth="yes"/>
      <point x="175" y="-201"/>
      <point x="91" y="-172"/>
      <point x="91" y="-104" type="curve" smooth="yes"/>
      <point x="91" y="-65"/>
      <point x="94" y="-38"/>
      <point x="137" y="6" type="curve"/>
      <point x="121" y="6" type="line"/>
      <point x="56" y="-26"/>
      <point x="22" y="-77"/>
    </contour>
    <contour>
      <point x="132" y="302" type="curve" smooth="yes"/>
      <point x="132" y="372"/>
      <point x="157" y="408"/>
      <point x="212" y="408" type="curve" smooth="yes"/>
      <point x="275" y="408"/>
      <point x="309" y="362"/>
      <point x="309" y="279" type="curve" smooth="yes"/>
      <point x="309" y="186"/>
      <point x="262" y="167"/>
      <point x="225" y="167" type="curve" smooth="yes"/>
      <point x="141" y="167"/>
      <point x="132" y="238"/>
    </contour>
  </outline>
</glyph>
<glyph name="h" format="2">
	<unicode hex="0068"/>
	<advance width="548"/>
	<outline>
		<contour>
			<point x="26" y="-2" type="curve"/>
			<point x="56" y="-1"/>
			<point x="96" y="0"/>
			<point x="136" y="0" type="curve" smooth="yes"/>
			<point x="176" y="0"/>
			<point x="207" y="-1"/>
			<point x="237" y="-2" type="curve"/>
			<point x="243" y="4"/>
			<point x="243" y="25"/>
			<point x="237" y="31" type="curve"/>
			<point x="186" y="36"/>
			<point x="176" y="40"/>
			<point x="176" y="122" type="curve"/>
			<point x="96" y="122" type="line"/>
			<point x="96" y="40"/>
			<point x="86" y="36"/>
			<point x="26" y="31" type="curve"/>
			<point x="20" y="25"/>
			<point x="20" y="4"/>
		</contour>
		<contour>
			<point x="323" y="-2" type="curve"/>
			<point x="353" y="-1"/>
			<point x="385" y="0"/>
			<point x="425" y="0" type="curve" smooth="yes"/>
			<point x="465" y="0"/>
			<point x="502" y="-1"/>
			<point x="532" y="-2" type="curve"/>
			<point x="537" y="4"/>
			<point x="537" y="25"/>
			<point x="532" y="31" type="curve"/>
			<point x="476" y="36"/>
			<point x="465" y="40"/>
			<point x="465" y="122" type="curve"/>
			<point x="385" y="122" type="line"/>
			<point x="385" y="40"/>
			<point x="375" y="36"/>
			<point x="323" y="31" type="curve"/>
			<point x="318" y="25"/>
			<point x="318" y="4"/>
		</contour>
		<contour>
			<point x="176" y="122" type="line"/>
			<point x="176" y="576" type="line"/>
			<point x="96" y="576" type="line"/>
			<point x="96" y="122" type="line"/>
		</contour>
		<contour>
			<point x="465" y="122" type="line"/>
			<point x="465" y="271" type="line" smooth="yes"/>
			<point x="465" y="391.203"/>
			<point x="433.42" y="439"/>
			<point x="354" y="439" type="curve" smooth="yes"/>
			<point x="301.235" y="439"/>
			<point x="236.298" y="403.302"/>
			<point x="163" y="334" type="curve"/>
			<point x="165" y="298" type="line"/>
			<point x="213.65" y="355.612"/>
			<point x="268.315" y="387"/>
			<point x="320" y="387" type="curve" smooth="yes"/>
			<point x="361.367" y="387"/>
			<point x="385" y="345.915"/>
			<point x="385" y="274" type="curve" smooth="yes"/>
			<point x="385" y="122" type="line"/>
		</contour>
		<contour>
			<point x="96.0385" y="576" type="curve"/>
			<point x="176.038" y="576" type="line"/>
			<point x="176.038" y="626"/>
			<point x="177.038" y="657"/>
			<point x="180.038" y="691" type="curve"/>
			<point x="180.038" y="695"/>
			<point x="175.038" y="698"/>
			<point x="167.038" y="698" type="curve"/>
			<point x="139.038" y="687"/>
			<point x="80.0385" y="673"/>
			<point x="29.0385" y="669" type="curve"/>
			<point x="27.0385" y="662"/>
			<point x="29.0385" y="647"/>
			<point x="31.0385" y="641" type="curve"/>
			<point x="87.6885" y="635.85"/>
			<point x="96.0385" y="627.5"/>
		</contour>
	</outline>
	<anchor name="m.uni0302" x="299" y="645"/>
	<anchor name="m.uni0316_2" x="272" y="-110"/>
	<anchor name="m.uni031A_3" x="429" y="580"/>
	<anchor name="b.uni0321_4" x="423" y="10"/>
	<guideline x="0" y="576" angle="0"/>
</glyph>
<glyph name="i" format="2">
  <advance width="271"/>
  <unicode hex="0069"/>
  <anchor x="137" y="795" name="m.uni0302"/>
  <anchor x="136" y="-110" name="m.uni0316_2"/>
  <anchor x="209" y="10" name="b.uni0321_4"/>
  <outline>
    <component base="dotlessi"/>
    <contour>
      <point x="90" y="597" type="curve" smooth="yes"/>
      <point x="90" y="569"/>
      <point x="112" y="547"/>
      <point x="140" y="547" type="curve" smooth="yes"/>
      <point x="168" y="547"/>
      <point x="190" y="569"/>
      <point x="190" y="597" type="curve" smooth="yes"/>
      <point x="190" y="625"/>
      <point x="168" y="647"/>
      <point x="140" y="647" type="curve" smooth="yes"/>
      <point x="112" y="647"/>
      <point x="90" y="625"/>
    </contour>
  </outline>
  <guideline angle="90" x="140" y="0"/>
  <guideline angle="0" x="0" y="597"/>
</glyph>
<glyph name="l" format="2">
  <advance width="264"/>
  <unicode hex="006C"/>
  <anchor x="124" y="740" name="t.uni0302"/>
  <anchor x="142" y="-60" name="b.minus-60"/>
  <outline>
    <contour>
      <point x="30" y="-2" type="curve"/>
      <point x="63" y="-1"/>
      <point x="102" y="0"/>
      <point x="142" y="0" type="curve" smooth="yes"/>
      <point x="182" y="0"/>
      <point x="221" y="-1"/>
      <point x="254" y="-2" type="curve"/>
      <point x="260" y="4"/>
      <point x="260" y="25"/>
      <point x="254" y="31" type="curve"/>
      <point x="193" y="35"/>
      <point x="182" y="40"/>
      <point x="182" y="122" type="curve"/>
      <point x="102" y="122" type="line"/>
      <point x="102" y="40"/>
      <point x="91" y="35"/>
      <point x="30" y="31" type="curve"/>
      <point x="24" y="25"/>
      <point x="24" y="4"/>
    </contour>
    <contour>
      <point x="102" y="122" type="line"/>
      <point x="182" y="122" type="line"/>
      <point x="182" y="576" type="line"/>
      <point x="102" y="576" type="line"/>
    </contour>
    <contour>
      <point x="102" y="576" type="curve"/>
      <point x="182" y="576" type="line"/>
      <point x="182" y="626"/>
      <point x="183" y="657"/>
      <point x="186" y="691" type="curve"/>
      <point x="186" y="695"/>
      <point x="181" y="698"/>
      <point x="173" y="698" type="curve"/>
      <point x="145" y="687"/>
      <point x="86" y="673"/>
      <point x="35" y="669" type="curve"/>
      <point x="33" y="662"/>
      <point x="35" y="647"/>
      <point x="37" y="641" type="curve"/>
      <point x="93.65" y="635.85"/>
      <point x="102" y="627.5"/>
    </contour>
  </outline>
  <guideline angle="90" x="142" y="0"/>
</glyph>
<glyph name="m" format="2">
  <advance width="790"/>
  <unicode hex="006D"/>
  <anchor x="404" y="500" name="t.uni0302"/>
  <anchor x="407" y="-60" name="b.minus-60"/>
  <outline>
    <contour>
      <point x="26" y="-2" type="curve"/>
      <point x="56" y="-1"/>
      <point x="96" y="0"/>
      <point x="136" y="0" type="curve" smooth="yes"/>
      <point x="176" y="0"/>
      <point x="207" y="-1"/>
      <point x="237" y="-2" type="curve"/>
      <point x="243" y="4"/>
      <point x="243" y="25"/>
      <point x="237" y="31" type="curve"/>
      <point x="186" y="36"/>
      <point x="176" y="40"/>
      <point x="176" y="122" type="curve"/>
      <point x="96" y="122" type="line"/>
      <point x="96" y="40"/>
      <point x="86" y="36"/>
      <point x="26" y="31" type="curve"/>
      <point x="20" y="25"/>
      <point x="20" y="4"/>
    </contour>
    <contour>
      <point x="305" y="-2" type="curve"/>
      <point x="338" y="-1"/>
      <point x="366" y="0"/>
      <point x="406" y="0" type="curve" smooth="yes"/>
      <point x="446" y="0"/>
      <point x="474" y="-1"/>
      <point x="507" y="-2" type="curve"/>
      <point x="513" y="4"/>
      <point x="513" y="25"/>
      <point x="507" y="31" type="curve"/>
      <point x="456" y="35"/>
      <point x="446" y="40"/>
      <point x="446" y="122" type="curve"/>
      <point x="366" y="122" type="line"/>
      <point x="366" y="40"/>
      <point x="356" y="35"/>
      <point x="305" y="31" type="curve"/>
      <point x="299" y="25"/>
      <point x="299" y="4"/>
    </contour>
    <contour>
      <point x="574" y="-2" type="curve"/>
      <point x="604" y="-1"/>
      <point x="636" y="0"/>
      <point x="676" y="0" type="curve" smooth="yes"/>
      <point x="716" y="0"/>
      <point x="753" y="-1"/>
      <point x="783" y="-2" type="curve"/>
      <point x="788" y="4"/>
      <point x="788" y="25"/>
      <point x="783" y="31" type="curve"/>
      <point x="727" y="36"/>
      <point x="716" y="40"/>
      <point x="716" y="122" type="curve"/>
      <point x="636" y="122" type="line"/>
      <point x="636" y="40"/>
      <point x="626" y="36"/>
      <point x="574" y="31" type="curve"/>
      <point x="569" y="25"/>
      <point x="569" y="4"/>
    </contour>
    <contour>
      <point x="96" y="316" type="curve"/>
      <point x="176" y="336" type="line"/>
      <point x="176" y="369.727"/>
      <point x="170" y="422"/>
      <point x="164" y="434" type="curve" smooth="yes"/>
      <point x="161.51" y="438.981"/>
      <point x="157.827" y="442"/>
      <point x="152" y="442" type="curve"/>
      <point x="114.865" y="427.411"/>
      <point x="84.378" y="420.223"/>
      <point x="29" y="413" type="curve"/>
      <point x="27.353" y="408.059"/>
      <point x="28.455" y="392.636"/>
      <point x="31" y="385" type="curve"/>
      <point x="88.412" y="379.684"/>
      <point x="96" y="370.746"/>
    </contour>
    <contour>
      <point x="636" y="122" type="line"/>
      <point x="716" y="122" type="line"/>
      <point x="716" y="281" type="line" smooth="yes"/>
      <point x="716" y="370"/>
      <point x="700" y="440"/>
      <point x="612" y="440" type="curve" smooth="yes"/>
      <point x="557" y="440"/>
      <point x="479" y="408"/>
      <point x="427" y="344" type="curve"/>
      <point x="430" y="305" type="line"/>
      <point x="483" y="372"/>
      <point x="533" y="388"/>
      <point x="576" y="388" type="curve" smooth="yes"/>
      <point x="614" y="388"/>
      <point x="636" y="366"/>
      <point x="636" y="299" type="curve" smooth="yes"/>
    </contour>
    <contour>
      <point x="366" y="122" type="line"/>
      <point x="446" y="122" type="line"/>
      <point x="446" y="282" type="line" smooth="yes"/>
      <point x="446" y="358"/>
      <point x="431" y="440"/>
      <point x="336" y="440" type="curve" smooth="yes"/>
      <point x="273" y="440"/>
      <point x="204" y="388"/>
      <point x="163" y="337" type="curve"/>
      <point x="168" y="304" type="line"/>
      <point x="201" y="343"/>
      <point x="248" y="388"/>
      <point x="300" y="388" type="curve" smooth="yes"/>
      <point x="338" y="388"/>
      <point x="366" y="364"/>
      <point x="366" y="297" type="curve" smooth="yes"/>
    </contour>
    <contour>
      <point x="96" y="122" type="line"/>
      <point x="176" y="122" type="line"/>
      <point x="176" y="336" type="line"/>
      <point x="96" y="316" type="line"/>
    </contour>
  </outline>
</glyph>
<glyph name="n" format="2">
  <advance width="542"/>
  <unicode hex="006E"/>
  <anchor x="254" y="500" name="t.uni0302"/>
  <anchor x="265" y="-110" name="m.uni0316_2"/>
  <outline>
    <contour>
      <point x="26" y="-2" type="curve"/>
      <point x="56" y="-1"/>
      <point x="96" y="0"/>
      <point x="136" y="0" type="curve" smooth="yes"/>
      <point x="176" y="0"/>
      <point x="207" y="-1"/>
      <point x="237" y="-2" type="curve"/>
      <point x="243" y="4"/>
      <point x="243" y="25"/>
      <point x="237" y="31" type="curve"/>
      <point x="186" y="36"/>
      <point x="176" y="40"/>
      <point x="176" y="122" type="curve"/>
      <point x="96" y="122" type="line"/>
      <point x="96" y="40"/>
      <point x="86" y="36"/>
      <point x="26" y="31" type="curve"/>
      <point x="20" y="25"/>
      <point x="20" y="4"/>
    </contour>
    <contour>
      <point x="317" y="-2" type="curve"/>
      <point x="347" y="-1"/>
      <point x="379" y="0"/>
      <point x="419" y="0" type="curve" smooth="yes"/>
      <point x="459" y="0"/>
      <point x="496" y="-1"/>
      <point x="526" y="-2" type="curve"/>
      <point x="531" y="4"/>
      <point x="531" y="25"/>
      <point x="526" y="31" type="curve"/>
      <point x="470" y="36"/>
      <point x="459" y="40"/>
      <point x="459" y="122" type="curve"/>
      <point x="379" y="122" type="line"/>
      <point x="379" y="40"/>
      <point x="369" y="36"/>
      <point x="317" y="31" type="curve"/>
      <point x="312" y="25"/>
      <point x="312" y="4"/>
    </contour>
    <contour>
      <point x="96" y="122" type="line"/>
      <point x="176" y="122" type="line"/>
      <point x="176" y="311" type="line"/>
      <point x="232.831" y="362.919"/>
      <point x="270.908" y="387"/>
      <point x="307.531" y="387" type="curve" smooth="yes"/>
      <point x="355.367" y="387"/>
      <point x="379" y="345.915"/>
      <point x="379" y="274" type="curve" smooth="yes"/>
      <point x="379" y="122" type="line"/>
      <point x="459" y="122" type="line"/>
      <point x="459" y="271" type="line" smooth="yes"/>
      <point x="459" y="390.446"/>
      <point x="426.92" y="439"/>
      <point x="348" y="439" type="curve" smooth="yes"/>
      <point x="292.262" y="439"/>
      <point x="226.772" y="392.636"/>
      <point x="164" y="336" type="curve"/>
      <point x="174" y="336" type="line"/>
      <point x="164" y="434" type="line" smooth="yes"/>
      <point x="163.435" y="439.54"/>
      <point x="159.745" y="442"/>
      <point x="152" y="442" type="curve"/>
      <point x="114.865" y="427.411"/>
      <point x="84.3775" y="420.223"/>
      <point x="29" y="413" type="curve"/>
      <point x="27.3529" y="408.059"/>
      <point x="28.4545" y="392.636"/>
      <point x="31" y="385" type="curve"/>
      <point x="88.4123" y="379.684"/>
      <point x="96" y="371.746"/>
      <point x="96" y="317" type="curve" smooth="yes"/>
    </contour>
  </outline>
  <guideline angle="90" x="136" y="0"/>
  <guideline angle="90" x="419" y="0"/>
</glyph>
<glyph name="o" format="2">
  <advance width="502"/>
  <unicode hex="006F"/>
  <anchor x="237" y="500" name="t.uni0302"/>
  <anchor x="338" y="10" name="b.ogonek"/>
  <anchor x="250" y="-60" name="b.minus-60"/>
  <outline>
    <contour>
      <point x="250" y="-10" type="curve" smooth="yes"/>
      <point x="380" y="-10"/>
      <point x="462" y="87"/>
      <point x="462" y="212.972" type="curve" smooth="yes"/>
      <point x="462" y="318"/>
      <point x="405" y="439"/>
      <point x="257.09" y="439" type="curve" smooth="yes"/>
      <point x="118" y="439"/>
      <point x="40" y="332"/>
      <point x="40" y="213.574" type="curve" smooth="yes"/>
      <point x="40" y="103"/>
      <point x="108" y="-10"/>
    </contour>
    <contour>
      <point x="260.935" y="25" type="curve" smooth="yes"/>
      <point x="160" y="25"/>
      <point x="126" y="151"/>
      <point x="126" y="231.099" type="curve" smooth="yes"/>
      <point x="126" y="315"/>
      <point x="163.305" y="404"/>
      <point x="245.785" y="404" type="curve" smooth="yes"/>
      <point x="323" y="404"/>
      <point x="376" y="326"/>
      <point x="376" y="182" type="curve" smooth="yes"/>
      <point x="376" y="56"/>
      <point x="311" y="25"/>
    </contour>
  </outline>
</glyph>
<glyph name="p" format="2">
	<unicode hex="0070"/>
	<advance width="519"/>
	<outline>
		<contour>
			<point x="102" y="-110" type="line"/>
			<point x="182" y="-110" type="line"/>
			<point x="182" y="311" type="line" smooth="yes"/>
			<point x="182" y="365"/>
			<point x="174.932" y="410.985"/>
			<point x="170" y="434" type="curve" smooth="yes"/>
			<point x="168.932" y="438.986"/>
			<point x="166" y="442"/>
			<point x="158" y="442" type="curve"/>
			<point x="130" y="431"/>
			<point x="104" y="422"/>
			<point x="35" y="413" type="curve"/>
			<point x="33" y="407"/>
			<point x="35" y="391"/>
			<point x="37" y="385" type="curve"/>
			<point x="91" y="380"/>
			<point x="102" y="375"/>
			<point x="102" y="317" type="curve" smooth="yes"/>
		</contour>
		<contour>
			<point x="166" y="16" type="line"/>
			<point x="190" y="3"/>
			<point x="249" y="-10"/>
			<point x="282" y="-10" type="curve" smooth="yes"/>
			<point x="422" y="-10"/>
			<point x="503" y="102"/>
			<point x="503" y="235" type="curve" smooth="yes"/>
			<point x="503" y="341"/>
			<point x="428" y="439"/>
			<point x="326" y="439" type="curve" smooth="yes"/>
			<point x="280" y="439"/>
			<point x="223" y="402"/>
			<point x="183" y="357" type="curve"/>
			<point x="174" y="357" type="line"/>
			<point x="174" y="302" type="line"/>
			<point x="198" y="332"/>
			<point x="248" y="393"/>
			<point x="298" y="393" type="curve" smooth="yes"/>
			<point x="362" y="393"/>
			<point x="417" y="321"/>
			<point x="417" y="208" type="curve" smooth="yes"/>
			<point x="417" y="126"/>
			<point x="388" y="24"/>
			<point x="276" y="24" type="curve" smooth="yes"/>
			<point x="239" y="24"/>
			<point x="207" y="40"/>
			<point x="166" y="74" type="curve"/>
		</contour>
		<contour>
			<point x="30" y="-234" type="curve"/>
			<point x="63" y="-233"/>
			<point x="102" y="-232"/>
			<point x="142" y="-232" type="curve" smooth="yes"/>
			<point x="182" y="-232"/>
			<point x="221" y="-233"/>
			<point x="254" y="-234" type="curve"/>
			<point x="260" y="-228"/>
			<point x="260" y="-207"/>
			<point x="254" y="-201" type="curve"/>
			<point x="193" y="-197"/>
			<point x="182" y="-192"/>
			<point x="182" y="-110" type="curve"/>
			<point x="102" y="-110" type="line"/>
			<point x="102" y="-192"/>
			<point x="91" y="-197"/>
			<point x="30" y="-201" type="curve"/>
			<point x="24" y="-207"/>
			<point x="24" y="-228"/>
		</contour>
	</outline>
	<anchor name="m.uni0302" x="271" y="646"/>
	<anchor name="m.uni0316_2" x="179" y="-319"/>
	<anchor name="m.uni031A_3" x="429" y="580"/>
	<anchor name="t.uni0302" x="244" y="500"/>
</glyph>
<glyph name="q" format="2">
  <advance width="503"/>
  <unicode hex="0071"/>
  <anchor x="238" y="500" name="t.uni0302"/>
  <anchor x="353" y="-60" name="b.minus-60"/>
  <outline>
    <contour>
      <point x="35" y="207" type="curve" smooth="yes"/>
      <point x="35" y="114"/>
      <point x="98" y="-10"/>
      <point x="242" y="-10" type="curve" smooth="yes"/>
      <point x="283" y="-10"/>
      <point x="300" y="-5"/>
      <point x="344" y="19" type="curve"/>
      <point x="364.79" y="19" type="line"/>
      <point x="364.79" y="63.085" type="line"/>
      <point x="334.097" y="41.785"/>
      <point x="307.653" y="34"/>
      <point x="266" y="34" type="curve" smooth="yes"/>
      <point x="208" y="34"/>
      <point x="121" y="76"/>
      <point x="121" y="227" type="curve" smooth="yes"/>
      <point x="121" y="331"/>
      <point x="163" y="405"/>
      <point x="243" y="405" type="curve" smooth="yes"/>
      <point x="284" y="405"/>
      <point x="308" y="391"/>
      <point x="346" y="342" type="curve"/>
      <point x="346" y="-110" type="line"/>
      <point x="426" y="-110" type="line"/>
      <point x="426" y="333" type="line" smooth="yes"/>
      <point x="426" y="361"/>
      <point x="426" y="389"/>
      <point x="430" y="417" type="curve"/>
      <point x="430" y="431"/>
      <point x="421" y="442"/>
      <point x="410" y="442" type="curve" smooth="yes"/>
      <point x="400" y="442"/>
      <point x="383" y="420"/>
      <point x="373" y="403" type="curve"/>
      <point x="328" y="427"/>
      <point x="299" y="439"/>
      <point x="247" y="439" type="curve" smooth="yes"/>
      <point x="125" y="439"/>
      <point x="35" y="339"/>
    </contour>
    <contour>
      <point x="274" y="-234" type="curve"/>
      <point x="307" y="-233"/>
      <point x="346" y="-232"/>
      <point x="386" y="-232" type="curve" smooth="yes"/>
      <point x="426" y="-232"/>
      <point x="465" y="-233"/>
      <point x="498" y="-234" type="curve"/>
      <point x="504" y="-228"/>
      <point x="504" y="-207"/>
      <point x="498" y="-201" type="curve"/>
      <point x="437" y="-197"/>
      <point x="426" y="-192"/>
      <point x="426" y="-110" type="curve"/>
      <point x="346" y="-110" type="line"/>
      <point x="346" y="-192"/>
      <point x="335" y="-197"/>
      <point x="274" y="-201" type="curve"/>
      <point x="268" y="-207"/>
      <point x="268" y="-228"/>
    </contour>
  </outline>
</glyph>
<glyph name="r" format="2">
  <advance width="376"/>
  <unicode hex="0072"/>
  <anchor x="242" y="500" name="t.uni0302"/>
  <anchor x="147" y="-60" name="b.minus-60"/>
  <outline>
    <contour>
      <point x="104" y="120" type="line"/>
      <point x="104" y="37"/>
      <point x="92" y="35"/>
      <point x="30" y="31" type="curve"/>
      <point x="24" y="25"/>
      <point x="24" y="4"/>
      <point x="30" y="-2" type="curve"/>
      <point x="65" y="-1"/>
      <point x="104" y="0"/>
      <point x="144" y="0" type="curve" smooth="yes"/>
      <point x="184" y="0"/>
      <point x="230" y="-1"/>
      <point x="265" y="-2" type="curve"/>
      <point x="271" y="4"/>
      <point x="271" y="25"/>
      <point x="265" y="31" type="curve"/>
      <point x="195" y="36"/>
      <point x="183" y="37"/>
      <point x="183" y="120" type="curve"/>
    </contour>
    <contour>
      <point x="183" y="120" type="line"/>
      <point x="183" y="261" type="line" smooth="yes"/>
      <point x="183" y="309"/>
      <point x="227" y="377"/>
      <point x="253" y="377" type="curve" smooth="yes"/>
      <point x="262" y="377"/>
      <point x="271" y="375"/>
      <point x="279" y="364" type="curve" smooth="yes"/>
      <point x="286" y="354"/>
      <point x="298" y="341"/>
      <point x="315" y="341" type="curve" smooth="yes"/>
      <point x="339" y="341"/>
      <point x="362" y="366"/>
      <point x="362" y="391" type="curve" smooth="yes"/>
      <point x="362" y="410"/>
      <point x="344" y="439"/>
      <point x="302" y="439" type="curve" smooth="yes"/>
      <point x="255" y="439"/>
      <point x="214" y="395"/>
      <point x="191" y="356" type="curve"/>
      <point x="185" y="345"/>
      <point x="180" y="353"/>
      <point x="180" y="358" type="curve"/>
      <point x="178" y="398"/>
      <point x="177" y="424"/>
      <point x="172" y="434" type="curve"/>
      <point x="170" y="439"/>
      <point x="168" y="442"/>
      <point x="160" y="442" type="curve"/>
      <point x="132" y="431"/>
      <point x="106" y="422"/>
      <point x="37" y="413" type="curve"/>
      <point x="35" y="407"/>
      <point x="37" y="391"/>
      <point x="39" y="385" type="curve"/>
      <point x="93" y="380"/>
      <point x="104" y="375"/>
      <point x="104" y="317" type="curve" smooth="yes"/>
      <point x="104" y="120" type="line"/>
    </contour>
  </outline>
</glyph>
<glyph name="s" format="2">
  <advance width="390"/>
  <unicode hex="0073"/>
  <anchor x="194" y="500" name="t.uni0302"/>
  <anchor x="196" y="-110" name="m.uni0316_2"/>
  <anchor x="366" y="580" name="m.uni031A_3"/>
  <anchor x="290" y="13" name="b.uni0321_4"/>
  <outline>
    <contour>
      <point x="48" y="138" type="curve"/>
      <point x="52" y="91"/>
      <point x="55" y="44"/>
      <point x="55" y="1" type="curve"/>
      <point x="65" y="3"/>
      <point x="75" y="4"/>
      <point x="80" y="4" type="curve" smooth="yes"/>
      <point x="87" y="4"/>
      <point x="93" y="4"/>
      <point x="107" y="0" type="curve" smooth="yes"/>
      <point x="127" y="-6"/>
      <point x="154" y="-10"/>
      <point x="191" y="-10" type="curve" smooth="yes"/>
      <point x="247" y="-10"/>
      <point x="350" y="19"/>
      <point x="350" y="117" type="curve" smooth="yes"/>
      <point x="350" y="184"/>
      <point x="301" y="224"/>
      <point x="233" y="249" type="curve" smooth="yes"/>
      <point x="173" y="272"/>
      <point x="133" y="287" name=".hr01"/>
      <point x="133" y="335" type="curve" smooth="yes"/>
      <point x="133" y="381"/>
      <point x="169" y="404"/>
      <point x="204" y="404" type="curve" smooth="yes"/>
      <point x="225" y="404"/>
      <point x="283" y="396"/>
      <point x="296" y="311" type="curve"/>
      <point x="302" y="307"/>
      <point x="322" y="308"/>
      <point x="328" y="312" type="curve"/>
      <point x="331" y="348"/>
      <point x="333" y="385"/>
      <point x="334" y="419" type="curve"/>
      <point x="303" y="424"/>
      <point x="255" y="439"/>
      <point x="211" y="439" type="curve" smooth="yes"/>
      <point x="129" y="439"/>
      <point x="62" y="389"/>
      <point x="62" y="325" type="curve" smooth="yes"/>
      <point x="62" y="254"/>
      <point x="95" y="223"/>
      <point x="181" y="188" type="curve" smooth="yes"/>
      <point x="255" y="157"/>
      <point x="274" y="136"/>
      <point x="274" y="102" type="curve" smooth="yes"/>
      <point x="274" y="46"/>
      <point x="226" y="25"/>
      <point x="183" y="25" type="curve" smooth="yes"/>
      <point x="109" y="25"/>
      <point x="95" y="78"/>
      <point x="79" y="139" type="curve" name=".hr02"/>
      <point x="73" y="145"/>
      <point x="54" y="144"/>
    </contour>
  </outline>
</glyph>
<glyph name="u" format="2">
  <advance width="531"/>
  <unicode hex="0075"/>
  <anchor x="239" y="500" name="t.uni0302"/>
  <anchor x="239" y="-110" name="m.uni0316_2"/>
  <anchor x="293" y="7" name="b.uni0321_4"/>
  <outline>
    <contour>
      <point x="217" y="-10" type="curve" smooth="yes"/>
      <point x="259" y="-10"/>
      <point x="328" y="30" name=".hr01"/>
      <point x="379" y="75" type="curve"/>
      <point x="375" y="109" type="line"/>
      <point x="339" y="73"/>
      <point x="275" y="37" name=".hr02"/>
      <point x="247" y="37" type="curve" smooth="yes"/>
      <point x="217" y="37"/>
      <point x="167" y="51"/>
      <point x="167" y="140" type="curve" smooth="yes"/>
      <point x="167" y="322" type="line" smooth="yes"/>
      <point x="167" y="352"/>
      <point x="171" y="425"/>
      <point x="171" y="425" type="curve"/>
      <point x="171" y="428"/>
      <point x="168" y="431"/>
      <point x="163" y="431" type="curve"/>
      <point x="158" y="430"/>
      <point x="143" y="429"/>
      <point x="128" y="429" type="curve" smooth="yes"/>
      <point x="96" y="429"/>
      <point x="60" y="430"/>
      <point x="26" y="431" type="curve"/>
      <point x="20" y="425"/>
      <point x="20" y="404"/>
      <point x="26" y="398" type="curve"/>
      <point x="74" y="394"/>
      <point x="88" y="383"/>
      <point x="88" y="318" type="curve" smooth="yes"/>
      <point x="88" y="126" type="line" smooth="yes"/>
      <point x="88" y="57" name=".hr03"/>
      <point x="118" y="-10" name=".hr04"/>
    </contour>
    <contour>
      <point x="375" y="0" type="curve"/>
      <point x="376" y="-7"/>
      <point x="386" y="-10"/>
      <point x="397" y="-10" type="curve"/>
      <point x="419" y="8"/>
      <point x="454" y="23"/>
      <point x="515" y="30" type="curve"/>
      <point x="521" y="36" name=".hr05"/>
      <point x="521" y="51"/>
      <point x="515" y="57" type="curve"/>
      <point x="451" y="62"/>
      <point x="442" y="81"/>
      <point x="442" y="130" type="curve" smooth="yes"/>
      <point x="442" y="322" type="line" smooth="yes"/>
      <point x="442" y="352"/>
      <point x="446" y="425"/>
      <point x="446" y="425" type="curve"/>
      <point x="446" y="428"/>
      <point x="443" y="431"/>
      <point x="438" y="431" type="curve"/>
      <point x="433" y="430"/>
      <point x="418" y="429"/>
      <point x="403" y="429" type="curve" smooth="yes"/>
      <point x="371" y="429"/>
      <point x="335" y="430"/>
      <point x="301" y="431" type="curve"/>
      <point x="295" y="425"/>
      <point x="295" y="404"/>
      <point x="301" y="398" type="curve"/>
      <point x="350" y="395"/>
      <point x="363" y="383"/>
      <point x="363" y="317" type="curve" smooth="yes"/>
      <point x="363" y="124" type="line" smooth="yes"/>
      <point x="363" y="78"/>
      <point x="366" y="44"/>
    </contour>
  </outline>
</glyph>
<glyph name="z" format="2">
  <advance width="424"/>
  <unicode hex="007A"/>
  <anchor x="238" y="500" name="t.uni0302"/>
  <anchor x="211" y="-60" name="b.minus-60"/>
  <outline>
    <contour>
      <point x="71" y="439" type="curve"/>
      <point x="69" y="439"/>
      <point x="65" y="435"/>
      <point x="65" y="433" type="curve"/>
      <point x="64" y="388"/>
      <point x="59" y="353"/>
      <point x="50" y="304" type="curve"/>
      <point x="59" y="300"/>
      <point x="71" y="298"/>
      <point x="83" y="301" type="curve"/>
      <point x="103" y="374"/>
      <point x="134" y="391"/>
      <point x="164" y="392" type="curve" smooth="yes"/>
      <point x="291" y="396" type="line"/>
      <point x="293" y="394" type="line"/>
      <point x="46" y="32" type="line" smooth="yes"/>
      <point x="37.871" y="20.087"/>
      <point x="37" y="17"/>
      <point x="37" y="12" type="curve" smooth="yes"/>
      <point x="37" y="5"/>
      <point x="45.002" y="0.217"/>
      <point x="60" y="0" type="curve" smooth="yes"/>
      <point x="129" y="-1" type="line"/>
      <point x="129" y="35" type="line"/>
      <point x="379" y="404" type="line" smooth="yes"/>
      <point x="385" y="413"/>
      <point x="387" y="420"/>
      <point x="387" y="424" type="curve" smooth="yes"/>
      <point x="387" y="428"/>
      <point x="382" y="431"/>
      <point x="375" y="431" type="curve" smooth="yes"/>
      <point x="370" y="431"/>
      <point x="342" y="429"/>
      <point x="313" y="429" type="curve" smooth="yes"/>
      <point x="130" y="429" type="line" smooth="yes"/>
      <point x="98" y="429"/>
      <point x="86" y="434"/>
    </contour>
    <contour>
      <point x="129" y="32" type="line"/>
      <point x="129" y="-1" type="line"/>
      <point x="372" y="-3" type="line"/>
      <point x="384" y="31"/>
      <point x="397" y="83"/>
      <point x="404" y="133" type="curve"/>
      <point x="398" y="137"/>
      <point x="386" y="139"/>
      <point x="374" y="139" type="curve"/>
      <point x="360" y="110" type="line" smooth="yes"/>
      <point x="335" y="57"/>
      <point x="314.004" y="34.782"/>
      <point x="262" y="34" type="curve" smooth="yes"/>
    </contour>
  </outline>
</glyph>
<glyph name="bar" format="2">
  <advance width="204"/>
  <unicode hex="007C"/>
  <outline>
    <contour>
      <point x="124" y="-240.347" type="curve"/>
      <point x="124" y="720.308" type="line"/>
      <point x="115.48" y="725.961"/>
      <point x="88.52" y="725.961"/>
      <point x="80" y="720.308" type="curve"/>
      <point x="80" y="-240.347" type="line"/>
      <point x="88.52" y="-246"/>
      <point x="115.48" y="-246"/>
    </contour>
  </outline>
  <guideline angle="0" x="0" y="720"/>
  <guideline angle="0" x="0" y="-240"/>
</glyph>
<glyph name="braceright" format="2">
  <advance width="277"/>
  <unicode hex="007D"/>
  <outline>
    <contour>
      <point x="95" y="-58" type="line" smooth="yes"/>
      <point x="99.964" y="-161.002"/>
      <point x="53" y="-178"/>
      <point x="15" y="-189" type="curve"/>
      <point x="9" y="-195"/>
      <point x="9" y="-207"/>
      <point x="15" y="-213" type="curve"/>
      <point x="105" y="-213"/>
      <point x="170.685" y="-173.011"/>
      <point x="167" y="-60" type="curve" smooth="yes"/>
      <point x="161" y="124" type="line"/>
      <point x="161" y="174"/>
      <point x="185" y="228"/>
      <point x="259" y="235" type="curve"/>
      <point x="268" y="244"/>
      <point x="267" y="251"/>
      <point x="259" y="259" type="curve"/>
      <point x="186" y="268"/>
      <point x="158.847" y="312.005"/>
      <point x="161" y="373" type="curve" smooth="yes"/>
      <point x="167" y="543" type="line" smooth="yes"/>
      <point x="171.589" y="673.015"/>
      <point x="116" y="706"/>
      <point x="15" y="706" type="curve"/>
      <point x="9" y="700"/>
      <point x="9" y="688"/>
      <point x="15" y="682" type="curve"/>
      <point x="59" y="682"/>
      <point x="99.512" y="632.028"/>
      <point x="95" y="548" type="curve" smooth="yes"/>
      <point x="87" y="399" type="line" smooth="yes"/>
      <point x="82.598" y="317.021"/>
      <point x="124" y="277"/>
      <point x="192" y="249" type="curve"/>
      <point x="192" y="245" type="line"/>
      <point x="125" y="226"/>
      <point x="82.711" y="196.987"/>
      <point x="87" y="108" type="curve" smooth="yes"/>
    </contour>
  </outline>
</glyph>
<glyph name="asciitilde" format="2">
  <advance width="451"/>
  <unicode hex="007E"/>
  <outline>
    <contour>
      <point x="152" y="278" type="curve" smooth="yes"/>
      <point x="208.603" y="278"/>
      <point x="246.085" y="213"/>
      <point x="301" y="213" type="curve" smooth="yes"/>
      <point x="325" y="213"/>
      <point x="390" y="226"/>
      <point x="421" y="333" type="curve"/>
      <point x="418.151" y="338.699"/>
      <point x="409.341" y="339"/>
      <point x="404" y="339" type="curve"/>
      <point x="382" y="289"/>
      <point x="333" y="272"/>
      <point x="305" y="272" type="curve" smooth="yes"/>
      <point x="252.121" y="272"/>
      <point x="214.922" y="337"/>
      <point x="158" y="337" type="curve" smooth="yes"/>
      <point x="93.025" y="337"/>
      <point x="41.792" y="267.961"/>
      <point x="30" y="209" type="curve"/>
      <point x="36" y="206"/>
      <point x="41" y="205"/>
      <point x="47" y="205" type="curve"/>
      <point x="70" y="249"/>
      <point x="117" y="278"/>
    </contour>
  </outline>
</glyph>
<glyph name="exclamdown" format="2">
  <advance width="288"/>
  <unicode hex="00A1"/>
  <outline>
    <contour>
      <point x="144" y="-229" type="curve" smooth="yes"/>
      <point x="168" y="-229"/>
      <point x="197" y="-210"/>
      <point x="197" y="-156" type="curve" smooth="yes"/>
      <point x="197" y="-86"/>
      <point x="183" y="-51"/>
      <point x="174" y="37" type="curve" smooth="yes"/>
      <point x="166" y="115"/>
      <point x="160" y="205"/>
      <point x="158" y="226" type="curve"/>
      <point x="157" y="232"/>
      <point x="154" y="239"/>
      <point x="144" y="239" type="curve" smooth="yes"/>
      <point x="134" y="239"/>
      <point x="131" y="230"/>
      <point x="130" y="219" type="curve"/>
      <point x="128" y="205"/>
      <point x="128" y="145"/>
      <point x="115" y="37" type="curve" smooth="yes"/>
      <point x="105" y="-49"/>
      <point x="91" y="-91"/>
      <point x="91" y="-156" type="curve" smooth="yes"/>
      <point x="91" y="-210"/>
      <point x="120" y="-229"/>
    </contour>
    <contour>
      <point x="197" y="386" type="curve" smooth="yes"/>
      <point x="197" y="415"/>
      <point x="173" y="439"/>
      <point x="144" y="439" type="curve" smooth="yes"/>
      <point x="115" y="439"/>
      <point x="91" y="415"/>
      <point x="91" y="386" type="curve" smooth="yes"/>
      <point x="91" y="357"/>
      <point x="115" y="333"/>
      <point x="144" y="333" type="curve" smooth="yes"/>
      <point x="173" y="333"/>
      <point x="197" y="357"/>
    </contour>
  </outline>
</glyph>
<glyph name="cent" format="2">
  <advance width="465"/>
  <unicode hex="00A2"/>
  <outline>
    <contour>
      <point x="232" y="611" type="line"/>
      <point x="232" y="511" type="line"/>
      <point x="148" y="495"/>
      <point x="69" y="415"/>
      <point x="69" y="295" type="curve" smooth="yes"/>
      <point x="69" y="190.06"/>
      <point x="119.852" y="102.04"/>
      <point x="232" y="89" type="curve"/>
      <point x="232" y="-13" type="line"/>
      <point x="268" y="-13" type="line"/>
      <point x="268" y="88" type="line"/>
      <point x="321" y="90"/>
      <point x="368" y="110"/>
      <point x="412" y="184" type="curve"/>
      <point x="409" y="192"/>
      <point x="401" y="196"/>
      <point x="392" y="197" type="curve"/>
      <point x="364.04" y="160.885"/>
      <point x="324.647" y="134"/>
      <point x="278" y="134" type="curve" smooth="yes"/>
      <point x="275" y="134"/>
      <point x="271" y="134"/>
      <point x="268" y="135" type="curve"/>
      <point x="268" y="483" type="line"/>
      <point x="308" y="480"/>
      <point x="320" y="458"/>
      <point x="325" y="432" type="curve" smooth="yes"/>
      <point x="326" y="427"/>
      <point x="326" y="422"/>
      <point x="327" y="417" type="curve"/>
      <point x="330" y="391"/>
      <point x="343" y="382"/>
      <point x="363" y="382" type="curve" smooth="yes"/>
      <point x="383" y="382"/>
      <point x="410" y="395" name=".hr01"/>
      <point x="410" y="424" type="curve" smooth="yes"/>
      <point x="410" y="476"/>
      <point x="357" y="514"/>
      <point x="268" y="514" type="curve" name=".hr02"/>
      <point x="268" y="611" type="line"/>
    </contour>
    <contour>
      <point x="232" y="145" type="line"/>
      <point x="185" y="169"/>
      <point x="151" y="231"/>
      <point x="151" y="316" type="curve" smooth="yes"/>
      <point x="151" y="404"/>
      <point x="184" y="463"/>
      <point x="232" y="479" type="curve"/>
    </contour>
  </outline>
</glyph>
<glyph name="sterling" format="2">
  <advance width="465"/>
  <unicode hex="00A3"/>
  <outline>
    <contour>
      <point x="89.082" y="300" type="curve" smooth="yes"/>
      <point x="137" y="300" type="line"/>
      <point x="137" y="281" type="line" smooth="yes"/>
      <point x="137" y="207"/>
      <point x="130" y="139"/>
      <point x="95" y="94" type="curve"/>
      <point x="41.686" y="70.305"/>
      <point x="16" y="45.374"/>
      <point x="16" y="17" type="curve" smooth="yes"/>
      <point x="16" y="1"/>
      <point x="25.872" y="-11"/>
      <point x="44.872" y="-11" type="curve" smooth="yes"/>
      <point x="69.309" y="-11"/>
      <point x="92" y="5.208"/>
      <point x="92" y="24" type="curve" smooth="yes"/>
      <point x="92" y="35"/>
      <point x="97" y="49"/>
      <point x="132" y="49" type="curve" smooth="yes"/>
      <point x="218.524" y="49"/>
      <point x="224.077" y="-11"/>
      <point x="311" y="-11" type="curve" smooth="yes"/>
      <point x="376" y="-11"/>
      <point x="426" y="25"/>
      <point x="450" y="77" type="curve"/>
      <point x="446" y="84"/>
      <point x="440" y="87"/>
      <point x="432" y="88" type="curve"/>
      <point x="406" y="52"/>
      <point x="359" y="44"/>
      <point x="329" y="44" type="curve" smooth="yes"/>
      <point x="267.11" y="44"/>
      <point x="270.138" y="89.965"/>
      <point x="147.369" y="90.07" type="curve"/>
      <point x="146.631" y="91.929" type="line"/>
      <point x="181" y="123"/>
      <point x="222" y="181"/>
      <point x="222" y="300" type="curve"/>
      <point x="319" y="300" type="line" smooth="yes"/>
      <point x="327.107" y="300"/>
      <point x="354" y="303.249"/>
      <point x="354" y="313" type="curve" smooth="yes"/>
      <point x="354" y="330.599" type="line" smooth="yes"/>
      <point x="354" y="337.885"/>
      <point x="342.639" y="339"/>
      <point x="336" y="339" type="curve" smooth="yes"/>
      <point x="222" y="339" type="line"/>
      <point x="222" y="410" type="line" smooth="yes"/>
      <point x="222" y="497"/>
      <point x="271.793" y="567.28"/>
      <point x="317.793" y="567.28" type="curve" smooth="yes"/>
      <point x="366.399" y="567.28"/>
      <point x="347.635" y="521"/>
      <point x="394.228" y="521" type="curve" smooth="yes"/>
      <point x="418.228" y="521"/>
      <point x="432" y="537"/>
      <point x="432" y="562" type="curve" smooth="yes"/>
      <point x="432" y="588.403"/>
      <point x="395.28" y="611"/>
      <point x="352" y="611" type="curve" smooth="yes"/>
      <point x="223.586" y="611"/>
      <point x="137" y="476.326"/>
      <point x="137" y="359" type="curve" smooth="yes"/>
      <point x="137" y="339" type="line"/>
      <point x="101" y="339" type="line" smooth="yes"/>
      <point x="80.647" y="339"/>
      <point x="68" y="333.306"/>
      <point x="68" y="324.52" type="curve" smooth="yes"/>
      <point x="68" y="308.379" type="line" smooth="yes"/>
      <point x="68" y="302.78"/>
      <point x="80.029" y="300"/>
    </contour>
  </outline>
</glyph>
<glyph name="currency" format="2">
  <advance width="465"/>
  <unicode hex="00A4"/>
  <outline>
    <contour>
      <point x="231" y="119" type="curve" smooth="yes"/>
      <point x="274" y="119"/>
      <point x="313" y="132"/>
      <point x="348" y="158" type="curve"/>
      <point x="396" y="105" type="line"/>
      <point x="434" y="145" type="line"/>
      <point x="425.987" y="151.702"/>
      <point x="387.322" y="184.039"/>
      <point x="379" y="191" type="curve"/>
      <point x="404" y="224"/>
      <point x="418" y="262"/>
      <point x="418" y="304" type="curve" smooth="yes"/>
      <point x="418" y="348"/>
      <point x="404" y="386"/>
      <point x="378" y="418" type="curve"/>
      <point x="436" y="465" type="line"/>
      <point x="395" y="508" type="line"/>
      <point x="389.514" y="501.507"/>
      <point x="353.653" y="459.059"/>
      <point x="346" y="450" type="curve"/>
      <point x="312" y="476"/>
      <point x="274" y="489"/>
      <point x="231" y="489" type="curve" smooth="yes"/>
      <point x="190" y="489"/>
      <point x="153" y="477"/>
      <point x="118" y="452" type="curve"/>
      <point x="70" y="506" type="line"/>
      <point x="31" y="464" type="line"/>
      <point x="39.241" y="457.407"/>
      <point x="77.696" y="426.643"/>
      <point x="86" y="420" type="curve"/>
      <point x="59" y="388"/>
      <point x="44" y="349"/>
      <point x="44" y="304" type="curve" smooth="yes"/>
      <point x="44" y="261"/>
      <point x="59" y="222"/>
      <point x="86" y="189" type="curve"/>
      <point x="29" y="144" type="line"/>
      <point x="72" y="101" type="line"/>
      <point x="77.411" y="107.734"/>
      <point x="110.069" y="148.375"/>
      <point x="117" y="157" type="curve"/>
      <point x="151" y="132"/>
      <point x="189" y="119"/>
    </contour>
    <contour>
      <point x="108" y="305" type="curve" smooth="yes"/>
      <point x="108" y="380"/>
      <point x="159" y="445"/>
      <point x="233" y="445" type="curve" smooth="yes"/>
      <point x="298" y="445"/>
      <point x="354" y="383"/>
      <point x="354" y="304" type="curve" smooth="yes"/>
      <point x="354" y="229"/>
      <point x="305" y="164"/>
      <point x="231" y="164" type="curve" smooth="yes"/>
      <point x="156" y="164"/>
      <point x="108" y="228"/>
    </contour>
  </outline>
</glyph>
<glyph name="copyright" format="2">
  <advance width="695"/>
  <unicode hex="00A9"/>
  <outline>
    <contour>
      <point x="321" y="23" type="curve" smooth="yes"/>
      <point x="482.309" y="23"/>
      <point x="608" y="146.757"/>
      <point x="608" y="306" type="curve" smooth="yes"/>
      <point x="608" y="465.195"/>
      <point x="482.294" y="588"/>
      <point x="321" y="588" type="curve" smooth="yes"/>
      <point x="159.706" y="588"/>
      <point x="34" y="465.195"/>
      <point x="34" y="306" type="curve" smooth="yes"/>
      <point x="34" y="146.757"/>
      <point x="159.691" y="23"/>
    </contour>
    <contour>
      <point x="321" y="552" type="curve" smooth="yes"/>
      <point x="459.166" y="552"/>
      <point x="568" y="445.844"/>
      <point x="568" y="306" type="curve" smooth="yes"/>
      <point x="568" y="166.383"/>
      <point x="458.392" y="59"/>
      <point x="321" y="59" type="curve" smooth="yes"/>
      <point x="183.1" y="59"/>
      <point x="74" y="165.866"/>
      <point x="74" y="306" type="curve" smooth="yes"/>
      <point x="74" y="446.35"/>
      <point x="182.334" y="552"/>
    </contour>
    <contour>
      <point x="444" y="216" type="curve"/>
      <point x="439" y="222"/>
      <point x="435" y="228"/>
      <point x="425" y="231" type="curve"/>
      <point x="402.744" y="199.841"/>
      <point x="373.815" y="181"/>
      <point x="335" y="181" type="curve" smooth="yes"/>
      <point x="279" y="181"/>
      <point x="237" y="238"/>
      <point x="237" y="311" type="curve" smooth="yes"/>
      <point x="237" y="409"/>
      <point x="284" y="434"/>
      <point x="324" y="434" type="curve" smooth="yes"/>
      <point x="380.038" y="434"/>
      <point x="405.667" y="412.032"/>
      <point x="415" y="355" type="curve"/>
      <point x="423" y="355"/>
      <point x="430" y="356"/>
      <point x="435" y="359" type="curve"/>
      <point x="433.147" y="384.537"/>
      <point x="432.253" y="407.405"/>
      <point x="435.641" y="441.233" type="curve"/>
      <point x="434.359" y="442.767" type="line"/>
      <point x="415" y="444"/>
      <point x="398" y="457"/>
      <point x="328" y="457" type="curve" smooth="yes"/>
      <point x="232.868" y="457"/>
      <point x="170" y="396.121"/>
      <point x="170" y="304" type="curve" smooth="yes"/>
      <point x="170" y="218.297"/>
      <point x="238.042" y="152"/>
      <point x="326" y="152" type="curve" smooth="yes"/>
      <point x="381" y="152"/>
      <point x="424" y="185"/>
    </contour>
  </outline>
</glyph>
<glyph name="ordfeminine" format="2">
  <advance width="307"/>
  <unicode hex="00AA"/>
  <outline>
    <contour>
      <point x="192" y="529" type="curve"/>
      <point x="134" y="514" type="line" smooth="yes"/>
      <point x="72.467" y="498.086"/>
      <point x="31" y="470"/>
      <point x="31" y="428" type="curve" smooth="yes"/>
      <point x="31" y="384.163"/>
      <point x="68.007" y="358"/>
      <point x="108" y="358" type="curve" smooth="yes"/>
      <point x="141" y="358"/>
      <point x="159" y="367"/>
      <point x="193" y="397" type="curve"/>
      <point x="196.453" y="374.553"/>
      <point x="213.496" y="358.319"/>
      <point x="236.219" y="358.32" type="curve" smooth="yes"/>
      <point x="253.294" y="358.321"/>
      <point x="270.505" y="367.228"/>
      <point x="282" y="380" type="curve"/>
      <point x="282.185" y="386.878"/>
      <point x="279" y="393"/>
      <point x="272" y="396" type="curve"/>
      <point x="269" y="393"/>
      <point x="264" y="391"/>
      <point x="260" y="391" type="curve" smooth="yes"/>
      <point x="252" y="391"/>
      <point x="248" y="403"/>
      <point x="246" y="432" type="curve"/>
      <point x="246" y="523" type="line" smooth="yes"/>
      <point x="246" y="602.262"/>
      <point x="213.867" y="637"/>
      <point x="140" y="637" type="curve" smooth="yes"/>
      <point x="98" y="637"/>
      <point x="36" y="604"/>
      <point x="36" y="564" type="curve" smooth="yes"/>
      <point x="36" y="549"/>
      <point x="47.468" y="539"/>
      <point x="63.106" y="539" type="curve" smooth="yes"/>
      <point x="77.342" y="539"/>
      <point x="88.565" y="549.229"/>
      <point x="88.593" y="560.338" type="curve" smooth="yes"/>
      <point x="88.626" y="573.551"/>
      <point x="84" y="581.773"/>
      <point x="84" y="590.174" type="curve" smooth="yes"/>
      <point x="84" y="602.517"/>
      <point x="93.255" y="612"/>
      <point x="126.255" y="612" type="curve" smooth="yes"/>
      <point x="170.299" y="612"/>
      <point x="192" y="585.091"/>
    </contour>
    <contour>
      <point x="192" y="423" type="line"/>
      <point x="166" y="400"/>
      <point x="149" y="390"/>
      <point x="128" y="390" type="curve" smooth="yes"/>
      <point x="94" y="390"/>
      <point x="85" y="410"/>
      <point x="85" y="431" type="curve" smooth="yes"/>
      <point x="85" y="462"/>
      <point x="107" y="480"/>
      <point x="192" y="502" type="curve"/>
    </contour>
  </outline>
</glyph>
<glyph name="logicalnot" format="2">
  <advance width="599"/>
  <unicode hex="00AC"/>
  <outline>
    <contour>
      <point x="224" y="328" type="line"/>
      <point x="224" y="367" type="line"/>
      <point x="51" y="367" type="line" smooth="yes"/>
      <point x="42" y="367"/>
      <point x="32" y="352"/>
      <point x="32" y="342" type="curve" smooth="yes"/>
      <point x="32" y="336"/>
      <point x="35" y="328"/>
      <point x="43" y="328" type="curve" smooth="yes"/>
    </contour>
    <contour>
      <point x="499" y="99" type="line"/>
      <point x="513.624" y="90"/>
      <point x="536.908" y="90"/>
      <point x="553" y="99" type="curve"/>
      <point x="553" y="367" type="line"/>
      <point x="80" y="367" type="line"/>
      <point x="80" y="328" type="line"/>
      <point x="499" y="328" type="line"/>
    </contour>
  </outline>
</glyph>
<glyph name="registered" format="2">
  <advance width="695"/>
  <unicode hex="00AE"/>
  <outline>
    <contour>
      <point x="321" y="23" type="curve" smooth="yes"/>
      <point x="482.309" y="23"/>
      <point x="608" y="146.757"/>
      <point x="608" y="306" type="curve" smooth="yes"/>
      <point x="608" y="465.195"/>
      <point x="482.294" y="588"/>
      <point x="321" y="588" type="curve" smooth="yes"/>
      <point x="159.706" y="588"/>
      <point x="34" y="465.195"/>
      <point x="34" y="306" type="curve" smooth="yes"/>
      <point x="34" y="146.757"/>
      <point x="159.691" y="23"/>
    </contour>
    <contour>
      <point x="321" y="552" type="curve" smooth="yes"/>
      <point x="459.166" y="552"/>
      <point x="568" y="445.844"/>
      <point x="568" y="306" type="curve" smooth="yes"/>
      <point x="568" y="166.383"/>
      <point x="458.392" y="59"/>
      <point x="321" y="59" type="curve" smooth="yes"/>
      <point x="183.1" y="59"/>
      <point x="74" y="165.866"/>
      <point x="74" y="306" type="curve" smooth="yes"/>
      <point x="74" y="446.35"/>
      <point x="182.334" y="552"/>
    </contour>
    <contour>
      <point x="199" y="167" type="curve"/>
      <point x="217.24" y="168.14"/>
      <point x="241.75" y="169" name=".hr01"/>
      <point x="256" y="169" type="curve" smooth="yes"/>
      <point x="263" y="169" type="line" smooth="yes"/>
      <point x="277.75" y="169"/>
      <point x="306.333" y="168.093"/>
      <point x="326" y="167" type="curve"/>
      <point x="330.424" y="171.424"/>
      <point x="330.424" y="182.576"/>
      <point x="326" y="187" type="curve"/>
      <point x="296.522" y="187"/>
      <point x="286" y="201.785"/>
      <point x="286" y="232" type="curve" smooth="yes"/>
      <point x="286" y="288" type="line"/>
      <point x="315.011" y="288" type="line" smooth="yes"/>
      <point x="321.045" y="288" name=".hr02"/>
      <point x="325.587" y="286.235"/>
      <point x="328.693" y="280.61" type="curve" smooth="yes"/>
      <point x="371" y="204" type="line" smooth="yes"/>
      <point x="384.624" y="179.329"/>
      <point x="407.224" y="166"/>
      <point x="434.072" y="166" type="curve" smooth="yes"/>
      <point x="445.104" y="166"/>
      <point x="457.117" y="168.336"/>
      <point x="468" y="173" type="curve"/>
      <point x="469.134" y="179.805"/>
      <point x="467.577" y="186.423"/>
      <point x="464" y="190" type="curve"/>
      <point x="445.9" y="190"/>
      <point x="431.69" y="195.738"/>
      <point x="421" y="214" type="curve" smooth="yes"/>
      <point x="373" y="296" type="line"/>
      <point x="408.486" y="307.447"/>
      <point x="430" y="335.377"/>
      <point x="430" y="370" type="curve" smooth="yes"/>
      <point x="430" y="414.605"/>
      <point x="391.5" y="445"/>
      <point x="335" y="445" type="curve" smooth="yes"/>
      <point x="315" y="445"/>
      <point x="279" y="443"/>
      <point x="263" y="443" type="curve" smooth="yes"/>
      <point x="248" y="443"/>
      <point x="218.286" y="443.929"/>
      <point x="199" y="445" type="curve"/>
      <point x="194.576" y="440.576"/>
      <point x="194.576" y="429.424"/>
      <point x="199" y="425" type="curve"/>
      <point x="228.914" y="425"/>
      <point x="239" y="414.661"/>
      <point x="239" y="384" type="curve" smooth="yes"/>
      <point x="239" y="232" type="line" smooth="yes"/>
      <point x="239" y="202.815"/>
      <point x="227.473" y="187"/>
      <point x="199" y="187" type="curve"/>
      <point x="194.576" y="182.576"/>
      <point x="194.576" y="171.424"/>
    </contour>
    <contour>
      <point x="286" y="312" type="line"/>
      <point x="286" y="389.542" type="line" smooth="yes"/>
      <point x="286" y="409.844" name=".hr03"/>
      <point x="297.107" y="421.414"/>
      <point x="317.183" y="421.414" type="curve" smooth="yes"/>
      <point x="356.787" y="421.414"/>
      <point x="376" y="404.619"/>
      <point x="376" y="370" type="curve" smooth="yes"/>
      <point x="376" y="328.875"/>
      <point x="362.034" y="312"/>
      <point x="328" y="312" type="curve" smooth="yes"/>
    </contour>
  </outline>
  <guideline angle="120.343" x="421" y="214"/>
  <guideline angle="298.909" x="334" y="271"/>
  <guideline angle="0" x="0" y="288"/>
</glyph>
<glyph name="uni00B2" format="2">
  <advance width="308"/>
  <unicode hex="00B2"/>
  <outline>
    <contour>
      <point x="45" y="709.538" type="curve" smooth="yes"/>
      <point x="45" y="697.638"/>
      <point x="57.958" y="685.813"/>
      <point x="71" y="685.813" type="curve" smooth="yes"/>
      <point x="92.104" y="685.813"/>
      <point x="104.295" y="697.396"/>
      <point x="104.295" y="717.447" type="curve" smooth="yes"/>
      <point x="104.295" y="725.263"/>
      <point x="101.909" y="734.823"/>
      <point x="106" y="744.137" type="curve"/>
      <point x="115.634" y="753.662"/>
      <point x="130.724" y="759.002"/>
      <point x="148" y="759.002" type="curve" smooth="yes"/>
      <point x="179.023" y="759.002"/>
      <point x="198" y="737.602"/>
      <point x="198" y="702.618" type="curve" smooth="yes"/>
      <point x="198" y="664.902"/>
      <point x="181.729" y="630.972"/>
      <point x="152" y="606.695" type="curve" smooth="yes"/>
      <point x="129" y="587.912" type="line" smooth="yes"/>
      <point x="73.056" y="542.227"/>
      <point x="39.785" y="500.238"/>
      <point x="40.323" y="476" type="curve" smooth="yes"/>
      <point x="40.429" y="471.253"/>
      <point x="41.297" y="467.359"/>
      <point x="43" y="464" type="curve"/>
      <point x="249" y="464" type="line"/>
      <point x="254.099" y="500.684"/>
      <point x="259.764" y="528.8"/>
      <point x="268" y="558.29" type="curve"/>
      <point x="263.563" y="561.799"/>
      <point x="256.6" y="563.233"/>
      <point x="244" y="563.233" type="curve"/>
      <point x="225.884" y="516.881"/>
      <point x="209.075" y="497"/>
      <point x="188" y="497" type="curve" smooth="yes"/>
      <point x="105" y="497" type="line"/>
      <point x="113.822" y="530.431"/>
      <point x="129.891" y="551.362"/>
      <point x="171" y="582.969" type="curve" smooth="yes"/>
      <point x="180" y="589.889" type="line" smooth="yes"/>
      <point x="243.729" y="638.889"/>
      <point x="260" y="662.018"/>
      <point x="260" y="703.607" type="curve" smooth="yes"/>
      <point x="260" y="756.492"/>
      <point x="218.885" y="789"/>
      <point x="152" y="789" type="curve" smooth="yes"/>
      <point x="95.448" y="789"/>
      <point x="45" y="751.535"/>
    </contour>
  </outline>
</glyph>
<glyph name="uni00B3" format="2">
  <advance width="314"/>
  <unicode hex="00B3"/>
  <outline>
    <contour>
      <point x="186" y="725" type="curve" smooth="yes"/>
      <point x="186" y="684.88"/>
      <point x="159.987" y="658.135"/>
      <point x="115" y="652" type="curve"/>
      <point x="112" y="643"/>
      <point x="112" y="632"/>
      <point x="117" y="625" type="curve"/>
      <point x="122.246" y="626.06"/>
      <point x="130" y="627"/>
      <point x="137" y="627" type="curve" smooth="yes"/>
      <point x="184.041" y="627"/>
      <point x="212" y="604.26"/>
      <point x="212" y="566" type="curve" smooth="yes"/>
      <point x="212" y="518.275"/>
      <point x="183.721" y="490"/>
      <point x="137.622" y="490" type="curve" smooth="yes"/>
      <point x="115.362" y="490"/>
      <point x="105.097" y="492.963"/>
      <point x="98.181" y="501.385" type="curve"/>
      <point x="93.916" y="518.298"/>
      <point x="83.66" y="525.424"/>
      <point x="64.768" y="525.155" type="curve" smooth="yes"/>
      <point x="51.038" y="524.959"/>
      <point x="38" y="516.003"/>
      <point x="38" y="504.271" type="curve" smooth="yes"/>
      <point x="38" y="481.487"/>
      <point x="86.958" y="460"/>
      <point x="138.873" y="460" type="curve" smooth="yes"/>
      <point x="217.475" y="460"/>
      <point x="274" y="507.106"/>
      <point x="274" y="574" type="curve" smooth="yes"/>
      <point x="274" y="619.237"/>
      <point x="239.969" y="655.821"/>
      <point x="194" y="660" type="curve" smooth="yes"/>
      <point x="192.4" y="660.146"/>
      <point x="192.359" y="663.089"/>
      <point x="194" y="664" type="curve" smooth="yes"/>
      <point x="228.096" y="682.921"/>
      <point x="245" y="704.796"/>
      <point x="245" y="730" type="curve" smooth="yes"/>
      <point x="245" y="766.547"/>
      <point x="212.653" y="789"/>
      <point x="160" y="789" type="curve" smooth="yes"/>
      <point x="101.592" y="789"/>
      <point x="46" y="757.303"/>
      <point x="46" y="724" type="curve" smooth="yes"/>
      <point x="46" y="721"/>
      <point x="50" y="706"/>
      <point x="69" y="706" type="curve" smooth="yes"/>
      <point x="84.735" y="706"/>
      <point x="92.946" y="714.819"/>
      <point x="96" y="735" type="curve"/>
      <point x="103" y="751"/>
      <point x="131" y="759"/>
      <point x="148" y="759" type="curve" smooth="yes"/>
      <point x="170.529" y="759"/>
      <point x="186" y="745.158"/>
    </contour>
  </outline>
</glyph>
<glyph name="mu" format="2">
  <advance width="515"/>
  <unicode hex="00B5"/>
  <outline>
    <contour>
      <point x="343" y="60" type="line"/>
      <point x="348.822" y="13.422"/>
      <point x="376.405" y="-10"/>
      <point x="422" y="-10" type="curve" smooth="yes"/>
      <point x="474" y="-10"/>
      <point x="510" y="30"/>
      <point x="510" y="35" type="curve" smooth="yes"/>
      <point x="510" y="42"/>
      <point x="502" y="50"/>
      <point x="498" y="50" type="curve" smooth="yes"/>
      <point x="492" y="50"/>
      <point x="489" y="34"/>
      <point x="463" y="34" type="curve" smooth="yes"/>
      <point x="433.369" y="34"/>
      <point x="421" y="49.87"/>
      <point x="421" y="98.946" type="curve" smooth="yes"/>
      <point x="421" y="439" type="line"/>
      <point x="395" y="436"/>
      <point x="367" y="429"/>
      <point x="342" y="429" type="curve"/>
      <point x="342" y="107" type="line"/>
      <point x="319" y="74"/>
      <point x="264" y="35"/>
      <point x="209" y="35" type="curve" smooth="yes"/>
      <point x="153" y="35"/>
      <point x="136" y="85"/>
      <point x="136" y="147" type="curve" smooth="yes"/>
      <point x="136" y="343" type="line" smooth="yes"/>
      <point x="136" y="375"/>
      <point x="133.3" y="432.6"/>
      <point x="133" y="439" type="curve"/>
      <point x="103" y="436"/>
      <point x="70" y="429"/>
      <point x="46" y="429" type="curve"/>
      <point x="49.222" y="414.276"/>
      <point x="57" y="350"/>
      <point x="57" y="322" type="curve" smooth="yes"/>
      <point x="57" y="134" type="line" smooth="yes"/>
      <point x="57" y="99"/>
      <point x="60" y="67"/>
      <point x="63" y="40" type="curve" smooth="yes"/>
      <point x="65" y="21"/>
      <point x="66" y="5"/>
      <point x="66" y="-8" type="curve" smooth="yes"/>
      <point x="66" y="-42"/>
      <point x="63.031" y="-69.47"/>
      <point x="57" y="-100" type="curve" smooth="yes"/>
      <point x="52.476" y="-122.903"/>
      <point x="50" y="-146"/>
      <point x="50" y="-169" type="curve" smooth="yes"/>
      <point x="50" y="-210"/>
      <point x="69.609" y="-234"/>
      <point x="99.473" y="-234" type="curve" smooth="yes"/>
      <point x="132.062" y="-234"/>
      <point x="150" y="-201.796"/>
      <point x="150" y="-174" type="curve" smooth="yes"/>
      <point x="150" y="-155.139"/>
      <point x="141.854" y="-120.343"/>
      <point x="135" y="-100" type="curve" smooth="yes"/>
      <point x="121.397" y="-59.626"/>
      <point x="114.576" y="-17.959"/>
      <point x="114.576" y="24.91" type="curve"/>
      <point x="126.576" y="11.91"/>
      <point x="167" y="-10"/>
      <point x="194" y="-10" type="curve" smooth="yes"/>
      <point x="258" y="-10"/>
      <point x="301" y="16"/>
      <point x="340" y="60" type="curve"/>
    </contour>
  </outline>
</glyph>
<glyph name="cedilla" format="2">
  <advance width="541"/>
  <unicode hex="00B8"/>
  <outline>
    <contour>
      <point x="257" y="-102" type="line"/>
      <point x="273" y="-97"/>
      <point x="283" y="-96"/>
      <point x="302" y="-96" type="curve" smooth="yes"/>
      <point x="323.4" y="-96"/>
      <point x="335" y="-108.303"/>
      <point x="335" y="-131" type="curve" smooth="yes"/>
      <point x="335" y="-155.765"/>
      <point x="315.575" y="-171"/>
      <point x="284" y="-171" type="curve" smooth="yes"/>
      <point x="264" y="-171"/>
      <point x="253" y="-167"/>
      <point x="226" y="-157" type="curve"/>
      <point x="219" y="-164"/>
      <point x="216" y="-171"/>
      <point x="216" y="-183" type="curve"/>
      <point x="241.437" y="-193.902"/>
      <point x="262.082" y="-200"/>
      <point x="290" y="-200" type="curve" smooth="yes"/>
      <point x="351.588" y="-200"/>
      <point x="397" y="-168.593"/>
      <point x="397" y="-126" type="curve" smooth="yes"/>
      <point x="397" y="-89.274"/>
      <point x="368.058" y="-64"/>
      <point x="326" y="-64" type="curve" smooth="yes"/>
      <point x="317" y="-64"/>
      <point x="306" y="-65"/>
      <point x="298" y="-67" type="curve"/>
      <point x="325" y="0" type="line"/>
      <point x="291" y="0" type="line"/>
      <point x="251" y="-96" type="line"/>
    </contour>
  </outline>
</glyph>
<glyph name="uni00B9" format="2">
  <advance width="267"/>
  <unicode hex="00B9"/>
  <outline>
    <contour>
      <point x="95" y="719.031" type="curve" smooth="yes"/>
      <point x="107" y="719.031"/>
      <point x="109" y="710.031"/>
      <point x="109" y="678.031" type="curve" smooth="yes"/>
      <point x="109" y="548.031" type="line" smooth="yes"/>
      <point x="109" y="497.031"/>
      <point x="78" y="494.031"/>
      <point x="38" y="492.031" type="curve"/>
      <point x="33" y="484.031"/>
      <point x="34" y="469.031"/>
      <point x="38" y="463.031" type="curve"/>
      <point x="68" y="464.031"/>
      <point x="99" y="464.031"/>
      <point x="134" y="464.031" type="curve" smooth="yes"/>
      <point x="167" y="464.031"/>
      <point x="188" y="464.031"/>
      <point x="218" y="463.031" type="curve"/>
      <point x="222" y="470.031"/>
      <point x="222" y="484.031"/>
      <point x="218" y="492.031" type="curve"/>
      <point x="184" y="494.031"/>
      <point x="163" y="497.031"/>
      <point x="163" y="548.031" type="curve" smooth="yes"/>
      <point x="163" y="679.436" type="line" smooth="yes"/>
      <point x="163" y="714.967"/>
      <point x="162.68" y="751.525"/>
      <point x="167" y="787.031" type="curve"/>
      <point x="164.799" y="789.232"/>
      <point x="162.012" y="790.085"/>
      <point x="159.156" y="790.091" type="curve" smooth="yes"/>
      <point x="155.525" y="790.099"/>
      <point x="151.784" y="788.735"/>
      <point x="149" y="787.031" type="curve" smooth="yes"/>
      <point x="104.973" y="760.076"/>
      <point x="75" y="748.031"/>
      <point x="28" y="731.031" type="curve"/>
      <point x="28" y="719.031"/>
      <point x="30" y="710.031"/>
      <point x="38" y="704.031" type="curve"/>
      <point x="63" y="713.031"/>
      <point x="82" y="719.031"/>
    </contour>
  </outline>
</glyph>
<glyph name="ordmasculine" format="2">
  <advance width="349"/>
  <unicode hex="00BA"/>
  <outline>
    <contour>
      <point x="311" y="489" type="line"/>
      <point x="311" y="568.144"/>
      <point x="255.659" y="620"/>
      <point x="179" y="620" type="curve" smooth="yes"/>
      <point x="93" y="620"/>
      <point x="39" y="564"/>
      <point x="39" y="483" type="curve"/>
      <point x="97" y="496" type="line"/>
      <point x="97" y="550"/>
      <point x="121" y="594"/>
      <point x="171" y="594" type="curve" smooth="yes"/>
      <point x="221" y="594"/>
      <point x="253" y="556"/>
      <point x="253" y="476" type="curve"/>
    </contour>
    <contour>
      <point x="39" y="483" type="line"/>
      <point x="39" y="403.856"/>
      <point x="94.3414" y="352"/>
      <point x="171" y="352" type="curve" smooth="yes"/>
      <point x="257" y="352"/>
      <point x="311" y="408"/>
      <point x="311" y="489" type="curve"/>
      <point x="253" y="476" type="line"/>
      <point x="253" y="422"/>
      <point x="229" y="378"/>
      <point x="179" y="378" type="curve" smooth="yes"/>
      <point x="129" y="378"/>
      <point x="97" y="416"/>
      <point x="97" y="496" type="curve"/>
    </contour>
  </outline>
  <guideline angle="0" x="0" y="620"/>
  <guideline angle="90" x="311" y="0"/>
  <guideline angle="0" x="0" y="357"/>
  <guideline angle="90" x="39" y="0"/>
</glyph>
<glyph name="guillemotright" format="2">
	<unicode hex="00BB"/>
	<advance width="543"/>
	<outline>
		<contour>
			<point x="289" y="221" type="line"/>
			<point x="234" y="270"/>
			<point x="184" y="319"/>
			<point x="104" y="404" type="curve"/>
			<point x="94" y="403"/>
			<point x="83" y="395"/>
			<point x="80" y="385" type="curve"/>
			<point x="132" y="306"/>
			<point x="170" y="258"/>
			<point x="207" y="215" type="curve"/>
			<point x="170" y="173"/>
			<point x="132" y="124"/>
			<point x="80" y="45" type="curve"/>
			<point x="83" y="35"/>
			<point x="94" y="27"/>
			<point x="104" y="26" type="curve"/>
			<point x="184" y="112"/>
			<point x="234" y="160"/>
			<point x="289" y="209" type="curve"/>
		</contour>
		<contour>
			<point x="469" y="221" type="line"/>
			<point x="414" y="270"/>
			<point x="364" y="319"/>
			<point x="284" y="404" type="curve"/>
			<point x="274" y="403"/>
			<point x="263" y="395"/>
			<point x="260" y="385" type="curve"/>
			<point x="312" y="306"/>
			<point x="350" y="258"/>
			<point x="387" y="215" type="curve"/>
			<point x="350" y="173"/>
			<point x="312" y="124"/>
			<point x="260" y="45" type="curve"/>
			<point x="263" y="35"/>
			<point x="274" y="27"/>
			<point x="284" y="26" type="curve"/>
			<point x="364" y="112"/>
			<point x="414" y="160"/>
			<point x="469" y="209" type="curve"/>
		</contour>
	</outline>
</glyph>
<glyph name="onequarter" format="2">
  <advance width="558"/>
  <unicode hex="00BC"/>
  <outline>
    <component base="uni2074" xOffset="207.851" yOffset="-365.722"/>
    <contour>
      <point x="95" y="585.985" type="curve" smooth="yes"/>
      <point x="107" y="585.985"/>
      <point x="109" y="576.985"/>
      <point x="109" y="544.985" type="curve" smooth="yes"/>
      <point x="109" y="414.985" type="line" smooth="yes"/>
      <point x="109" y="363.985"/>
      <point x="78" y="360.985"/>
      <point x="38" y="358.985" type="curve"/>
      <point x="33" y="350.985"/>
      <point x="34" y="335.985"/>
      <point x="38" y="329.985" type="curve"/>
      <point x="68" y="330.985"/>
      <point x="99" y="330.985"/>
      <point x="134" y="330.985" type="curve" smooth="yes"/>
      <point x="167" y="330.985"/>
      <point x="188" y="330.985"/>
      <point x="218" y="329.985" type="curve"/>
      <point x="222" y="336.985"/>
      <point x="222" y="350.985"/>
      <point x="218" y="358.985" type="curve"/>
      <point x="184" y="360.985"/>
      <point x="163" y="363.985"/>
      <point x="163" y="414.985" type="curve" smooth="yes"/>
      <point x="163" y="546.391" type="line" smooth="yes"/>
      <point x="163" y="581.921"/>
      <point x="162.68" y="618.479"/>
      <point x="167" y="653.985" type="curve"/>
      <point x="164.799" y="656.186"/>
      <point x="162.012" y="657.04"/>
      <point x="159.156" y="657.045" type="curve" smooth="yes"/>
      <point x="155.525" y="657.053"/>
      <point x="151.784" y="655.69"/>
      <point x="149" y="653.985" type="curve" smooth="yes"/>
      <point x="104.973" y="627.03"/>
      <point x="75" y="614.985"/>
      <point x="28" y="597.985" type="curve"/>
      <point x="28" y="585.985"/>
      <point x="30" y="576.985"/>
      <point x="38" y="570.985" type="curve"/>
      <point x="63" y="579.985"/>
      <point x="82" y="585.985"/>
    </contour>
    <contour>
      <point x="503.794" y="656.717" type="line"/>
      <point x="36.6015" y="-10" type="line"/>
      <point x="77.6015" y="-10" type="line"/>
      <point x="545.794" y="656.717" type="line"/>
    </contour>
  </outline>
</glyph>
<glyph name="onehalf" format="2">
  <advance width="618"/>
  <unicode hex="00BD"/>
  <outline>
    <contour>
      <point x="95" y="587.031" type="curve" smooth="yes"/>
      <point x="107" y="587.031"/>
      <point x="109" y="578.031"/>
      <point x="109" y="546.031" type="curve" smooth="yes"/>
      <point x="109" y="416.031" type="line" smooth="yes"/>
      <point x="109" y="365.031"/>
      <point x="78" y="362.031"/>
      <point x="38" y="360.031" type="curve"/>
      <point x="33" y="352.031"/>
      <point x="34" y="337.031"/>
      <point x="38" y="331.031" type="curve"/>
      <point x="68" y="332.031"/>
      <point x="99" y="332.031"/>
      <point x="134" y="332.031" type="curve" smooth="yes"/>
      <point x="167" y="332.031"/>
      <point x="188" y="332.031"/>
      <point x="218" y="331.031" type="curve"/>
      <point x="222" y="338.031"/>
      <point x="222" y="352.031"/>
      <point x="218" y="360.031" type="curve"/>
      <point x="184" y="362.031"/>
      <point x="163" y="365.031"/>
      <point x="163" y="416.031" type="curve" smooth="yes"/>
      <point x="163" y="547.436" type="line" smooth="yes"/>
      <point x="163" y="582.967"/>
      <point x="162.68" y="619.525"/>
      <point x="167" y="655.031" type="curve"/>
      <point x="164.799" y="657.232"/>
      <point x="162.012" y="658.085"/>
      <point x="159.156" y="658.091" type="curve" smooth="yes"/>
      <point x="155.525" y="658.099"/>
      <point x="151.784" y="656.735"/>
      <point x="149" y="655.031" type="curve" smooth="yes"/>
      <point x="104.973" y="628.076"/>
      <point x="75" y="616.031"/>
      <point x="28" y="599.031" type="curve"/>
      <point x="28" y="587.031"/>
      <point x="30" y="578.031"/>
      <point x="38" y="572.031" type="curve"/>
      <point x="63" y="581.031"/>
      <point x="82" y="587.031"/>
    </contour>
    <contour>
      <point x="503.794" y="656.717" type="line"/>
      <point x="36.602" y="-10" type="line"/>
      <point x="77.602" y="-10" type="line"/>
      <point x="545.794" y="656.717" type="line"/>
    </contour>
    <contour>
      <point x="355" y="245.538" type="curve" smooth="yes"/>
      <point x="355" y="233.638"/>
      <point x="367.958" y="221.813"/>
      <point x="381" y="221.813" type="curve" smooth="yes"/>
      <point x="402.104" y="221.813"/>
      <point x="414.295" y="233.396"/>
      <point x="414.295" y="253.447" type="curve" smooth="yes"/>
      <point x="414.295" y="261.263"/>
      <point x="411.909" y="270.823"/>
      <point x="416" y="280.137" type="curve"/>
      <point x="425.634" y="289.662"/>
      <point x="440.724" y="295.002"/>
      <point x="458" y="295.002" type="curve" smooth="yes"/>
      <point x="489.023" y="295.002"/>
      <point x="508" y="273.602"/>
      <point x="508" y="238.618" type="curve" smooth="yes"/>
      <point x="508" y="200.902"/>
      <point x="491.729" y="166.972"/>
      <point x="462" y="142.695" type="curve" smooth="yes"/>
      <point x="439" y="123.912" type="line" smooth="yes"/>
      <point x="383.056" y="78.227"/>
      <point x="349.785" y="36.238"/>
      <point x="350.323" y="12" type="curve" smooth="yes"/>
      <point x="350.429" y="7.253"/>
      <point x="351.297" y="3.359"/>
      <point x="353" y="0" type="curve"/>
      <point x="559" y="0" type="line"/>
      <point x="564.099" y="36.684"/>
      <point x="569.764" y="64.8"/>
      <point x="578" y="94.29" type="curve"/>
      <point x="573.563" y="97.799"/>
      <point x="566.6" y="99.233"/>
      <point x="554" y="99.233" type="curve"/>
      <point x="535.884" y="52.881"/>
      <point x="519.075" y="33"/>
      <point x="498" y="33" type="curve" smooth="yes"/>
      <point x="415" y="33" type="line"/>
      <point x="423.822" y="66.431"/>
      <point x="439.891" y="87.362"/>
      <point x="481" y="118.969" type="curve" smooth="yes"/>
      <point x="490" y="125.889" type="line" smooth="yes"/>
      <point x="553.729" y="174.889"/>
      <point x="570" y="198.018"/>
      <point x="570" y="239.607" type="curve" smooth="yes"/>
      <point x="570" y="292.492"/>
      <point x="528.885" y="325"/>
      <point x="462" y="325" type="curve" smooth="yes"/>
      <point x="405.448" y="325"/>
      <point x="355" y="287.535"/>
    </contour>
  </outline>
</glyph>
<glyph name="threequarters" format="2">
  <advance width="559"/>
  <unicode hex="00BE"/>
  <outline>
    <contour>
      <point x="188" y="593" type="curve" smooth="yes"/>
      <point x="188" y="553"/>
      <point x="162" y="526"/>
      <point x="117" y="520" type="curve"/>
      <point x="114" y="511"/>
      <point x="114" y="500"/>
      <point x="119" y="493" type="curve"/>
      <point x="124" y="494"/>
      <point x="132" y="495"/>
      <point x="139" y="495" type="curve" smooth="yes"/>
      <point x="186" y="495"/>
      <point x="214" y="472"/>
      <point x="214" y="434" type="curve" smooth="yes"/>
      <point x="214" y="386"/>
      <point x="186.378" y="358"/>
      <point x="140" y="358" type="curve" smooth="yes"/>
      <point x="118" y="358"/>
      <point x="106.819" y="360.615"/>
      <point x="100" y="369" type="curve"/>
      <point x="96" y="386"/>
      <point x="86.233" y="392.91"/>
      <point x="67" y="393" type="curve" smooth="yes"/>
      <point x="53" y="393.065"/>
      <point x="40" y="383.729"/>
      <point x="40" y="372" type="curve" smooth="yes"/>
      <point x="40" y="349"/>
      <point x="89.127" y="328"/>
      <point x="141" y="328" type="curve" smooth="yes"/>
      <point x="220" y="328"/>
      <point x="276" y="375"/>
      <point x="276" y="442" type="curve" smooth="yes"/>
      <point x="276" y="487"/>
      <point x="242" y="524"/>
      <point x="196" y="528" type="curve"/>
      <point x="194" y="528"/>
      <point x="194.045" y="530.914"/>
      <point x="196" y="532" type="curve" smooth="yes"/>
      <point x="230.047" y="550.915"/>
      <point x="247" y="573"/>
      <point x="247" y="598" type="curve" smooth="yes"/>
      <point x="247" y="635"/>
      <point x="215" y="657"/>
      <point x="162" y="657" type="curve" smooth="yes"/>
      <point x="104" y="657"/>
      <point x="48" y="625"/>
      <point x="48" y="592" type="curve" smooth="yes"/>
      <point x="48" y="589"/>
      <point x="52" y="574"/>
      <point x="71" y="574" type="curve" smooth="yes"/>
      <point x="87" y="574"/>
      <point x="95" y="583"/>
      <point x="98" y="603" type="curve"/>
      <point x="105" y="619"/>
      <point x="133" y="627"/>
      <point x="150" y="627" type="curve" smooth="yes"/>
      <point x="173" y="627"/>
      <point x="188" y="613"/>
    </contour>
    <contour>
      <point x="505" y="657" type="line"/>
      <point x="38" y="-10" type="line"/>
      <point x="79" y="-10" type="line"/>
      <point x="547" y="657" type="line"/>
    </contour>
    <contour>
      <point x="439" y="75" type="curve" smooth="yes"/>
      <point x="439" y="99" type="line"/>
      <point x="489" y="99" type="line"/>
      <point x="494" y="102"/>
      <point x="500.724" y="116.191"/>
      <point x="501" y="125" type="curve" smooth="yes"/>
      <point x="501.125" y="128.998"/>
      <point x="500" y="132"/>
      <point x="495" y="132" type="curve" smooth="yes"/>
      <point x="439" y="132" type="line"/>
      <point x="439" y="256" type="line" smooth="yes"/>
      <point x="439" y="265"/>
      <point x="439.982" y="303"/>
      <point x="443" y="316" type="curve"/>
      <point x="433" y="322" type="line"/>
      <point x="404" y="322" type="line" smooth="yes"/>
      <point x="397" y="322"/>
      <point x="391.097" y="320.097"/>
      <point x="387" y="316" type="curve" smooth="yes"/>
      <point x="384" y="313" type="line" smooth="yes"/>
      <point x="356.981" y="285.981"/>
      <point x="277.535" y="179.071"/>
      <point x="254" y="132" type="curve" smooth="yes"/>
      <point x="249" y="122" type="line"/>
      <point x="249" y="110"/>
      <point x="256" y="99"/>
      <point x="268" y="99" type="curve" smooth="yes"/>
      <point x="387" y="99" type="line"/>
      <point x="387" y="75" type="line" smooth="yes"/>
      <point x="387" y="33"/>
      <point x="374" y="30"/>
      <point x="334" y="28" type="curve"/>
      <point x="329" y="20"/>
      <point x="330" y="5"/>
      <point x="334" y="-1" type="curve"/>
      <point x="360" y="0"/>
      <point x="383" y="0"/>
      <point x="408" y="0" type="curve" smooth="yes"/>
      <point x="422" y="0" type="line" smooth="yes"/>
      <point x="452" y="0"/>
      <point x="460" y="0"/>
      <point x="490" y="-1" type="curve"/>
      <point x="494" y="6"/>
      <point x="494" y="20"/>
      <point x="490" y="28" type="curve"/>
      <point x="456" y="30"/>
      <point x="439" y="33"/>
    </contour>
    <contour>
      <point x="387" y="272" type="curve"/>
      <point x="387" y="132" type="line"/>
      <point x="289" y="132" type="line"/>
      <point x="296" y="150"/>
      <point x="348" y="223"/>
    </contour>
  </outline>
</glyph>
<glyph name="Oslash" format="2">
	<unicode hex="00D8"/>
	<advance width="702"/>
	<outline>
		<component base="O"/>
		<contour>
			<point x="166.551" y="135.35" type="line"/>
			<point x="194.551" y="94.3502" type="line"/>
			<point x="535.449" y="514.65" type="line"/>
			<point x="507.449" y="555.65" type="line"/>
		</contour>
		<contour>
			<point x="72" y="19" type="line"/>
			<point x="75" y="4"/>
			<point x="89" y="-13"/>
			<point x="108" y="-13" type="curve"/>
			<point x="169.459" y="62.6417" type="line"/>
			<point x="133.548" y="93.5683" type="line"/>
		</contour>
		<contour>
			<point x="532.606" y="585.306" type="line"/>
			<point x="567.584" y="554.324" type="line"/>
			<point x="627" y="628" type="line"/>
			<point x="625" y="643"/>
			<point x="610" y="658"/>
			<point x="591" y="658" type="curve"/>
		</contour>
	</outline>
	<anchor name="m.uni0302" x="351" y="850"/>
	<anchor name="m.uni0316_2" x="350" y="-110"/>
</glyph>
<glyph name="Thorn" format="2">
  <advance width="527"/>
  <unicode hex="00DE"/>
  <anchor x="281" y="850" name="m.uni0302"/>
  <outline>
    <contour>
      <point x="98" y="122" type="line" smooth="yes"/>
      <point x="98" y="39"/>
      <point x="81" y="34"/>
      <point x="11" y="31" type="curve"/>
      <point x="5" y="25"/>
      <point x="5" y="4"/>
      <point x="11" y="-2" type="curve"/>
      <point x="60" y="-1"/>
      <point x="90" y="0"/>
      <point x="141" y="0" type="curve" smooth="yes"/>
      <point x="191" y="0"/>
      <point x="220" y="-1"/>
      <point x="270" y="-2" type="curve"/>
      <point x="276" y="4"/>
      <point x="276" y="25"/>
      <point x="270" y="31" type="curve"/>
      <point x="200" y="34"/>
      <point x="183" y="39"/>
      <point x="183" y="122" type="curve" smooth="yes"/>
      <point x="183" y="159" type="line"/>
      <point x="198" y="154"/>
      <point x="224" y="150" name=".hr01"/>
      <point x="259" y="150" type="curve" smooth="yes"/>
      <point x="437" y="150"/>
      <point x="493" y="268"/>
      <point x="493" y="343" type="curve" smooth="yes"/>
      <point x="493" y="414"/>
      <point x="458" y="523"/>
      <point x="273" y="523" type="curve" smooth="yes"/>
      <point x="254" y="523"/>
      <point x="219" y="521"/>
      <point x="183" y="519" type="curve"/>
      <point x="183" y="523" type="line" smooth="yes"/>
      <point x="183" y="606"/>
      <point x="200" y="611"/>
      <point x="270" y="614" type="curve"/>
      <point x="276" y="620"/>
      <point x="276" y="641"/>
      <point x="270" y="647" type="curve" name=".hr02"/>
      <point x="221" y="646"/>
      <point x="191" y="645"/>
      <point x="140" y="645" type="curve" smooth="yes"/>
      <point x="90" y="645"/>
      <point x="61" y="646"/>
      <point x="11" y="647" type="curve"/>
      <point x="5" y="641"/>
      <point x="5" y="620"/>
      <point x="11" y="614" type="curve"/>
      <point x="81" y="611"/>
      <point x="98" y="606"/>
      <point x="98" y="523" type="curve" smooth="yes" name=".hr03"/>
    </contour>
    <contour>
      <point x="183" y="188" type="curve"/>
      <point x="183" y="479" type="line"/>
      <point x="204" y="485"/>
      <point x="253" y="490"/>
      <point x="272" y="490" type="curve" smooth="yes"/>
      <point x="331" y="490"/>
      <point x="400" y="463"/>
      <point x="400" y="343" type="curve" smooth="yes"/>
      <point x="400" y="214"/>
      <point x="326" y="183"/>
      <point x="254" y="183" type="curve" smooth="yes"/>
      <point x="216" y="183"/>
      <point x="192" y="185"/>
    </contour>
  </outline>
</glyph>
<glyph name="oslash" format="2">
  <advance width="504"/>
  <unicode hex="00F8"/>
  <anchor x="238" y="500" name="t.uni0302"/>
  <outline>
    <contour>
      <point x="38" y="-2" type="curve"/>
      <point x="40" y="-17"/>
      <point x="52" y="-28"/>
      <point x="68" y="-28" type="curve"/>
      <point x="141.381" y="61.3422"/>
      <point x="380.013" y="351.878"/>
      <point x="445" y="431" type="curve"/>
      <point x="441" y="444"/>
      <point x="431" y="454"/>
      <point x="414" y="454" type="curve"/>
      <point x="342.343" y="367.097"/>
      <point x="107.358" y="82.1147"/>
    </contour>
    <contour>
      <point x="41" y="213.574" type="curve" smooth="yes"/>
      <point x="41" y="103"/>
      <point x="109" y="-10"/>
      <point x="251" y="-10" type="curve" smooth="yes" name=".hr01"/>
      <point x="381" y="-10"/>
      <point x="463" y="87"/>
      <point x="463" y="212.972" type="curve" smooth="yes"/>
      <point x="463" y="318"/>
      <point x="406" y="439"/>
      <point x="258.09" y="439" type="curve" smooth="yes"/>
      <point x="119" y="439"/>
      <point x="41" y="332"/>
    </contour>
    <contour>
      <point x="246.785" y="404" type="curve" smooth="yes"/>
      <point x="324" y="404"/>
      <point x="377" y="326"/>
      <point x="377" y="182" type="curve" smooth="yes"/>
      <point x="377" y="56"/>
      <point x="312" y="25"/>
      <point x="261.935" y="25" type="curve" smooth="yes"/>
      <point x="161" y="25"/>
      <point x="127" y="151"/>
      <point x="127" y="231.099" type="curve" smooth="yes"/>
      <point x="127" y="315"/>
      <point x="164.305" y="404"/>
    </contour>
  </outline>
</glyph>
<glyph name="thorn" format="2">
  <advance width="502"/>
  <unicode hex="00FE"/>
  <anchor x="278" y="646" name="m.uni0302"/>
  <outline>
    <contour>
      <point x="164" y="-120" type="line"/>
      <point x="164" y="13.769" type="line"/>
      <point x="190.197" y="-3.828"/>
      <point x="221.827" y="-10"/>
      <point x="253" y="-10" type="curve" smooth="yes"/>
      <point x="387.214" y="-10"/>
      <point x="465" y="110.42"/>
      <point x="465" y="235" type="curve" smooth="yes"/>
      <point x="465" y="329.428"/>
      <point x="399.379" y="439"/>
      <point x="295" y="439" type="curve" smooth="yes"/>
      <point x="209.73" y="439"/>
      <point x="174.395" y="389.273"/>
      <point x="164" y="372.412" type="curve"/>
      <point x="164" y="586" type="line"/>
      <point x="84" y="586" type="line"/>
      <point x="84" y="-120" type="line"/>
    </contour>
    <contour>
      <point x="162" y="288" type="line" smooth="yes"/>
      <point x="162" y="358"/>
      <point x="236" y="393"/>
      <point x="269" y="393" type="curve" smooth="yes"/>
      <point x="357.173" y="393"/>
      <point x="379" y="275.694"/>
      <point x="379" y="208" type="curve" smooth="yes"/>
      <point x="379" y="121"/>
      <point x="354" y="24"/>
      <point x="248" y="24" type="curve" smooth="yes"/>
      <point x="198.549" y="24"/>
      <point x="162" y="46.962"/>
      <point x="162" y="98" type="curve" smooth="yes"/>
    </contour>
    <contour>
      <point x="83.9615" y="575.93" type="curve"/>
      <point x="163.962" y="575.93" type="line"/>
      <point x="163.962" y="627.055"/>
      <point x="165.027" y="657.662"/>
      <point x="167.962" y="690.93" type="curve"/>
      <point x="167.962" y="695.083"/>
      <point x="162.676" y="697.93"/>
      <point x="154.962" y="697.93" type="curve"/>
      <point x="122.58" y="685.208"/>
      <point x="61.8825" y="672.453"/>
      <point x="16.9615" y="668.93" type="curve"/>
      <point x="15.3325" y="663.23"/>
      <point x="16.3705" y="648.702"/>
      <point x="18.9615" y="640.93" type="curve"/>
      <point x="75.9615" y="635.93"/>
      <point x="83.9615" y="627.93"/>
    </contour>
    <contour>
      <point x="12" y="-234" type="curve"/>
      <point x="45" y="-233"/>
      <point x="89" y="-232"/>
      <point x="129" y="-232" type="curve"/>
      <point x="129" y="-110" type="line"/>
      <point x="84" y="-110" type="line"/>
      <point x="84" y="-192"/>
      <point x="73" y="-197"/>
      <point x="12" y="-201" type="curve"/>
      <point x="6" y="-207"/>
      <point x="6" y="-228"/>
    </contour>
    <contour>
      <point x="119" y="-232" type="line"/>
      <point x="159" y="-232"/>
      <point x="203" y="-233"/>
      <point x="236" y="-234" type="curve"/>
      <point x="242" y="-228"/>
      <point x="242" y="-207"/>
      <point x="236" y="-201" type="curve"/>
      <point x="175" y="-197"/>
      <point x="164" y="-192"/>
      <point x="164" y="-110" type="curve"/>
      <point x="119" y="-110" type="line"/>
    </contour>
  </outline>
</glyph>
<glyph name="dcroat" format="2">
  <advance width="506"/>
  <unicode hex="0111"/>
  <outline>
    <component base="d"/>
    <contour>
      <point x="199.505" y="533" type="curve" smooth="yes"/>
      <point x="380.349" y="533" type="line"/>
      <point x="380.349" y="572" type="line"/>
      <point x="207.505" y="572" type="line" smooth="yes"/>
      <point x="198.505" y="572"/>
      <point x="188.505" y="557"/>
      <point x="188.505" y="547" type="curve" smooth="yes"/>
      <point x="188.505" y="541"/>
      <point x="191.505" y="533"/>
    </contour>
    <contour>
      <point x="342.268" y="533" type="line"/>
      <point x="475" y="533" type="line" smooth="yes"/>
      <point x="487" y="533"/>
      <point x="496" y="548"/>
      <point x="496" y="559" type="curve" smooth="yes"/>
      <point x="496" y="564"/>
      <point x="493" y="572"/>
      <point x="484" y="572" type="curve" smooth="yes"/>
      <point x="342.234" y="572" type="line"/>
    </contour>
  </outline>
</glyph>
<glyph name="Hbar" format="2">
  <advance width="730"/>
  <unicode hex="0126"/>
  <outline>
    <component base="H"/>
    <contour>
      <point x="39" y="507" type="curve" smooth="yes"/>
      <point x="219.844" y="507" type="line"/>
      <point x="219.844" y="546" type="line"/>
      <point x="47" y="546" type="line" smooth="yes"/>
      <point x="38" y="546"/>
      <point x="28" y="531"/>
      <point x="28" y="521" type="curve" smooth="yes"/>
      <point x="28" y="515"/>
      <point x="31" y="507"/>
    </contour>
    <contour>
      <point x="547.495" y="546" type="line"/>
      <point x="176.437" y="546" type="line"/>
      <point x="176.437" y="507" type="line"/>
      <point x="547.495" y="507" type="line"/>
    </contour>
    <contour>
      <point x="526.268" y="507" type="line"/>
      <point x="659" y="507" type="line" smooth="yes"/>
      <point x="671" y="507"/>
      <point x="680" y="522"/>
      <point x="680" y="533" type="curve" smooth="yes"/>
      <point x="680" y="538"/>
      <point x="677" y="546"/>
      <point x="668" y="546" type="curve" smooth="yes"/>
      <point x="526.234" y="546" type="line"/>
    </contour>
  </outline>
  <guideline angle="0" x="0" y="540"/>
  <guideline angle="0" x="0" y="492"/>
</glyph>
<glyph name="hbar" format="2">
  <advance width="538"/>
  <unicode hex="0127"/>
  <outline>
    <contour>
      <point x="23" y="-2" type="curve"/>
      <point x="53" y="-1"/>
      <point x="93" y="0"/>
      <point x="133" y="0" type="curve" smooth="yes"/>
      <point x="173" y="0"/>
      <point x="204" y="-1"/>
      <point x="234" y="-2" type="curve"/>
      <point x="240" y="4"/>
      <point x="240" y="25"/>
      <point x="234" y="31" type="curve"/>
      <point x="183" y="36"/>
      <point x="173" y="40"/>
      <point x="173" y="122" type="curve"/>
      <point x="93" y="122" type="line"/>
      <point x="93" y="40"/>
      <point x="83" y="36"/>
      <point x="23" y="31" type="curve"/>
      <point x="17" y="25"/>
      <point x="17" y="4"/>
    </contour>
    <contour>
      <point x="320" y="-2" type="curve"/>
      <point x="350" y="-1"/>
      <point x="382" y="0"/>
      <point x="422" y="0" type="curve" smooth="yes"/>
      <point x="462" y="0"/>
      <point x="499" y="-1"/>
      <point x="529" y="-2" type="curve"/>
      <point x="534" y="4"/>
      <point x="534" y="25"/>
      <point x="529" y="31" type="curve"/>
      <point x="473" y="36"/>
      <point x="462" y="40"/>
      <point x="462" y="122" type="curve"/>
      <point x="382" y="122" type="line"/>
      <point x="382" y="40"/>
      <point x="372" y="36"/>
      <point x="320" y="31" type="curve"/>
      <point x="315" y="25"/>
      <point x="315" y="4"/>
    </contour>
    <contour>
      <point x="37" y="530" type="curve" smooth="yes"/>
      <point x="217.844" y="530" type="line"/>
      <point x="217.844" y="569" type="line"/>
      <point x="45" y="569" type="line" smooth="yes"/>
      <point x="36" y="569"/>
      <point x="26" y="554"/>
      <point x="26" y="544" type="curve" smooth="yes"/>
      <point x="26" y="538"/>
      <point x="29" y="530"/>
    </contour>
    <contour>
      <point x="173" y="122" type="line"/>
      <point x="173" y="576" type="line"/>
      <point x="93" y="576" type="line"/>
      <point x="93" y="122" type="line"/>
    </contour>
    <contour>
      <point x="462" y="122" type="line"/>
      <point x="462" y="271" type="line" smooth="yes"/>
      <point x="462" y="391.203"/>
      <point x="430.42" y="439"/>
      <point x="351" y="439" type="curve" smooth="yes"/>
      <point x="298.235" y="439"/>
      <point x="233.298" y="403.302"/>
      <point x="160" y="334" type="curve"/>
      <point x="162" y="298" type="line"/>
      <point x="210.65" y="355.612"/>
      <point x="265.315" y="387"/>
      <point x="317" y="387" type="curve" smooth="yes"/>
      <point x="358.367" y="387"/>
      <point x="382" y="345.915"/>
      <point x="382" y="274" type="curve" smooth="yes"/>
      <point x="382" y="122" type="line"/>
    </contour>
    <contour>
      <point x="93.0385" y="576" type="curve"/>
      <point x="173.038" y="576" type="line"/>
      <point x="173.038" y="626"/>
      <point x="174.038" y="657"/>
      <point x="177.038" y="691" type="curve"/>
      <point x="177.038" y="695"/>
      <point x="172.038" y="698"/>
      <point x="164.038" y="698" type="curve"/>
      <point x="136.038" y="687"/>
      <point x="77.0385" y="673"/>
      <point x="26.0385" y="669" type="curve"/>
      <point x="24.0385" y="662"/>
      <point x="26.0385" y="647"/>
      <point x="28.0385" y="641" type="curve"/>
      <point x="84.6885" y="635.85"/>
      <point x="93.0385" y="627.5"/>
    </contour>
    <contour>
      <point x="178.268" y="530" type="line"/>
      <point x="311" y="530" type="line" smooth="yes"/>
      <point x="323" y="530"/>
      <point x="332" y="545"/>
      <point x="332" y="556" type="curve" smooth="yes"/>
      <point x="332" y="561"/>
      <point x="329" y="569"/>
      <point x="320" y="569" type="curve" smooth="yes"/>
      <point x="178.234" y="569" type="line"/>
    </contour>
  </outline>
</glyph>
<glyph name="iogonek" format="2">
  <advance width="271"/>
  <unicode hex="012F"/>
  <anchor x="132" y="825" name="m.uni0302"/>
  <outline>
    <component base="ogonek" xOffset="-7.5"/>
    <contour>
      <point x="30" y="-2" type="curve"/>
      <point x="63" y="-1"/>
      <point x="102" y="0"/>
      <point x="142" y="0" type="curve" smooth="yes"/>
      <point x="182" y="0"/>
      <point x="221" y="-1"/>
      <point x="254" y="-2" type="curve"/>
      <point x="260" y="4"/>
      <point x="260" y="25"/>
      <point x="254" y="31" type="curve"/>
      <point x="193" y="35"/>
      <point x="182" y="40"/>
      <point x="182" y="122" type="curve"/>
      <point x="102" y="122" type="line"/>
      <point x="102" y="40"/>
      <point x="91" y="35"/>
      <point x="30" y="31" type="curve"/>
      <point x="24" y="25"/>
      <point x="24" y="4"/>
    </contour>
    <contour>
      <point x="102" y="320" type="curve"/>
      <point x="182" y="320" type="line"/>
      <point x="182" y="370"/>
      <point x="183" y="401"/>
      <point x="186" y="435" type="curve"/>
      <point x="186" y="439"/>
      <point x="181" y="442"/>
      <point x="173" y="442" type="curve"/>
      <point x="145" y="431"/>
      <point x="86" y="417"/>
      <point x="35" y="413" type="curve"/>
      <point x="33" y="406"/>
      <point x="35" y="391"/>
      <point x="37" y="385" type="curve"/>
      <point x="93.65" y="379.85"/>
      <point x="102" y="371.5"/>
    </contour>
    <contour>
      <point x="102" y="122" type="line"/>
      <point x="182" y="122" type="line"/>
      <point x="182" y="320" type="line"/>
      <point x="102" y="320" type="line"/>
    </contour>
    <contour>
      <point x="90" y="597" type="curve" smooth="yes"/>
      <point x="90" y="569"/>
      <point x="112" y="547"/>
      <point x="140" y="547" type="curve" smooth="yes"/>
      <point x="168" y="547"/>
      <point x="190" y="569"/>
      <point x="190" y="597" type="curve" smooth="yes"/>
      <point x="190" y="625"/>
      <point x="168" y="647"/>
      <point x="140" y="647" type="curve" smooth="yes"/>
      <point x="112" y="647"/>
      <point x="90" y="625"/>
    </contour>
  </outline>
</glyph>
<glyph name="Idotaccent" format="2">
  <advance width="297"/>
  <unicode hex="0130"/>
  <outline>
    <component base="I"/>
    <contour>
      <point x="97" y="753" type="curve" smooth="yes"/>
      <point x="97" y="725"/>
      <point x="121" y="701"/>
      <point x="149" y="701" type="curve" smooth="yes"/>
      <point x="177" y="701"/>
      <point x="201" y="725"/>
      <point x="201" y="753" type="curve" smooth="yes"/>
      <point x="201" y="781"/>
      <point x="177" y="805"/>
      <point x="149" y="805" type="curve" smooth="yes"/>
      <point x="121" y="805"/>
      <point x="97" y="781"/>
    </contour>
  </outline>
</glyph>
<glyph name="dotlessi" format="2">
  <advance width="272"/>
  <unicode hex="0131"/>
  <anchor x="124" y="500" name="t.uni0302"/>
  <anchor x="139" y="-108" name="m.uni0316_2"/>
  <outline>
    <contour>
      <point x="30" y="-2" type="curve"/>
      <point x="63" y="-1"/>
      <point x="107" y="0"/>
      <point x="147" y="0" type="curve"/>
      <point x="147" y="122" type="line"/>
      <point x="102" y="122" type="line"/>
      <point x="102" y="40"/>
      <point x="91" y="35"/>
      <point x="30" y="31" type="curve"/>
      <point x="24" y="25"/>
      <point x="24" y="4"/>
    </contour>
    <contour>
      <point x="102" y="320" type="curve"/>
      <point x="182" y="320" type="line"/>
      <point x="182" y="371.125"/>
      <point x="183.065" y="401.732"/>
      <point x="186" y="435" type="curve"/>
      <point x="186" y="439.154"/>
      <point x="180.714" y="442"/>
      <point x="173" y="442" type="curve"/>
      <point x="140.618" y="429.278"/>
      <point x="79.921" y="416.523"/>
      <point x="35" y="413" type="curve"/>
      <point x="33.371" y="407.3"/>
      <point x="34.409" y="392.773"/>
      <point x="37" y="385" type="curve"/>
      <point x="94" y="380"/>
      <point x="102" y="372"/>
    </contour>
    <contour>
      <point x="102" y="110" type="line"/>
      <point x="182" y="110" type="line"/>
      <point x="182" y="330" type="line"/>
      <point x="102" y="330" type="line"/>
    </contour>
    <contour>
      <point x="137" y="0" type="line"/>
      <point x="177" y="0"/>
      <point x="221" y="-1"/>
      <point x="254" y="-2" type="curve"/>
      <point x="260" y="4"/>
      <point x="260" y="25"/>
      <point x="254" y="31" type="curve"/>
      <point x="193" y="35"/>
      <point x="182" y="40"/>
      <point x="182" y="122" type="curve"/>
      <point x="137" y="122" type="line"/>
    </contour>
  </outline>
</glyph>
<glyph name="Lcaron" format="2">
	<unicode hex="013D"/>
	<advance width="528"/>
	<outline>
		<component base="L"/>
		<contour>
			<point x="400" y="698" type="curve" smooth="yes"/>
			<point x="370" y="698"/>
			<point x="356" y="680"/>
			<point x="356" y="664" type="curve" smooth="yes"/>
			<point x="356" y="648"/>
			<point x="361" y="626"/>
			<point x="402" y="626" type="curve" smooth="yes"/>
			<point x="410" y="626"/>
			<point x="416" y="618"/>
			<point x="416" y="605" type="curve" smooth="yes"/>
			<point x="416" y="582"/>
			<point x="395" y="545"/>
			<point x="353" y="536" type="curve"/>
			<point x="358" y="519" type="line"/>
			<point x="428" y="527"/>
			<point x="460" y="589"/>
			<point x="460" y="625" type="curve" smooth="yes"/>
			<point x="460" y="661"/>
			<point x="438" y="698"/>
		</contour>
	</outline>
</glyph>
<glyph name="Ldot" format="2">
	<unicode hex="013F"/>
	<advance width="528"/>
	<outline>
		<component base="L"/>
		<contour>
			<point x="289" y="335" type="curve" smooth="yes"/>
			<point x="289" y="307"/>
			<point x="313" y="283"/>
			<point x="341" y="283" type="curve" smooth="yes"/>
			<point x="369" y="283"/>
			<point x="393" y="307"/>
			<point x="393" y="335" type="curve" smooth="yes"/>
			<point x="393" y="363"/>
			<point x="369" y="387"/>
			<point x="341" y="387" type="curve" smooth="yes"/>
			<point x="313" y="387"/>
			<point x="289" y="363"/>
		</contour>
	</outline>
</glyph>
<glyph name="Lslash" format="2">
	<unicode hex="0141"/>
	<advance width="528"/>
	<outline>
		<component base="L"/>
		<contour>
			<point x="178.006" y="332.507" type="line"/>
			<point x="328" y="419" type="line"/>
			<point x="310" y="449" type="line"/>
			<point x="177.976" y="373.558" type="line"/>
		</contour>
		<contour>
			<point x="23" y="244" type="line"/>
			<point x="118.985" y="299.509" type="line"/>
			<point x="119.008" y="340.47" type="line"/>
			<point x="5" y="275" type="line"/>
		</contour>
	</outline>
</glyph>
<glyph name="lslash" format="2">
	<unicode hex="0142"/>
	<advance width="264"/>
	<outline>
		<component base="l"/>
		<contour>
			<point x="23" y="270" type="line"/>
			<point x="107.957" y="319.558" type="line"/>
			<point x="107.951" y="358.567" type="line"/>
			<point x="6" y="299" type="line"/>
		</contour>
		<contour>
			<point x="161.032" y="350.461" type="line"/>
			<point x="260" y="408" type="line"/>
			<point x="243" y="438" type="line"/>
			<point x="161.023" y="390.477" type="line"/>
		</contour>
	</outline>
</glyph>
<glyph name="Eng" format="2">
  <advance width="668"/>
  <unicode hex="014A"/>
  <anchor x="346" y="804" name="m.uni0302"/>
  <anchor x="353" y="-109" name="m.uni0316_2"/>
  <outline>
    <contour>
      <point x="618" y="113" type="curve" smooth="yes"/>
      <point x="618" y="329" type="line" smooth="yes"/>
      <point x="618" y="546.348"/>
      <point x="548.09" y="658"/>
      <point x="412" y="658" type="curve" smooth="yes"/>
      <point x="333.783" y="658"/>
      <point x="246.575" y="601.177"/>
      <point x="191" y="514" type="curve"/>
      <point x="191" y="532" type="line" smooth="yes"/>
      <point x="191" y="567.75"/>
      <point x="192.8" y="615"/>
      <point x="195" y="637" type="curve"/>
      <point x="195" y="643.962"/>
      <point x="191.05" y="647"/>
      <point x="182" y="647" type="curve"/>
      <point x="173.625" y="645.604"/>
      <point x="167.281" y="645"/>
      <point x="161" y="645" type="curve" smooth="yes"/>
      <point x="148" y="645" type="line" smooth="yes"/>
      <point x="98" y="645"/>
      <point x="69" y="646"/>
      <point x="19" y="647" type="curve"/>
      <point x="13.215" y="641.215"/>
      <point x="13.215" y="619.785"/>
      <point x="19" y="614" type="curve"/>
      <point x="95.371" y="610.727"/>
      <point x="106" y="599.609"/>
      <point x="106" y="523" type="curve" smooth="yes"/>
      <point x="106" y="122" type="line" smooth="yes"/>
      <point x="106" y="45.391"/>
      <point x="95.371" y="34.273"/>
      <point x="19" y="31" type="curve"/>
      <point x="12.882" y="24.882"/>
      <point x="12.774" y="4.226"/>
      <point x="19" y="-2" type="curve"/>
      <point x="68" y="-1"/>
      <point x="98" y="0"/>
      <point x="149" y="0" type="curve" smooth="yes"/>
      <point x="165" y="0" type="line" smooth="yes"/>
      <point x="206" y="0"/>
      <point x="234" y="-1"/>
      <point x="278" y="-2" type="curve"/>
      <point x="283.785" y="3.785"/>
      <point x="283.785" y="25.215"/>
      <point x="278" y="31" type="curve"/>
      <point x="201.629" y="34.273"/>
      <point x="191" y="45.391"/>
      <point x="191" y="122" type="curve" smooth="yes"/>
      <point x="191" y="447" type="line"/>
      <point x="204.111" y="519.11"/>
      <point x="303.044" y="602"/>
      <point x="376" y="602" type="curve" smooth="yes"/>
      <point x="481.746" y="602"/>
      <point x="528" y="521.968"/>
      <point x="528" y="339" type="curve" smooth="yes"/>
      <point x="528" y="81" type="line" smooth="yes"/>
      <point x="528" y="-46.479"/>
      <point x="497.417" y="-127"/>
      <point x="449" y="-127" type="curve" smooth="yes"/>
      <point x="429.712" y="-127"/>
      <point x="417.098" y="-120.828"/>
      <point x="408" y="-109" type="curve" smooth="yes"/>
      <point x="398" y="-96"/>
      <point x="394" y="-75"/>
      <point x="363" y="-75" type="curve" smooth="yes"/>
      <point x="344.744" y="-75"/>
      <point x="319" y="-100.159"/>
      <point x="319" y="-118" type="curve" smooth="yes"/>
      <point x="319" y="-143.92"/>
      <point x="358" y="-172"/>
      <point x="394" y="-172" type="curve" smooth="yes"/>
      <point x="444.163" y="-172"/>
      <point x="474.065" y="-161.011"/>
      <point x="511" y="-129" type="curve" smooth="yes"/>
      <point x="526" y="-116" type="line" smooth="yes"/>
      <point x="586.794" y="-63.312"/>
      <point x="618" y="14.364"/>
    </contour>
  </outline>
</glyph>
<glyph name="eng" format="2">
  <advance width="500"/>
  <unicode hex="014B"/>
  <anchor x="261" y="646" name="m.uni0302"/>
  <anchor x="262" y="-111" name="m.uni0316_2"/>
  <outline>
    <contour>
      <point x="23" y="-2" type="curve"/>
      <point x="53" y="-1"/>
      <point x="93" y="0"/>
      <point x="133" y="0" type="curve" smooth="yes"/>
      <point x="173" y="0"/>
      <point x="204" y="-1"/>
      <point x="234" y="-2" type="curve"/>
      <point x="240" y="4"/>
      <point x="240" y="25"/>
      <point x="234" y="31" type="curve"/>
      <point x="183" y="36"/>
      <point x="173" y="40"/>
      <point x="173" y="122" type="curve"/>
      <point x="93" y="122" type="line"/>
      <point x="93" y="40"/>
      <point x="83" y="36"/>
      <point x="23" y="31" type="curve"/>
      <point x="17" y="25"/>
      <point x="17" y="4"/>
    </contour>
    <contour>
      <point x="247" y="-142" type="curve" smooth="yes"/>
      <point x="228.052" y="-142"/>
      <point x="215" y="-157.663"/>
      <point x="215" y="-180" type="curve" smooth="yes"/>
      <point x="215" y="-203.802"/>
      <point x="239.684" y="-223"/>
      <point x="270" y="-223" type="curve" smooth="yes"/>
      <point x="454" y="-223"/>
      <point x="456" y="-18"/>
      <point x="456" y="122" type="curve"/>
      <point x="376" y="122" type="line"/>
      <point x="376" y="69"/>
      <point x="380" y="-28"/>
      <point x="380" y="-71" type="curve" smooth="yes"/>
      <point x="380" y="-135"/>
      <point x="370" y="-179"/>
      <point x="322" y="-179" type="curve" smooth="yes"/>
      <point x="282.407" y="-179"/>
      <point x="283.548" y="-142"/>
    </contour>
    <contour>
      <point x="93" y="316" type="curve"/>
      <point x="173" y="336" type="line"/>
      <point x="173" y="369.727"/>
      <point x="167" y="422"/>
      <point x="161" y="434" type="curve" smooth="yes"/>
      <point x="158.51" y="438.981"/>
      <point x="154.827" y="442"/>
      <point x="149" y="442" type="curve"/>
      <point x="111.865" y="427.411"/>
      <point x="81.3775" y="420.223"/>
      <point x="26" y="413" type="curve"/>
      <point x="24.3529" y="408.059"/>
      <point x="25.4545" y="392.636"/>
      <point x="28" y="385" type="curve"/>
      <point x="85.4123" y="379.684"/>
      <point x="93" y="370.746"/>
    </contour>
    <contour>
      <point x="93" y="122" type="line"/>
      <point x="173" y="122" type="line"/>
      <point x="173" y="336" type="line"/>
      <point x="93" y="316" type="line"/>
    </contour>
    <contour>
      <point x="376" y="122" type="line"/>
      <point x="456" y="122" type="line"/>
      <point x="456" y="271" type="line" smooth="yes"/>
      <point x="456" y="390.446"/>
      <point x="423.92" y="439"/>
      <point x="345" y="439" type="curve" smooth="yes"/>
      <point x="289.262" y="439"/>
      <point x="223.772" y="392.636"/>
      <point x="161" y="336" type="curve"/>
      <point x="173" y="311" type="line"/>
      <point x="229.831" y="362.919"/>
      <point x="267.908" y="387"/>
      <point x="304.531" y="387" type="curve" smooth="yes"/>
      <point x="352.367" y="387"/>
      <point x="376" y="345.915"/>
      <point x="376" y="274" type="curve" smooth="yes"/>
    </contour>
  </outline>
</glyph>
<glyph name="OE" format="2">
  <advance width="864"/>
  <unicode hex="0152"/>
  <anchor x="454" y="850" name="m.uni0302"/>
  <outline>
    <contour>
      <point x="352" y="-2" type="curve" smooth="yes"/>
      <point x="358" y="-2"/>
      <point x="415" y="0"/>
      <point x="455" y="0" type="curve"/>
      <point x="455" y="645" type="line"/>
      <point x="418" y="645"/>
      <point x="364" y="646"/>
      <point x="346" y="646" type="curve" smooth="yes"/>
      <point x="160" y="646"/>
      <point x="36" y="498"/>
      <point x="36" y="318" type="curve" smooth="yes"/>
      <point x="36" y="138"/>
      <point x="164" y="-2"/>
    </contour>
    <contour>
      <point x="350" y="32" type="line" smooth="yes"/>
      <point x="247" y="32"/>
      <point x="130" y="120"/>
      <point x="130" y="327" type="curve" smooth="yes"/>
      <point x="130" y="541"/>
      <point x="231" y="611"/>
      <point x="328" y="611" type="curve" smooth="yes"/>
      <point x="363" y="611" type="line" smooth="yes"/>
      <point x="401" y="611"/>
      <point x="412" y="605"/>
      <point x="412" y="574" type="curve"/>
      <point x="411" y="72" type="line"/>
      <point x="411" y="44"/>
      <point x="403" y="32"/>
      <point x="363" y="32" type="curve" smooth="yes"/>
    </contour>
    <contour>
      <point x="455" y="0" type="line"/>
      <point x="670" y="0" type="line" smooth="yes"/>
      <point x="718" y="0"/>
      <point x="790" y="-2"/>
      <point x="798" y="-2" type="curve"/>
      <point x="812" y="48"/>
      <point x="827" y="114"/>
      <point x="835" y="165" type="curve"/>
      <point x="825" y="171"/>
      <point x="813" y="173"/>
      <point x="800" y="170" type="curve"/>
      <point x="780" y="98"/>
      <point x="745" y="39"/>
      <point x="669" y="39" type="curve" smooth="yes"/>
      <point x="553" y="39" type="line" smooth="yes"/>
      <point x="511" y="39"/>
      <point x="497" y="55"/>
      <point x="497" y="102" type="curve" smooth="yes"/>
      <point x="497" y="541" type="line" smooth="yes"/>
      <point x="497" y="585"/>
      <point x="509" y="605"/>
      <point x="563" y="605" type="curve" smooth="yes"/>
      <point x="638" y="605" type="line" smooth="yes"/>
      <point x="713" y="605"/>
      <point x="729" y="565"/>
      <point x="751" y="496" type="curve"/>
      <point x="763" y="494"/>
      <point x="774" y="496"/>
      <point x="784" y="501" type="curve"/>
      <point x="779" y="542"/>
      <point x="764" y="638"/>
      <point x="762" y="646" type="curve"/>
      <point x="762" y="648"/>
      <point x="761" y="649"/>
      <point x="758" y="649" type="curve"/>
      <point x="741" y="646"/>
      <point x="733" y="645"/>
      <point x="709" y="645" type="curve" smooth="yes"/>
      <point x="455" y="645" type="line"/>
    </contour>
    <contour>
      <point x="565" y="368" type="curve" smooth="yes"/>
      <point x="459" y="368" type="line"/>
      <point x="459" y="330" type="line"/>
      <point x="565" y="330" type="line" smooth="yes"/>
      <point x="650" y="330"/>
      <point x="653" y="307"/>
      <point x="656" y="262" type="curve"/>
      <point x="662" y="256"/>
      <point x="683" y="256"/>
      <point x="689" y="262" type="curve"/>
      <point x="688" y="288"/>
      <point x="687" y="316"/>
      <point x="687" y="350" type="curve" smooth="yes"/>
      <point x="687" y="378"/>
      <point x="688" y="412"/>
      <point x="689" y="436" type="curve"/>
      <point x="683" y="442"/>
      <point x="662" y="442"/>
      <point x="656" y="436" type="curve"/>
      <point x="653" y="381"/>
      <point x="650" y="368"/>
    </contour>
  </outline>
</glyph>
<glyph name="oe" format="2">
	<unicode hex="0153"/>
	<advance width="778"/>
	<outline>
		<contour>
			<point x="34" y="206" type="curve" smooth="yes"/>
			<point x="34" y="80.2268"/>
			<point x="119.632" y="-10"/>
			<point x="239" y="-10" type="curve" smooth="yes"/>
			<point x="310.432" y="-10"/>
			<point x="363.535" y="18.5694"/>
			<point x="403" y="79" type="curve"/>
			<point x="444.48" y="16.7801"/>
			<point x="493.081" y="-10"/>
			<point x="571" y="-10" type="curve" smooth="yes"/>
			<point x="666" y="-10"/>
			<point x="712" y="42"/>
			<point x="734" y="72" type="curve"/>
			<point x="729" y="80"/>
			<point x="723" y="86"/>
			<point x="712" y="87" type="curve"/>
			<point x="681" y="54"/>
			<point name=".hr01" x="620" y="37"/>
			<point x="582" y="37" type="curve" smooth="yes"/>
			<point x="543" y="37"/>
			<point x="450" y="84"/>
			<point x="450" y="218" type="curve" smooth="yes"/>
			<point x="450" y="228"/>
			<point x="450" y="239"/>
			<point x="451" y="248" type="curve"/>
			<point x="702" y="248" type="line" smooth="yes"/>
			<point x="715" y="248"/>
			<point x="728" y="248"/>
			<point x="741" y="248" type="curve"/>
			<point x="741" y="365"/>
			<point x="688" y="439"/>
			<point x="570" y="439" type="curve" smooth="yes"/>
			<point x="502" y="439"/>
			<point x="443" y="399"/>
			<point x="409" y="349" type="curve"/>
			<point x="370.907" y="412.942"/>
			<point x="322.844" y="439"/>
			<point x="243" y="439" type="curve" smooth="yes"/>
			<point x="117.974" y="439"/>
			<point x="34" y="345.383"/>
		</contour>
		<contour>
			<point x="242" y="406" type="curve" smooth="yes"/>
			<point name=".hr02" x="310.723" y="406"/>
			<point x="367" y="313.256"/>
			<point x="367" y="200" type="curve" smooth="yes"/>
			<point x="367" y="93.4254"/>
			<point x="322.426" y="25"/>
			<point x="253" y="25" type="curve" smooth="yes"/>
			<point x="171.682" y="25"/>
			<point x="120" y="107.38"/>
			<point x="120" y="237" type="curve" smooth="yes"/>
			<point x="120" y="342.84"/>
			<point x="165.595" y="406"/>
		</contour>
		<contour>
			<point x="454" y="287" type="line"/>
			<point x="459.659" y="343.587"/>
			<point x="507.85" y="405"/>
			<point x="568" y="405" type="curve" smooth="yes"/>
			<point name=".hr03" x="631" y="405"/>
			<point x="649" y="352"/>
			<point x="653" y="310" type="curve"/>
			<point x="654" y="302"/>
			<point x="655" y="294"/>
			<point x="655" y="287" type="curve"/>
		</contour>
	</outline>
	<anchor name="m.uni0302" x="405" y="645"/>
	<anchor name="b.uni0321_4" x="361" y="41"/>
</glyph>
<glyph name="Tbar" format="2">
  <advance width="597"/>
  <unicode hex="0166"/>
  <outline>
    <component base="T"/>
    <contour>
      <point x="322" y="321" type="line"/>
      <point x="322" y="360" type="line"/>
      <point x="149" y="360" type="line" smooth="yes"/>
      <point x="140" y="360"/>
      <point x="130" y="345"/>
      <point x="130" y="335" type="curve" smooth="yes"/>
      <point x="130" y="329"/>
      <point x="133" y="321"/>
      <point x="141" y="321" type="curve" smooth="yes"/>
    </contour>
    <contour>
      <point x="344" y="321" type="line"/>
      <point x="477" y="321" type="line" smooth="yes"/>
      <point x="489" y="321"/>
      <point x="498" y="336"/>
      <point x="498" y="347" type="curve" smooth="yes"/>
      <point x="498" y="352"/>
      <point x="495" y="360"/>
      <point x="486" y="360" type="curve" smooth="yes"/>
      <point x="344" y="360" type="line"/>
    </contour>
  </outline>
</glyph>
<glyph name="tbar" format="2">
  <advance width="316"/>
  <unicode hex="0167"/>
  <outline>
    <contour>
      <point x="65" y="429" type="line" smooth="yes"/>
      <point x="51" y="429"/>
      <point x="35" y="422"/>
      <point x="25" y="414" type="curve"/>
      <point x="25" y="396" type="line" smooth="yes"/>
      <point x="25" y="391"/>
      <point x="26" y="390"/>
      <point x="30" y="390" type="curve" smooth="yes"/>
      <point x="89" y="390" type="line"/>
      <point x="89" y="89" type="line" smooth="yes"/>
      <point x="89" y="18"/>
      <point x="121" y="-10"/>
      <point x="167" y="-10" type="curve" smooth="yes"/>
      <point x="213" y="-10"/>
      <point x="263" y="12"/>
      <point x="302" y="56" type="curve"/>
      <point x="300" y="66"/>
      <point x="294" y="72"/>
      <point x="284" y="73" type="curve"/>
      <point x="258" y="53"/>
      <point x="228" y="45"/>
      <point x="202" y="45" type="curve" smooth="yes"/>
      <point x="175" y="45"/>
      <point x="169" y="75"/>
      <point x="169" y="137" type="curve" smooth="yes"/>
      <point x="169" y="390" type="line"/>
      <point x="273" y="390" type="line" smooth="yes"/>
      <point x="283" y="390"/>
      <point x="297" y="394"/>
      <point x="297" y="403" type="curve" smooth="yes"/>
      <point x="297" y="423" type="line" smooth="yes"/>
      <point x="297" y="427"/>
      <point x="294" y="429"/>
      <point x="289" y="429" type="curve" smooth="yes"/>
      <point x="169" y="429" type="line"/>
      <point x="170" y="468" type="line" smooth="yes"/>
      <point x="171.667" y="533.009"/>
      <point x="177" y="569"/>
      <point x="177" y="573" type="curve" smooth="yes"/>
      <point x="177" y="579"/>
      <point x="174" y="582"/>
      <point x="169" y="582" type="curve" smooth="yes"/>
      <point x="164" y="582"/>
      <point x="97" y="552"/>
      <point x="95" y="545" type="curve"/>
      <point x="92" y="532"/>
      <point x="89" y="487"/>
      <point x="89" y="429" type="curve"/>
    </contour>
    <contour>
      <point x="210" y="246" type="line"/>
      <point x="210" y="285" type="line"/>
      <point x="37" y="285" type="line" smooth="yes"/>
      <point x="28" y="285"/>
      <point x="18" y="270"/>
      <point x="18" y="260" type="curve" smooth="yes"/>
      <point x="18" y="254"/>
      <point x="21" y="246"/>
      <point x="29" y="246" type="curve" smooth="yes"/>
    </contour>
    <contour>
      <point x="128" y="246" type="line"/>
      <point x="261" y="246" type="line" smooth="yes"/>
      <point x="273" y="246"/>
      <point x="282" y="261"/>
      <point x="282" y="272" type="curve" smooth="yes"/>
      <point x="282" y="277"/>
      <point x="279" y="285"/>
      <point x="270" y="285" type="curve" smooth="yes"/>
      <point x="128" y="285" type="line"/>
    </contour>
  </outline>
</glyph>
<glyph name="longs" format="2">
  <advance width="291"/>
  <unicode hex="017F"/>
  <anchor x="233" y="740" name="t.uni0302"/>
  <outline>
    <contour>
      <point x="173" y="122" type="curve" smooth="yes"/>
      <point x="173" y="474" type="line" smooth="yes"/>
      <point x="173" y="594"/>
      <point x="189" y="664"/>
      <point x="242" y="664" type="curve" smooth="yes"/>
      <point x="294.791" y="664"/>
      <point x="256.277" y="584"/>
      <point x="323" y="584" type="curve" smooth="yes"/>
      <point x="349" y="584"/>
      <point x="358" y="605"/>
      <point x="358" y="622" type="curve" smooth="yes"/>
      <point x="358" y="670.866"/>
      <point x="288.665" y="698"/>
      <point x="249" y="698" type="curve" smooth="yes"/>
      <point x="159.735" y="698"/>
      <point x="92.9008" y="603.457"/>
      <point x="92.9008" y="477" type="curve"/>
      <point x="93" y="122" type="line"/>
      <point x="93" y="39"/>
      <point x="82" y="34"/>
      <point x="28" y="31" type="curve"/>
      <point x="22" y="25"/>
      <point x="22" y="4"/>
      <point x="28" y="-2" type="curve"/>
      <point x="70" y="-1"/>
      <point x="92" y="0"/>
      <point x="133" y="0" type="curve" smooth="yes"/>
      <point x="179" y="0"/>
      <point x="209" y="-1"/>
      <point x="252" y="-2" type="curve"/>
      <point x="258" y="4"/>
      <point x="258" y="25"/>
      <point x="252" y="31" type="curve"/>
      <point x="184" y="34"/>
      <point x="173" y="39"/>
    </contour>
    <contour>
      <point x="107.9" y="429.304" type="line"/>
      <point x="52" y="429.304" type="line" smooth="yes"/>
      <point x="34" y="429.304"/>
      <point x="29" y="417"/>
      <point x="29" y="409" type="curve" smooth="yes"/>
      <point x="29" y="395" type="line" smooth="yes"/>
      <point x="29" y="391"/>
      <point x="30" y="390"/>
      <point x="34" y="390" type="curve" smooth="yes"/>
      <point x="108" y="390" type="line"/>
    </contour>
  </outline>
</glyph>
<glyph name="uni0180" format="2">
  <advance width="493"/>
  <unicode hex="0180"/>
  <outline>
    <contour>
      <point x="73" y="0" type="curve"/>
      <point x="78" y="-8"/>
      <point x="83" y="-12"/>
      <point x="95" y="-12" type="curve"/>
      <point x="110" y="0"/>
      <point x="123" y="13"/>
      <point x="134" y="27" type="curve"/>
      <point x="164" y="-3"/>
      <point x="193" y="-10" name=".hr01"/>
      <point x="235" y="-10" type="curve" smooth="yes"/>
      <point x="337" y="-10"/>
      <point x="456" y="83"/>
      <point x="456" y="233.295" type="curve" smooth="yes"/>
      <point x="456" y="349.202"/>
      <point x="378.733" y="439"/>
      <point x="279" y="439" type="curve" smooth="yes"/>
      <point x="231.367" y="439"/>
      <point x="204.418" y="426.224"/>
      <point x="144" y="375" type="curve"/>
      <point x="144" y="336" type="line"/>
      <point x="195.757" y="383.875"/>
      <point x="217.441" y="395"/>
      <point x="259" y="395" type="curve" smooth="yes"/>
      <point x="320" y="395"/>
      <point x="370" y="321"/>
      <point x="370" y="224" type="curve" smooth="yes"/>
      <point x="370" y="110"/>
      <point x="324" y="24"/>
      <point x="229" y="24" type="curve" smooth="yes"/>
      <point x="198" y="24"/>
      <point x="177" y="46"/>
      <point x="157" y="71" type="curve"/>
      <point x="157" y="583" type="line" smooth="yes"/>
      <point x="157" y="648"/>
      <point x="161" y="684"/>
      <point x="161" y="688" type="curve" smooth="yes"/>
      <point x="161" y="695"/>
      <point x="157" y="698"/>
      <point x="148" y="698" type="curve"/>
      <point x="123" y="688"/>
      <point x="47" y="674"/>
      <point x="7" y="671" type="curve"/>
      <point x="5" y="663"/>
      <point x="7" y="647"/>
      <point x="13" y="641" type="curve"/>
      <point x="63" y="639"/>
      <point x="77" y="631"/>
      <point x="77" y="605" type="curve" smooth="yes"/>
      <point x="77" y="71" type="line" smooth="yes"/>
      <point x="77" y="32"/>
      <point x="76" y="14"/>
    </contour>
    <contour>
      <point x="17" y="515" type="curve" smooth="yes" name=".hr02"/>
      <point x="246" y="515" type="line" smooth="yes"/>
      <point x="258" y="515"/>
      <point x="267" y="530"/>
      <point x="267" y="541" type="curve" smooth="yes"/>
      <point x="267" y="546"/>
      <point x="264" y="554"/>
      <point x="255" y="554" type="curve" smooth="yes"/>
      <point x="25" y="554" type="line" smooth="yes"/>
      <point x="16" y="554"/>
      <point x="6" y="539"/>
      <point x="6" y="529" type="curve" smooth="yes"/>
      <point x="6" y="523"/>
      <point x="9" y="515"/>
    </contour>
  </outline>
</glyph>
<glyph name="uni0181" format="2">
  <advance width="642"/>
  <unicode hex="0181"/>
  <anchor x="307" y="740" name="t.uni0302"/>
  <anchor x="318" y="-60" name="b.minus-60"/>
  <outline>
    <contour>
      <point x="208.995" y="644.713" type="line"/>
      <point x="184.039" y="644.173"/>
      <point x="150.87" y="647"/>
      <point x="133.903" y="647" type="curve" smooth="yes"/>
      <point x="68.0536" y="647"/>
      <point x="5" y="579.986"/>
      <point x="5" y="510" type="curve" smooth="yes"/>
      <point x="5" y="490"/>
      <point x="20" y="473"/>
      <point x="41" y="473" type="curve" smooth="yes"/>
      <point x="57" y="473"/>
      <point x="76" y="483"/>
      <point x="76" y="509" type="curve" smooth="yes"/>
      <point x="76" y="526"/>
      <point x="69" y="538"/>
      <point x="69" y="554" type="curve" smooth="yes"/>
      <point x="69" y="583"/>
      <point x="86.081" y="609.46"/>
      <point x="118.081" y="609.46" type="curve" smooth="yes"/>
      <point x="141.081" y="609.46"/>
      <point x="166" y="599.525"/>
      <point x="166" y="529.583" type="curve"/>
      <point x="209.001" y="529.583" type="line"/>
    </contour>
    <contour>
      <point x="209" y="645" type="curve"/>
      <point x="209" y="0" type="line"/>
      <point x="245" y="0"/>
      <point x="271" y="-2"/>
      <point x="355" y="-2" type="curve" smooth="yes"/>
      <point x="554" y="-2"/>
      <point x="607" y="98"/>
      <point x="607" y="184" type="curve" smooth="yes"/>
      <point x="607" y="280"/>
      <point x="540" y="335"/>
      <point x="453" y="360" type="curve"/>
      <point x="453" y="362" type="line"/>
      <point x="503" y="387"/>
      <point x="548" y="439"/>
      <point x="548" y="493" type="curve" smooth="yes"/>
      <point x="548" y="560"/>
      <point x="519" y="647"/>
      <point x="333" y="647" type="curve" smooth="yes"/>
      <point x="298" y="647"/>
      <point x="245" y="645"/>
    </contour>
    <contour>
      <point x="251" y="332" type="line"/>
      <point x="320" y="332" type="line" smooth="yes"/>
      <point x="457" y="332"/>
      <point x="514" y="255"/>
      <point x="514" y="165" type="curve" smooth="yes"/>
      <point x="514" y="92"/>
      <point x="486" y="31"/>
      <point x="334" y="31" type="curve" smooth="yes"/>
      <point x="264" y="31"/>
      <point x="251" y="57"/>
      <point x="251" y="118" type="curve" smooth="yes"/>
    </contour>
    <contour>
      <point x="251" y="550" type="line" smooth="yes"/>
      <point x="251" y="603"/>
      <point x="251" y="613"/>
      <point x="338" y="613" type="curve" smooth="yes"/>
      <point x="394" y="613"/>
      <point x="467" y="583"/>
      <point x="467" y="481" type="curve" smooth="yes"/>
      <point x="467" y="396"/>
      <point x="408" y="366"/>
      <point x="325" y="366" type="curve" smooth="yes"/>
      <point x="251" y="366" type="line"/>
    </contour>
    <contour>
      <point x="79" y="-2" type="curve"/>
      <point x="116" y="-1"/>
      <point x="176.5" y="0"/>
      <point x="209" y="0" type="curve"/>
      <point x="209" y="644.713" type="line"/>
      <point x="166" y="645.005" type="line"/>
      <point x="166" y="120" type="line" smooth="yes"/>
      <point x="166" y="39"/>
      <point x="149" y="34"/>
      <point x="79" y="31" type="curve"/>
      <point x="73" y="25"/>
      <point x="73" y="4"/>
    </contour>
  </outline>
  <guideline angle="90" x="166" y="0"/>
</glyph>
<glyph name="uni0186" format="2">
  <advance width="646"/>
  <unicode hex="0186"/>
  <outline>
    <contour>
      <point x="289" y="658" type="curve" smooth="yes"/>
      <point x="190.774" y="658"/>
      <point x="102.162" y="610.903"/>
      <point x="35" y="523" type="curve"/>
      <point x="40.625" y="512.875"/>
      <point x="48.1" y="508"/>
      <point x="58" y="508" type="curve"/>
      <point x="128.203" y="584.784"/>
      <point x="196.772" y="617"/>
      <point x="290" y="617" type="curve" smooth="yes"/>
      <point x="426.104" y="617"/>
      <point x="518" y="495.276"/>
      <point x="518" y="314.997" type="curve" smooth="yes"/>
      <point x="518" y="156.079"/>
      <point x="421.191" y="27"/>
      <point x="299" y="27" type="curve" smooth="yes"/>
      <point x="186.946" y="27"/>
      <point x="113.835" y="83.086"/>
      <point x="80" y="195" type="curve"/>
      <point x="69.531" y="198.49"/>
      <point x="59.885" y="197.028"/>
      <point x="47" y="190" type="curve"/>
      <point x="51.804" y="140.043"/>
      <point x="58.574" y="92.346"/>
      <point x="69" y="35" type="curve"/>
      <point x="120" y="30"/>
      <point x="165" y="-10"/>
      <point x="288" y="-10" type="curve" smooth="yes"/>
      <point x="470.865" y="-10"/>
      <point x="609" y="139.754"/>
      <point x="609" y="341.501" type="curve" smooth="yes"/>
      <point x="609" y="533.236"/>
      <point x="484.236" y="658"/>
    </contour>
  </outline>
</glyph>
<glyph name="uni0188" format="2">
  <advance width="493"/>
  <unicode hex="0188"/>
  <outline>
    <component base="c"/>
    <contour>
      <point x="456" y="428" type="curve" smooth="yes"/>
      <point x="477" y="428"/>
      <point x="490" y="442"/>
      <point x="490" y="463" type="curve" smooth="yes"/>
      <point x="490" y="477"/>
      <point x="482" y="499"/>
      <point x="448" y="499" type="curve" smooth="yes"/>
      <point x="410.473" y="499"/>
      <point x="349.8" y="473.417"/>
      <point x="325.142" y="404.772" type="curve"/>
      <point x="351.985" y="395.302" type="line"/>
      <point x="361.254" y="417.633"/>
      <point x="378.592" y="437"/>
      <point x="404" y="437" type="curve" smooth="yes"/>
      <point x="421" y="437"/>
      <point x="440" y="428"/>
    </contour>
  </outline>
</glyph>
<glyph name="uni018A" format="2">
  <advance width="782"/>
  <unicode hex="018A"/>
  <anchor x="306" y="805" name="m.uni0302"/>
  <anchor x="369" y="-107" name="m.uni0316_2"/>
  <outline>
    <contour>
      <point x="100" y="-2" type="curve"/>
      <point x="137" y="-1"/>
      <point x="198" y="0"/>
      <point x="230" y="0" type="curve"/>
      <point x="230" y="580.416" type="line"/>
      <point x="187" y="580.442" type="line"/>
      <point x="187" y="120" type="line" smooth="yes"/>
      <point x="187" y="39"/>
      <point x="170" y="34"/>
      <point x="100" y="31" type="curve"/>
      <point x="94" y="25"/>
      <point x="94" y="4"/>
    </contour>
    <contour>
      <point x="229.5" y="0" type="line"/>
      <point x="266.5" y="0"/>
      <point x="309" y="-2"/>
      <point x="412" y="-2" type="curve" smooth="yes"/>
      <point x="553" y="-2"/>
      <point x="739" y="62"/>
      <point x="739" y="308" type="curve" smooth="yes"/>
      <point x="739" y="494"/>
      <point x="586" y="647"/>
      <point x="394" y="647" type="curve" smooth="yes"/>
      <point x="323" y="647"/>
      <point x="268.5" y="645"/>
      <point x="229.5" y="645" type="curve"/>
    </contour>
    <contour>
      <point x="272" y="84" type="curve" smooth="yes"/>
      <point x="272" y="564" type="line" smooth="yes"/>
      <point x="272" y="599"/>
      <point x="307" y="613"/>
      <point x="356" y="613" type="curve" smooth="yes"/>
      <point x="572" y="613"/>
      <point x="643" y="438"/>
      <point x="643" y="284" type="curve" smooth="yes"/>
      <point x="643" y="82"/>
      <point x="522" y="32"/>
      <point x="381" y="32" type="curve" smooth="yes"/>
      <point x="283" y="32"/>
      <point x="272" y="52"/>
    </contour>
    <contour>
      <point x="248.695" y="645.144" type="line"/>
      <point x="227" y="645" type="line" smooth="yes"/>
      <point x="191" y="644.761"/>
      <point x="169" y="647"/>
      <point x="151.391" y="647" type="curve" smooth="yes"/>
      <point x="41" y="647"/>
      <point x="2" y="559"/>
      <point x="2" y="516" type="curve" smooth="yes"/>
      <point x="2" y="483"/>
      <point x="23" y="475"/>
      <point x="39" y="475" type="curve" smooth="yes"/>
      <point x="59" y="475"/>
      <point x="73" y="488"/>
      <point x="73" y="511.349" type="curve" smooth="yes"/>
      <point x="73" y="529"/>
      <point x="65" y="538"/>
      <point x="65" y="556.252" type="curve" smooth="yes"/>
      <point x="65" y="597.26"/>
      <point x="105.385" y="612.75"/>
      <point x="134.587" y="612.75" type="curve" smooth="yes"/>
      <point x="163.501" y="612.75"/>
      <point x="186.897" y="597.563"/>
      <point x="186.897" y="570.304" type="curve"/>
      <point x="248.695" y="570.304" type="line"/>
    </contour>
  </outline>
</glyph>
<glyph name="uni0191" format="2">
  <advance width="477"/>
  <unicode hex="0191"/>
  <outline>
    <contour>
      <point x="101" y="81" type="line" smooth="yes"/>
      <point x="101" y="34.1626"/>
      <point x="98.9122" y="-127"/>
      <point x="17" y="-127" type="curve" smooth="yes"/>
      <point x="4.04839" y="-127"/>
      <point x="-4.32318" y="-119.015"/>
      <point x="-11" y="-109" type="curve"/>
      <point x="-21" y="-96"/>
      <point x="-32" y="-82"/>
      <point x="-63" y="-82" type="curve" smooth="yes"/>
      <point x="-77" y="-82"/>
      <point x="-101" y="-96"/>
      <point x="-101" y="-118" type="curve" smooth="yes"/>
      <point x="-101" y="-154"/>
      <point x="-59" y="-172"/>
      <point x="-37" y="-172" type="curve" smooth="yes"/>
      <point x="121.03" y="-172"/>
      <point x="182" y="-13.325"/>
      <point x="182" y="119" type="curve" smooth="yes"/>
      <point x="182" y="323" type="line"/>
      <point x="277" y="323" type="line" smooth="yes"/>
      <point x="344.637" y="323"/>
      <point x="362" y="310.848"/>
      <point x="362" y="254.468" type="curve"/>
      <point x="364.506" y="252.853"/>
      <point x="372.671" y="252"/>
      <point x="378.28" y="252" type="curve" smooth="yes"/>
      <point x="383.654" y="252"/>
      <point x="391.535" y="253.461"/>
      <point x="395" y="255" type="curve"/>
      <point x="393.24" y="284.038"/>
      <point x="391" y="312.893"/>
      <point x="391" y="342" type="curve" smooth="yes"/>
      <point x="391" y="362"/>
      <point x="392" y="392"/>
      <point x="395" y="432" type="curve"/>
      <point x="392.819" y="434.239"/>
      <point x="386.272" y="436"/>
      <point x="378.858" y="436" type="curve" smooth="yes"/>
      <point x="372.143" y="436"/>
      <point x="365.894" y="435.448"/>
      <point x="362" y="433.506" type="curve"/>
      <point x="361.771" y="373.422"/>
      <point x="340.904" y="361"/>
      <point x="277" y="361" type="curve" smooth="yes"/>
      <point x="182" y="361" type="line"/>
      <point x="182" y="571" type="line" smooth="yes"/>
      <point x="182" y="595"/>
      <point x="194" y="605"/>
      <point x="218" y="605" type="curve" smooth="yes"/>
      <point x="323" y="605" type="line" smooth="yes"/>
      <point x="398" y="605"/>
      <point x="416" y="565"/>
      <point x="438" y="496" type="curve"/>
      <point x="448" y="498"/>
      <point x="457" y="499"/>
      <point x="467" y="501" type="curve"/>
      <point x="462" y="542"/>
      <point x="447" y="638"/>
      <point x="445" y="646" type="curve"/>
      <point x="445" y="648"/>
      <point x="444" y="649"/>
      <point x="441" y="649" type="curve"/>
      <point x="421.144" y="645.39"/>
      <point x="415.66" y="645"/>
      <point x="394" y="645" type="curve" smooth="yes"/>
      <point x="141" y="645" type="line" smooth="yes"/>
      <point x="102" y="645"/>
      <point x="61" y="646"/>
      <point x="14" y="647" type="curve"/>
      <point x="12.3214" y="643.347"/>
      <point x="12" y="636.565"/>
      <point x="12" y="631.784" type="curve" smooth="yes"/>
      <point x="12" y="627.042"/>
      <point x="12.9031" y="625.096"/>
      <point x="16.27" y="617.758" type="curve"/>
      <point x="73.3873" y="617.758"/>
      <point x="101" y="602.52"/>
      <point x="101" y="571" type="curve" smooth="yes"/>
    </contour>
  </outline>
</glyph>
<glyph name="florin" format="2">
  <advance width="440"/>
  <unicode hex="0192"/>
  <outline>
    <contour>
      <point x="132.272" y="-30.448" type="line" smooth="yes"/>
      <point x="117.422" y="-169.766"/>
      <point x="88.581" y="-206.539"/>
      <point x="59" y="-206.539" type="curve" smooth="yes"/>
      <point x="28.054" y="-206.539"/>
      <point x="53.392" y="-142"/>
      <point x="2" y="-142" type="curve" smooth="yes"/>
      <point x="-18" y="-142"/>
      <point x="-30" y="-161"/>
      <point x="-30" y="-176" type="curve" smooth="yes"/>
      <point x="-30" y="-195"/>
      <point x="0" y="-232"/>
      <point x="56" y="-232" type="curve" smooth="yes"/>
      <point x="141.048" y="-232"/>
      <point x="177.479" y="-128.019"/>
      <point x="203.553" y="75.029" type="curve" smooth="yes"/>
      <point x="264" y="541" type="line"/>
      <point x="277" y="647"/>
      <point x="307" y="669"/>
      <point x="325" y="669" type="curve" smooth="yes"/>
      <point x="348" y="669"/>
      <point x="358.249" y="634.045"/>
      <point x="361" y="618" type="curve" smooth="yes"/>
      <point x="364.25" y="599.041"/>
      <point x="380" y="593"/>
      <point x="400" y="593" type="curve" smooth="yes"/>
      <point x="420" y="593"/>
      <point x="432" y="610"/>
      <point x="432" y="630" type="curve" smooth="yes"/>
      <point x="432" y="659"/>
      <point x="406" y="698"/>
      <point x="326" y="698" type="curve" smooth="yes"/>
      <point x="268" y="698"/>
      <point x="209.427" y="630.52"/>
      <point x="187" y="483" type="curve"/>
    </contour>
    <contour>
      <point x="229" y="390" type="line"/>
      <point x="363.155" y="390" type="line"/>
      <point x="367.393" y="396.998"/>
      <point x="369" y="404.057"/>
      <point x="369" y="411.367" type="curve" smooth="yes"/>
      <point x="369" y="417.514"/>
      <point x="368.036" y="424.044"/>
      <point x="363" y="429" type="curve"/>
      <point x="235" y="429" type="line"/>
    </contour>
    <contour>
      <point x="83.259" y="397.128" type="line"/>
      <point x="188.651" y="390" type="line"/>
      <point x="194.594" y="429" type="line"/>
      <point x="86.913" y="422.007" type="line"/>
    </contour>
  </outline>
</glyph>
<glyph name="uni019F" format="2">
  <advance width="702"/>
  <unicode hex="019F"/>
  <anchor x="350" y="-110" name="m.uni0316_2"/>
  <outline>
    <contour>
      <point x="666" y="329" type="curve" smooth="yes"/>
      <point x="666" y="536"/>
      <point x="523" y="658"/>
      <point x="344" y="658" type="curve" smooth="yes"/>
      <point x="247" y="658"/>
      <point x="170" y="620"/>
      <point x="118" y="557" type="curve" smooth="yes"/>
      <point x="65" y="494"/>
      <point x="37" y="407"/>
      <point x="37" y="310" type="curve" smooth="yes"/>
      <point x="37" y="113"/>
      <point x="180" y="-10"/>
      <point x="350" y="-10" type="curve" smooth="yes"/>
      <point x="447" y="-10"/>
      <point x="527" y="27"/>
      <point x="582" y="88" type="curve" smooth="yes"/>
      <point x="590" y="97"/>
      <point x="597" y="106"/>
      <point x="604" y="116" type="curve" smooth="yes"/>
      <point x="644" y="173"/>
      <point x="666" y="245"/>
    </contour>
    <contour>
      <point x="570" y="309" type="line"/>
      <point x="570" y="287" name=".hr01"/>
      <point x="569" y="266"/>
      <point x="566" y="246" type="curve" smooth="yes" name=".hr02"/>
      <point x="548" y="106"/>
      <point x="470" y="26"/>
      <point x="370" y="26" type="curve" smooth="yes"/>
      <point x="252" y="26"/>
      <point x="140" y="128"/>
      <point x="133" y="309" type="curve"/>
    </contour>
    <contour>
      <point x="569" y="348" type="curve"/>
      <point x="133" y="348" type="line" name=".hr04"/>
      <point x="140" y="543"/>
      <point x="235" y="622"/>
      <point x="331" y="622" type="curve" smooth="yes"/>
      <point x="455" y="622"/>
      <point x="556" y="526"/>
    </contour>
  </outline>
</glyph>
